{
.appVersion = "3151";
DisplayStrings = (
"/shadelight/shademedium/shadedark/space a```a/quotedbl.inqu \"/quotedbl.utqu \"\"\"a\012\012/dots356-braille/dots236-braille/dots123-braille/dots124-braille/dots145-braille/dots456-braille {/leftDoubleParen/fullBlock/shadelight/shadelight/shadelight/shadelight/shadelight/rightDoubleParen/dots236-braille \012\012/downArrow \012\012/leftDoubleParen/fullBlock/shadelight/shadelight/shadelight/shadelight/shadelight/rightDoubleParen \012\012|3/blackFlag 3/space 9\012\012::\012\012/alternativekeysymbol ax/space \012\012/uni16A0 \012\012\01220*30/space -\0122/space */space 1\012.*|:~~\012****-*/space +\012~",
"{a}/space/heavenTrigram/space 1/space/fireTrigram [8235]\012\012\012\012/uniE0B0/uniE0B1/uniE0B2/uniE0B3",
".*/space .?/space .+/space .=/space .^/space !!/space !=/space !>/space !?/space =>/space =./space =:/space =^/space =,/space =</space =~/space =+/space =-/space =///space =|/space =*/space ?:/space ?@/space ?^/space ?-/space ?+/space ?./space ?>/space ?</space ?&/space ?|/space ?!/space ?=/space ?~/space |%/space |~/space |?/space |=/space |_/space |./space |-/space |^/space |:/space |*/space ~&/space ~%/space ~>/space ~</space ~?/space ~!/space ~|/space ~_/space ~+/space ~=/space ~$/space ~///space :-/space :_/space :+/space :^/space :*/space :~/space %=/space %-/space %./space %+/space %^/space %~/space %*/space %_/space ^-/space ^+/space ^=/space ^~/space ^|/space ^?/space $-/space $:/space $?/space $%/space $@/space $^/space $=/space $_/space ;:/space ;~/space ;;/space ;//\012\012$$$$$*a$\012\012($)\012\012$()\012$4.00",

glyphs = (
{
glyphname = A;
lastChange = "2020-11-26 21:49:25 +0000";
layers = (
{
anchors = (
{
name = bottom;
position = "{500, 0}";
},
{
name = ogonek;
position = "{930, 0}";
},
{
name = top;
position = "{500, 1044}";
}
);
background = {
paths = (
{
closed = 1;
nodes = (
"192 0 LINE",
"493 896 LINE",
"495 896 LINE",
"808 0 LINE",
"960 0 LINE",
"592 1044 LINE",
"399 1044 LINE",
"40 0 LINE"
);
},
{
closed = 1;
nodes = (
"190 164 LINE",
"840 164 LINE",
"840 304 LINE",
"190 304 LINE"
);
}
);
};
layerId = "7B6A6B4E-EFCA-423F-B1F3-F70C1AFA501E";
paths = (
{
closed = 1;
nodes = (
"100 52 LINE SMOOTH",
"100 17 OFFCURVE",
"115 0 OFFCURVE",
"145 0 CURVE SMOOTH",
"322 0 LINE SMOOTH",
"353 0 OFFCURVE",
"370 17 OFFCURVE",
"370 52 CURVE SMOOTH",
"370 134 LINE SMOOTH",
"370 174 OFFCURVE",
"399 194 OFFCURVE",
"428 194 CURVE SMOOTH",
"572 194 LINE SMOOTH",
"601 194 OFFCURVE",
"630 174 OFFCURVE",
"630 134 CURVE SMOOTH",
"630 52 LINE SMOOTH",
"630 17 OFFCURVE",
"648 0 OFFCURVE",
"678 0 CURVE SMOOTH",
"855 0 LINE SMOOTH",
"885 0 OFFCURVE",
"900 17 OFFCURVE",
"900 52 CURVE SMOOTH",
"900 872 LINE SMOOTH",
"900 1006 OFFCURVE",
"865 1044 OFFCURVE",
"735 1044 CURVE SMOOTH",
"265 1044 LINE SMOOTH",
"135 1044 OFFCURVE",
"100 1006 OFFCURVE",
"100 872 CURVE SMOOTH"
);
},
{
closed = 1;
nodes = (
"370 654 LINE SMOOTH",
"370 694 OFFCURVE",
"399 714 OFFCURVE",
"428 714 CURVE SMOOTH",
"572 714 LINE SMOOTH",
"601 714 OFFCURVE",
"630 694 OFFCURVE",
"630 654 CURVE SMOOTH",
"630 514 LINE SMOOTH",
"630 474 OFFCURVE",
"601 454 OFFCURVE",
"572 454 CURVE SMOOTH",
"428 454 LINE SMOOTH",
"399 454 OFFCURVE",
"370 474 OFFCURVE",
"370 514 CURVE SMOOTH"
);
}
);
width = 1000;
},
{
anchors = (
{
name = bottom;
position = "{500, 0}";
},
{
name = ogonek;
position = "{938, 0}";
},
{
name = top;
position = "{500, 1044}";
}
);
background = {
paths = (
{
closed = 1;
nodes = (
"192 0 LINE",
"493 896 LINE",
"495 896 LINE",
"808 0 LINE",
"960 0 LINE",
"592 1044 LINE",
"399 1044 LINE",
"40 0 LINE"
);
},
{
closed = 1;
nodes = (
"190 164 LINE",
"840 164 LINE",
"840 304 LINE",
"190 304 LINE"
);
}
);
};
layerId = "75A0A031-BEAD-45F4-8089-5B3FA8FFE7DC";
paths = (
{
closed = 1;
nodes = (
"72 0 LINE",
"394 955 LINE SMOOTH",
"434 1075 OFFCURVE",
"564 1075 OFFCURVE",
"605 955 CURVE SMOOTH",
"928 0 LINE",
"960 0 LINE",
"638 955 LINE SMOOTH",
"584 1115 OFFCURVE",
"416 1116 OFFCURVE",
"362 955 CURVE SMOOTH",
"40 0 LINE"
);
},
{
closed = 1;
nodes = (
"190 377 LINE",
"810 377 LINE",
"810 404 LINE",
"190 404 LINE"
);
}
);
width = 1000;
}
);
unicode = 0041;
},
{
glyphname = AE;
lastChange = "2020-04-20 21:27:55 +0000";
layers = (
{
layerId = "7B6A6B4E-EFCA-423F-B1F3-F70C1AFA501E";
paths = (
{
closed = 1;
nodes = (
"172 0 LINE",
"436 871 LINE SMOOTH",
"443 893 OFFCURVE",
"460 909 OFFCURVE",
"478 909 CURVE",
"548 909 LINE",
"549 1044 LINE",
"479 1044 LINE",
"405 1044 OFFCURVE",
"346 1013 OFFCURVE",
"326 951 CURVE SMOOTH",
"20 0 LINE"
);
},
{
closed = 1;
nodes = (
"980 0 LINE",
"980 135 LINE",
"670 135 LINE",
"670 435 LINE",
"940 435 LINE",
"940 565 LINE",
"670 565 LINE",
"670 909 LINE",
"940 909 LINE",
"940 1044 LINE",
"530 1044 LINE",
"530 0 LINE"
);
},
{
closed = 1;
nodes = (
"170 264 LINE",
"550 264 LINE",
"550 404 LINE",
"170 404 LINE"
);
}
);
width = 1000;
},
{
layerId = "75A0A031-BEAD-45F4-8089-5B3FA8FFE7DC";
paths = (
{
closed = 1;
nodes = (
"52 0 LINE",
"356 945 LINE SMOOTH",
"375 1003 OFFCURVE",
"420 1017 OFFCURVE",
"478 1017 CURVE SMOOTH",
"548 1017 LINE",
"549 1044 LINE",
"479 1044 LINE SMOOTH",
"405 1044 OFFCURVE",
"346 1013 OFFCURVE",
"326 951 CURVE SMOOTH",
"20 0 LINE"
);
},
{
closed = 1;
nodes = (
"980 0 LINE",
"980 27 LINE",
"560 27 LINE",
"560 487 LINE",
"940 487 LINE",
"940 514 LINE",
"560 514 LINE",
"560 1017 LINE",
"940 1017 LINE",
"940 1044 LINE",
"530 1044 LINE",
"530 0 LINE"
);
},
{
closed = 1;
nodes = (
"150 321 LINE",
"550 321 LINE",
"550 348 LINE",
"150 348 LINE"
);
}
);
width = 1000;
}
);
unicode = 00C6;
},
{
glyphname = B;
lastChange = "2020-04-18 08:53:45 +0000";
layers = (
{
layerId = "7B6A6B4E-EFCA-423F-B1F3-F70C1AFA501E";
paths = (
{
closed = 1;
nodes = (
"300 0 LINE",
"300 1044 LINE",
"160 1044 LINE",
"160 0 LINE"
);
},
{
closed = 1;
nodes = (
"234 0 LINE",
"616 0 LINE SMOOTH",
"811 0 OFFCURVE",
"880 113 OFFCURVE",
"880 267 CURVE SMOOTH",
"880 426 OFFCURVE",
"805 487 OFFCURVE",
"738 509 CURVE",
"821 556 OFFCURVE",
"855 662 OFFCURVE",
"855 766 CURVE SMOOTH",
"855 945 OFFCURVE",
"756 1044 OFFCURVE",
"553 1044 CURVE SMOOTH",
"234 1044 LINE",
"234 909 LINE",
"534 909 LINE SMOOTH",
"630 909 OFFCURVE",
"715 875 OFFCURVE",
"715 737 CURVE SMOOTH",
"715 571 OFFCURVE",
"593 559 OFFCURVE",
"511 559 CURVE SMOOTH",
"234 559 LINE",
"234 429 LINE",
"551 429 LINE SMOOTH",
"640 429 OFFCURVE",
"736 404 OFFCURVE",
"736 266 CURVE SMOOTH",
"736 153 OFFCURVE",
"672 136 OFFCURVE",
"589 136 CURVE SMOOTH",
"234 136 LINE"
);
}
);
width = 1000;
},
{
layerId = "75A0A031-BEAD-45F4-8089-5B3FA8FFE7DC";
paths = (
{
closed = 1;
nodes = (
"190 0 LINE",
"190 1044 LINE",
"160 1044 LINE",
"160 0 LINE"
);
},
{
closed = 1;
nodes = (
"174 0 LINE",
"616 0 LINE SMOOTH",
"811 0 OFFCURVE",
"880 113 OFFCURVE",
"880 267 CURVE SMOOTH",
"880 426 OFFCURVE",
"805 485 OFFCURVE",
"678 507 CURVE",
"818 554 OFFCURVE",
"855 662 OFFCURVE",
"855 770 CURVE SMOOTH",
"855 945 OFFCURVE",
"756 1044 OFFCURVE",
"553 1044 CURVE SMOOTH",
"174 1044 LINE",
"174 1017 LINE",
"553 1017 LINE SMOOTH",
"740 1017 OFFCURVE",
"822 919 OFFCURVE",
"822 770 CURVE SMOOTH",
"822 587 OFFCURVE",
"693 516 OFFCURVE",
"551 516 CURVE SMOOTH",
"174 516 LINE",
"174 489 LINE",
"551 489 LINE SMOOTH",
"770 489 OFFCURVE",
"847 414 OFFCURVE",
"847 266 CURVE SMOOTH",
"847 133 OFFCURVE",
"789 28 OFFCURVE",
"616 28 CURVE SMOOTH",
"174 28 LINE"
);
}
);
width = 1000;
}
);
unicode = 0042;
},
{
glyphname = C;
lastChange = "2020-11-22 09:03:57 +0000";
layers = (
{
anchors = (
{
name = bottom;
position = "{500, 0}";
},
{
name = top;
position = "{500, 1052}";
}
);
layerId = "7B6A6B4E-EFCA-423F-B1F3-F70C1AFA501E";
paths = (
{
closed = 1;
nodes = (
"896 0 LINE SMOOTH",
"925 0 OFFCURVE",
"950 17 OFFCURVE",
"950 52 CURVE SMOOTH",
"950 214 LINE SMOOTH",
"950 249 OFFCURVE",
"935 270 OFFCURVE",
"906 270 CURVE SMOOTH",
"504 270 LINE SMOOTH",
"437 270 OFFCURVE",
"400 286 OFFCURVE",
"400 362 CURVE SMOOTH",
"400 682 LINE",
"400 758 OFFCURVE",
"437 774 OFFCURVE",
"504 774 CURVE SMOOTH",
"906 774 LINE SMOOTH",
"935 774 OFFCURVE",
"950 795 OFFCURVE",
"950 830 CURVE SMOOTH",
"950 992 LINE SMOOTH",
"950 1027 OFFCURVE",
"925 1044 OFFCURVE",
"896 1044 CURVE SMOOTH",
"256 1044 LINE SMOOTH",
"158 1044 OFFCURVE",
"100 1000 OFFCURVE",
"100 882 CURVE SMOOTH",
"100 162 LINE SMOOTH",
"100 44 OFFCURVE",
"158 0 OFFCURVE",
"256 0 CURVE SMOOTH"
);
}
);
width = 1000;
},
{
anchors = (
{
name = bottom;
position = "{500, 0}";
},
{
name = top;
position = "{500, 1052}";
}
);
layerId = "75A0A031-BEAD-45F4-8089-5B3FA8FFE7DC";
paths = (
{
closed = 1;
nodes = (
"883 216 LINE",
"838 99 OFFCURVE",
"707 7 OFFCURVE",
"530 7 CURVE SMOOTH",
"256 7 OFFCURVE",
"110 224 OFFCURVE",
"110 484 CURVE SMOOTH",
"110 560 LINE SMOOTH",
"110 840 OFFCURVE",
"246 1037 OFFCURVE",
"528 1037 CURVE SMOOTH",
"697 1037 OFFCURVE",
"874 968 OFFCURVE",
"884 816 CURVE",
"910 820 LINE",
"900 981 OFFCURVE",
"720 1064 OFFCURVE",
"528 1064 CURVE SMOOTH",
"221 1064 OFFCURVE",
"80 865 OFFCURVE",
"80 562 CURVE SMOOTH",
"80 482 LINE SMOOTH",
"80 208 OFFCURVE",
"231 -20 OFFCURVE",
"530 -20 CURVE SMOOTH",
"703 -20 OFFCURVE",
"851 64 OFFCURVE",
"910 204 CURVE"
);
}
);
width = 1000;
}
);
unicode = 0043;
},
{
glyphname = D;
lastChange = "2020-11-26 21:57:27 +0000";
layers = (
{
anchors = (
{
name = bottom;
position = "{500, 0}";
},
{
name = center;
position = "{270, 276}";
},
{
name = top;
position = "{500, 1052}";
}
);
layerId = "7B6A6B4E-EFCA-423F-B1F3-F70C1AFA501E";
paths = (
{
closed = 1;
nodes = (
"369 0 LINE SMOOTH",
"746 0 OFFCURVE",
"900 262 OFFCURVE",
"900 523 CURVE SMOOTH",
"900 765 OFFCURVE",
"765 1044 OFFCURVE",
"388 1044 CURVE SMOOTH",
"160 1044 LINE",
"160 0 LINE"
);
},
{
closed = 1;
nodes = (
"300 909 LINE",
"382 909 LINE SMOOTH",
"709 909 OFFCURVE",
"755 682 OFFCURVE",
"755 522 CURVE SMOOTH",
"755 309 OFFCURVE",
"663 135 OFFCURVE",
"388 135 CURVE SMOOTH",
"300 135 LINE"
);
}
);
width = 1000;
},
{
anchors = (
{
name = bottom;
position = "{500, 0}";
},
{
name = center;
position = "{270, 276}";
},
{
name = top;
position = "{500, 1052}";
}
);
layerId = "75A0A031-BEAD-45F4-8089-5B3FA8FFE7DC";
paths = (
{
closed = 1;
nodes = (
"388 0 LINE SMOOTH",
"746 0 OFFCURVE",
"900 262 OFFCURVE",
"900 523 CURVE SMOOTH",
"900 765 OFFCURVE",
"765 1044 OFFCURVE",
"388 1044 CURVE SMOOTH",
"160 1044 LINE",
"160 0 LINE"
);
},
{
closed = 1;
nodes = (
"190 1017 LINE",
"388 1017 LINE SMOOTH",
"749 1017 OFFCURVE",
"867 753 OFFCURVE",
"867 523 CURVE SMOOTH",
"867 280 OFFCURVE",
"733 27 OFFCURVE",
"388 27 CURVE SMOOTH",
"190 27 LINE"
);
}
);
width = 1000;
}
);
unicode = 0044;
},
{
glyphname = E;
lastChange = "2020-11-22 08:47:00 +0000";
layers = (
{
anchors = (
{
name = bottom;
position = "{500, 0}";
},
{
name = ogonek;
position = "{833, 0}";
},
{
name = top;
position = "{500, 1052}";
},
{
name = topleft;
position = "{20, 1152}";
}
);
layerId = "7B6A6B4E-EFCA-423F-B1F3-F70C1AFA501E";
paths = (
{
closed = 1;
nodes = (
"100 52 LINE",
"100 16 OFFCURVE",
"114 0 OFFCURVE",
"153 0 CURVE SMOOTH",
"857 0 LINE SMOOTH",
"886 0 OFFCURVE",
"900 17 OFFCURVE",
"900 52 CURVE SMOOTH",
"900 190 LINE SMOOTH",
"900 249 OFFCURVE",
"886 270 OFFCURVE",
"850 270 CURVE SMOOTH",
"470 270 LINE SMOOTH",
"425 270 OFFCURVE",
"411 286 OFFCURVE",
"411 330 CURVE SMOOTH",
"411 375 OFFCURVE",
"425 390 OFFCURVE",
"470 390 CURVE SMOOTH",
"833 390 LINE SMOOTH",
"877 390 OFFCURVE",
"900 413 OFFCURVE",
"900 459 CURVE",
"900 585 LINE",
"900 631 OFFCURVE",
"877 654 OFFCURVE",
"833 654 CURVE SMOOTH",
"470 654 LINE SMOOTH",
"425 654 OFFCURVE",
"411 669 OFFCURVE",
"411 714 CURVE SMOOTH",
"411 758 OFFCURVE",
"425 774 OFFCURVE",
"470 774 CURVE SMOOTH",
"850 774 LINE SMOOTH",
"886 774 OFFCURVE",
"900 795 OFFCURVE",
"900 854 CURVE SMOOTH",
"900 992 LINE SMOOTH",
"900 1027 OFFCURVE",
"886 1044 OFFCURVE",
"857 1044 CURVE SMOOTH",
"153 1044 LINE SMOOTH",
"114 1044 OFFCURVE",
"100 1028 OFFCURVE",
"100 992 CURVE"
);
}
);
width = 1000;
},
{
anchors = (
{
name = bottom;
position = "{500, 0}";
},
{
name = ogonek;
position = "{833, 0}";
},
{
name = top;
position = "{500, 1052}";
},
{
name = topleft;
position = "{20, 1152}";
}
);
layerId = "75A0A031-BEAD-45F4-8089-5B3FA8FFE7DC";
paths = (
{
closed = 1;
nodes = (
"880 0 LINE",
"880 27 LINE",
"210 27 LINE",
"210 487 LINE",
"840 487 LINE",
"840 514 LINE",
"210 514 LINE",
"210 1017 LINE",
"840 1017 LINE",
"840 1044 LINE",
"180 1044 LINE",
"180 0 LINE"
);
}
);
width = 1000;
}
);
unicode = 0045;
},
{
glyphname = Estroke;
lastChange = "2020-04-20 21:13:02 +0000";
layers = (
{
anchors = (
{
name = _center;
position = "{903, 450}";
},
{
name = bottom;
position = "{1000, 0}";
},
{
name = ogonek;
position = "{1333, 0}";
},
{
name = top;
position = "{1000, 1052}";
},
{
name = topleft;
position = "{520, 1152}";
}
);
guideLines = (
{
angle = 61.387;
position = "{300, 441}";
}
);
layerId = "7B6A6B4E-EFCA-423F-B1F3-F70C1AFA501E";
paths = (
{
closed = 1;
nodes = (
"880 0 LINE",
"880 135 LINE",
"320 135 LINE",
"320 435 LINE",
"840 435 LINE",
"840 565 LINE",
"320 565 LINE",
"320 909 LINE",
"840 909 LINE",
"840 1044 LINE",
"180 1044 LINE",
"180 0 LINE"
);
},
{
closed = 1;
nodes = (
"70 -280 LINE",
"219 -280 LINE",
"1130 1280 LINE",
"981 1280 LINE"
);
}
);
width = 1000;
},
{
anchors = (
{
name = _center;
position = "{903, 450}";
},
{
name = bottom;
position = "{1000, 0}";
},
{
name = ogonek;
position = "{1333, 0}";
},
{
name = top;
position = "{1000, 1052}";
},
{
name = topleft;
position = "{520, 1152}";
}
);
guideLines = (
{
angle = 61.387;
position = "{300, 441}";
}
);
layerId = "75A0A031-BEAD-45F4-8089-5B3FA8FFE7DC";
paths = (
{
closed = 1;
nodes = (
"880 0 LINE",
"880 27 LINE",
"210 27 LINE",
"210 487 LINE",
"840 487 LINE",
"840 514 LINE",
"210 514 LINE",
"210 1017 LINE",
"840 1017 LINE",
"840 1044 LINE",
"180 1044 LINE",
"180 0 LINE"
);
},
{
closed = 1;
nodes = (
"-34 -280 LINE",
"3 -280 LINE",
"1034 1280 LINE",
"997 1280 LINE"
);
}
);
width = 1000;
}
);
unicode = 0246;
},
{
glyphname = F;
lastChange = "2020-11-22 08:39:51 +0000";
layers = (
{
layerId = "7B6A6B4E-EFCA-423F-B1F3-F70C1AFA501E";
paths = (
{
closed = 1;
nodes = (
"910 992 LINE SMOOTH",
"910 1027 OFFCURVE",
"896 1044 OFFCURVE",
"867 1044 CURVE SMOOTH",
"173 1044 LINE SMOOTH",
"134 1044 OFFCURVE",
"120 1028 OFFCURVE",
"120 992 CURVE SMOOTH",
"120 52 LINE SMOOTH",
"120 16 OFFCURVE",
"134 0 OFFCURVE",
"173 0 CURVE SMOOTH",
"367 0 LINE SMOOTH",
"406 0 OFFCURVE",
"420 16 OFFCURVE",
"420 52 CURVE SMOOTH",
"420 204 LINE SMOOTH",
"420 244 OFFCURVE",
"449 264 OFFCURVE",
"478 264 CURVE SMOOTH",
"843 264 LINE SMOOTH",
"887 264 OFFCURVE",
"910 287 OFFCURVE",
"910 333 CURVE SMOOTH",
"910 465 LINE SMOOTH",
"910 511 OFFCURVE",
"887 534 OFFCURVE",
"843 534 CURVE SMOOTH",
"490 534 LINE SMOOTH",
"445 534 OFFCURVE",
"431 549 OFFCURVE",
"431 654 CURVE SMOOTH",
"431 758 OFFCURVE",
"445 774 OFFCURVE",
"490 774 CURVE SMOOTH",
"860 774 LINE SMOOTH",
"896 774 OFFCURVE",
"910 795 OFFCURVE",
"910 854 CURVE SMOOTH"
);
}
);
width = 1000;
},
{
layerId = "75A0A031-BEAD-45F4-8089-5B3FA8FFE7DC";
paths = (
{
closed = 1;
nodes = (
"240 0 LINE",
"240 487 LINE",
"880 487 LINE",
"880 514 LINE",
"240 514 LINE",
"240 1017 LINE",
"880 1017 LINE",
"880 1044 LINE",
"210 1044 LINE",
"210 0 LINE"
);
}
);
width = 1000;
}
);
unicode = 0046;
},
{
glyphname = G;
lastChange = "2020-11-26 21:56:55 +0000";
layers = (
{
anchors = (
{
name = bottom;
position = "{500, 0}";
},
{
name = top;
position = "{500, 1052}";
}
);
layerId = "7B6A6B4E-EFCA-423F-B1F3-F70C1AFA501E";
paths = (
{
closed = 1;
nodes = (
"586 0 OFFCURVE",
"548 155 OFFCURVE",
"616 155 CURVE SMOOTH",
"686 155 OFFCURVE",
"692 -8 OFFCURVE",
"808 -8 CURVE SMOOTH",
"859 -8 OFFCURVE",
"900 23 OFFCURVE",
"900 89 CURVE",
"900 622 LINE",
"900 658 OFFCURVE",
"886 674 OFFCURVE",
"847 674 CURVE SMOOTH",
"494 674 LINE SMOOTH",
"455 674 OFFCURVE",
"441 657 OFFCURVE",
"441 622 CURVE SMOOTH",
"441 494 LINE SMOOTH",
"441 445 OFFCURVE",
"455 434 OFFCURVE",
"501 434 CURVE SMOOTH",
"590 434 LINE SMOOTH",
"615 434 OFFCURVE",
"629 418 OFFCURVE",
"629 384 CURVE SMOOTH",
"629 320 LINE",
"629 285 OFFCURVE",
"615 270 OFFCURVE",
"570 270 CURVE SMOOTH",
"400 270 LINE SMOOTH",
"355 270 OFFCURVE",
"341 295 OFFCURVE",
"341 340 CURVE",
"341 694 LINE SMOOTH",
"341 748 OFFCURVE",
"365 774 OFFCURVE",
"420 774 CURVE SMOOTH",
"850 774 LINE SMOOTH",
"886 774 OFFCURVE",
"900 795 OFFCURVE",
"900 824 CURVE SMOOTH",
"900 992 LINE SMOOTH",
"900 1027 OFFCURVE",
"886 1044 OFFCURVE",
"857 1044 CURVE SMOOTH",
"153 1044 LINE SMOOTH",
"114 1044 OFFCURVE",
"100 1028 OFFCURVE",
"100 992 CURVE SMOOTH",
"100 69 LINE",
"100 23 OFFCURVE",
"123 0 OFFCURVE",
"167 0 CURVE SMOOTH",
"469 0 LINE SMOOTH"
);
}
);
width = 1000;
},
{
anchors = (
{
name = bottom;
position = "{500, 0}";
},
{
name = top;
position = "{500, 1052}";
}
);
layerId = "75A0A031-BEAD-45F4-8089-5B3FA8FFE7DC";
paths = (
{
closed = 1;
nodes = (
"709 -20 OFFCURVE",
"880 95 OFFCURVE",
"880 311 CURVE SMOOTH",
"880 514 LINE",
"850 514 LINE",
"850 311 LINE SMOOTH",
"850 109 OFFCURVE",
"696 7 OFFCURVE",
"500 7 CURVE SMOOTH",
"225 7 OFFCURVE",
"110 234 OFFCURVE",
"110 464 CURVE SMOOTH",
"110 580 LINE SMOOTH",
"110 842 OFFCURVE",
"264 1037 OFFCURVE",
"518 1037 CURVE SMOOTH",
"675 1037 OFFCURVE",
"812 965 OFFCURVE",
"845 830 CURVE",
"875 840 LINE",
"845 981 OFFCURVE",
"700 1064 OFFCURVE",
"518 1064 CURVE SMOOTH",
"231 1064 OFFCURVE",
"80 865 OFFCURVE",
"80 582 CURVE SMOOTH",
"80 462 LINE SMOOTH",
"80 208 OFFCURVE",
"201 -20 OFFCURVE",
"500 -20 CURVE SMOOTH"
);
},
{
closed = 1;
nodes = (
"980 514 LINE",
"498 514 LINE",
"498 487 LINE",
"980 487 LINE"
);
}
);
width = 1000;
}
);
unicode = 0047;
},
{
glyphname = H;
lastChange = "2020-11-22 09:04:57 +0000";
layers = (
{
layerId = "7B6A6B4E-EFCA-423F-B1F3-F70C1AFA501E";
paths = (
{
closed = 1;
nodes = (
"100 15 OFFCURVE",
"116 0 OFFCURVE",
"145 0 CURVE SMOOTH",
"325 0 LINE SMOOTH",
"355 0 OFFCURVE",
"370 15 OFFCURVE",
"370 45 CURVE",
"370 310 LINE SMOOTH",
"370 351 OFFCURVE",
"385 372 OFFCURVE",
"415 372 CURVE SMOOTH",
"585 372 LINE SMOOTH",
"615 372 OFFCURVE",
"629 351 OFFCURVE",
"629 310 CURVE SMOOTH",
"629 45 LINE SMOOTH",
"629 15 OFFCURVE",
"644 0 OFFCURVE",
"674 0 CURVE SMOOTH",
"855 0 LINE SMOOTH",
"885 0 OFFCURVE",
"900 15 OFFCURVE",
"900 45 CURVE SMOOTH",
"900 999 LINE SMOOTH",
"900 1029 OFFCURVE",
"885 1044 OFFCURVE",
"855 1044 CURVE SMOOTH",
"671 1044 LINE SMOOTH",
"644 1044 OFFCURVE",
"629 1029 OFFCURVE",
"629 999 CURVE SMOOTH",
"629 734 LINE SMOOTH",
"629 693 OFFCURVE",
"615 672 OFFCURVE",
"585 672 CURVE SMOOTH",
"415 672 LINE SMOOTH",
"385 672 OFFCURVE",
"370 693 OFFCURVE",
"370 734 CURVE SMOOTH",
"370 999 LINE SMOOTH",
"370 1029 OFFCURVE",
"355 1044 OFFCURVE",
"325 1044 CURVE SMOOTH",
"145 1044 LINE SMOOTH",
"116 1044 OFFCURVE",
"100 1029 OFFCURVE",
"100 999 CURVE SMOOTH",
"100 45 LINE SMOOTH"
);
}
);
width = 1000;
},
{
layerId = "75A0A031-BEAD-45F4-8089-5B3FA8FFE7DC";
paths = (
{
closed = 1;
nodes = (
"150 487 LINE",
"850 487 LINE",
"850 514 LINE",
"150 514 LINE"
);
},
{
closed = 1;
nodes = (
"150 0 LINE",
"180 0 LINE",
"180 1044 LINE",
"150 1044 LINE"
);
},
{
closed = 1;
nodes = (
"820 0 LINE",
"850 0 LINE",
"850 1044 LINE",
"820 1044 LINE"
);
}
);
width = 1000;
}
);
unicode = 0048;
},
{
glyphname = Hbar;
lastChange = "2020-04-20 21:24:11 +0000";
layers = (
{
anchors = (
{
name = _center;
position = "{539, 427}";
}
);
layerId = "7B6A6B4E-EFCA-423F-B1F3-F70C1AFA501E";
paths = (
{
closed = 1;
nodes = (
"230 633 LINE",
"762 633 LINE",
"762 768 LINE",
"230 768 LINE"
);
},
{
closed = 1;
nodes = (
"150 0 LINE",
"290 0 LINE",
"290 1044 LINE",
"150 1044 LINE"
);
},
{
closed = 1;
nodes = (
"710 0 LINE",
"850 0 LINE",
"850 1044 LINE",
"710 1044 LINE"
);
},
{
closed = 1;
nodes = (
"230 233 LINE",
"762 233 LINE",
"762 368 LINE",
"230 368 LINE"
);
}
);
width = 1000;
},
{
anchors = (
{
name = _center;
position = "{539, 427}";
}
);
layerId = "75A0A031-BEAD-45F4-8089-5B3FA8FFE7DC";
paths = (
{
closed = 1;
nodes = (
"150 627 LINE",
"850 627 LINE",
"850 654 LINE",
"150 654 LINE"
);
},
{
closed = 1;
nodes = (
"150 0 LINE",
"180 0 LINE",
"180 1044 LINE",
"150 1044 LINE"
);
},
{
closed = 1;
nodes = (
"820 0 LINE",
"850 0 LINE",
"850 1044 LINE",
"820 1044 LINE"
);
},
{
closed = 1;
nodes = (
"150 347 LINE",
"850 347 LINE",
"850 374 LINE",
"150 374 LINE"
);
}
);
width = 1000;
}
);
unicode = 0126;
},
{
glyphname = I;
lastChange = "2020-11-22 08:48:28 +0000";
layers = (
{
anchors = (
{
name = bottom;
position = "{500, 0}";
},
{
name = ogonek;
position = "{900, 10}";
},
{
name = top;
position = "{500, 1044}";
},
{
name = topleft;
position = "{20, 1152}";
}
);
layerId = "7B6A6B4E-EFCA-423F-B1F3-F70C1AFA501E";
paths = (
{
closed = 1;
nodes = (
"143 1044 LINE SMOOTH",
"101 1044 OFFCURVE",
"80 1021 OFFCURVE",
"80 975 CURVE SMOOTH",
"80 843 LINE SMOOTH",
"80 797 OFFCURVE",
"101 774 OFFCURVE",
"143 774 CURVE SMOOTH",
"292 774 LINE SMOOTH",
"321 774 OFFCURVE",
"350 754 OFFCURVE",
"350 714 CURVE SMOOTH",
"350 330 LINE SMOOTH",
"350 290 OFFCURVE",
"321 270 OFFCURVE",
"292 270 CURVE SMOOTH",
"143 270 LINE SMOOTH",
"101 270 OFFCURVE",
"80 247 OFFCURVE",
"80 201 CURVE SMOOTH",
"80 69 LINE SMOOTH",
"80 23 OFFCURVE",
"101 0 OFFCURVE",
"143 0 CURVE SMOOTH",
"853 0 LINE SMOOTH",
"897 0 OFFCURVE",
"920 23 OFFCURVE",
"920 69 CURVE SMOOTH",
"920 201 LINE SMOOTH",
"920 247 OFFCURVE",
"897 270 OFFCURVE",
"853 270 CURVE SMOOTH",
"708 270 LINE SMOOTH",
"679 270 OFFCURVE",
"650 290 OFFCURVE",
"650 330 CURVE SMOOTH",
"650 714 LINE SMOOTH",
"650 754 OFFCURVE",
"679 774 OFFCURVE",
"708 774 CURVE SMOOTH",
"853 774 LINE SMOOTH",
"897 774 OFFCURVE",
"920 797 OFFCURVE",
"920 843 CURVE SMOOTH",
"920 975 LINE SMOOTH",
"920 1021 OFFCURVE",
"897 1044 OFFCURVE",
"853 1044 CURVE SMOOTH"
);
}
);
width = 1000;
},
{
anchors = (
{
name = bottom;
position = "{500, 0}";
},
{
name = ogonek;
position = "{900, 10}";
},
{
name = top;
position = "{500, 1052}";
},
{
name = topleft;
position = "{20, 1152}";
}
);
layerId = "75A0A031-BEAD-45F4-8089-5B3FA8FFE7DC";
paths = (
{
closed = 1;
nodes = (
"860 1017 LINE",
"860 1044 LINE",
"140 1044 LINE",
"140 1017 LINE"
);
},
{
closed = 1;
nodes = (
"515 0 LINE",
"515 1044 LINE",
"485 1044 LINE",
"485 0 LINE"
);
},
{
closed = 1;
nodes = (
"140 27 LINE",
"140 0 LINE",
"860 0 LINE",
"860 27 LINE"
);
}
);
width = 1000;
}
);
unicode = 0049;
},
{
glyphname = J;
lastChange = "2020-04-19 03:31:21 +0000";
layers = (
{
layerId = "7B6A6B4E-EFCA-423F-B1F3-F70C1AFA501E";
paths = (
{
closed = 1;
nodes = (
"560 1044 LINE",
"560 381 LINE SMOOTH",
"560 139 OFFCURVE",
"510 115 OFFCURVE",
"140 115 CURVE",
"140 -30 LINE",
"616 -30 OFFCURVE",
"700 -8 OFFCURVE",
"700 381 CURVE SMOOTH",
"700 1044 LINE"
);
},
{
closed = 1;
nodes = (
"960 909 LINE",
"960 1044 LINE",
"140 1044 LINE",
"140 909 LINE"
);
}
);
width = 1000;
},
{
layerId = "75A0A031-BEAD-45F4-8089-5B3FA8FFE7DC";
paths = (
{
closed = 1;
nodes = (
"670 1044 LINE",
"670 381 LINE SMOOTH",
"670 19 OFFCURVE",
"600 -3 OFFCURVE",
"140 -3 CURVE",
"140 -30 LINE",
"616 -30 OFFCURVE",
"700 -8 OFFCURVE",
"700 381 CURVE SMOOTH",
"700 1044 LINE"
);
},
{
closed = 1;
nodes = (
"960 1017 LINE",
"960 1044 LINE",
"140 1044 LINE",
"140 1017 LINE"
);
}
);
width = 1000;
}
);
unicode = 004A;
},
{
glyphname = K;
lastChange = "2020-11-22 08:56:02 +0000";
layers = (
{
background = {
paths = (
{
closed = 1;
nodes = (
"444 700 LINE",
"111 700 LINE",
"111 600 LINE",
"444 600 LINE"
);
},
{
closed = 1;
nodes = (
"444 660 LINE",
"333 660 LINE",
"333 0 LINE",
"444 0 LINE"
);
},
{
closed = 1;
nodes = (
"222 300 LINE",
"111 300 LINE",
"111 0 LINE",
"222 0 LINE"
);
},
{
closed = 1;
nodes = (
"666 400 LINE",
"400 400 LINE",
"400 300 LINE",
"666 300 LINE"
);
},
{
closed = 1;
nodes = (
"366 500 LINE",
"111 500 LINE",
"111 400 LINE",
"366 400 LINE"
);
},
{
closed = 1;
nodes = (
"888 100 LINE",
"622 100 LINE",
"622 0 LINE",
"888 0 LINE"
);
},
{
closed = 1;
nodes = (
"777 20 LINE",
"888 20 LINE",
"888 500 LINE",
"777 500 LINE"
);
},
{
closed = 1;
nodes = (
"888 700 LINE",
"555 700 LINE",
"555 600 LINE",
"888 600 LINE"
);
},
{
closed = 1;
nodes = (
"666 0 LINE",
"666 700 LINE",
"555 700 LINE",
"555 0 LINE"
);
}
);
};
layerId = "7B6A6B4E-EFCA-423F-B1F3-F70C1AFA501E";
paths = (
{
closed = 1;
nodes = (
"731 729 LINE SMOOTH",
"759 764 OFFCURVE",
"785 774 OFFCURVE",
"847 774 CURVE SMOOTH",
"906 774 LINE SMOOTH",
"935 774 OFFCURVE",
"950 795 OFFCURVE",
"950 830 CURVE SMOOTH",
"950 992 LINE SMOOTH",
"950 1027 OFFCURVE",
"925 1044 OFFCURVE",
"896 1044 CURVE SMOOTH",
"716 1044 LINE SMOOTH",
"674 1044 OFFCURVE",
"643 1021 OFFCURVE",
"620 989 CURVE SMOOTH",
"440 734 LINE SMOOTH",
"413 695 OFFCURVE",
"400 710 OFFCURVE",
"400 739 CURVE SMOOTH",
"400 992 LINE SMOOTH",
"400 1027 OFFCURVE",
"383 1044 OFFCURVE",
"352 1044 CURVE SMOOTH",
"145 1044 LINE SMOOTH",
"115 1044 OFFCURVE",
"100 1027 OFFCURVE",
"100 992 CURVE SMOOTH",
"100 52 LINE SMOOTH",
"100 17 OFFCURVE",
"115 0 OFFCURVE",
"145 0 CURVE SMOOTH",
"352 0 LINE SMOOTH",
"383 0 OFFCURVE",
"400 17 OFFCURVE",
"400 52 CURVE SMOOTH",
"400 231 LINE SMOOTH",
"400 268 OFFCURVE",
"416 294 OFFCURVE",
"456 294 CURVE SMOOTH",
"572 294 LINE SMOOTH",
"601 294 OFFCURVE",
"630 274 OFFCURVE",
"630 234 CURVE SMOOTH",
"630 52 LINE SMOOTH",
"630 17 OFFCURVE",
"648 0 OFFCURVE",
"678 0 CURVE SMOOTH",
"855 0 LINE SMOOTH",
"885 0 OFFCURVE",
"900 17 OFFCURVE",
"900 52 CURVE SMOOTH",
"900 392 LINE SMOOTH",
"900 526 OFFCURVE",
"865 564 OFFCURVE",
"735 564 CURVE SMOOTH",
"649 564 LINE SMOOTH",
"623 564 OFFCURVE",
"606 572 OFFCURVE",
"638 612 CURVE SMOOTH"
);
}
);
width = 1000;
},
{
background = {
paths = (
{
closed = 1;
nodes = (
"444 700 LINE",
"111 700 LINE",
"111 600 LINE",
"444 600 LINE"
);
},
{
closed = 1;
nodes = (
"444 660 LINE",
"333 660 LINE",
"333 0 LINE",
"444 0 LINE"
);
},
{
closed = 1;
nodes = (
"222 300 LINE",
"111 300 LINE",
"111 0 LINE",
"222 0 LINE"
);
},
{
closed = 1;
nodes = (
"666 400 LINE",
"400 400 LINE",
"400 300 LINE",
"666 300 LINE"
);
},
{
closed = 1;
nodes = (
"366 500 LINE",
"111 500 LINE",
"111 400 LINE",
"366 400 LINE"
);
},
{
closed = 1;
nodes = (
"888 100 LINE",
"622 100 LINE",
"622 0 LINE",
"888 0 LINE"
);
},
{
closed = 1;
nodes = (
"777 20 LINE",
"888 20 LINE",
"888 500 LINE",
"777 500 LINE"
);
},
{
closed = 1;
nodes = (
"888 700 LINE",
"555 700 LINE",
"555 600 LINE",
"888 600 LINE"
);
},
{
closed = 1;
nodes = (
"666 0 LINE",
"666 700 LINE",
"555 700 LINE",
"555 0 LINE"
);
}
);
};
layerId = "75A0A031-BEAD-45F4-8089-5B3FA8FFE7DC";
paths = (
{
closed = 1;
nodes = (
"160 0 LINE",
"190 0 LINE",
"190 1044 LINE",
"160 1044 LINE"
);
},
{
closed = 1;
nodes = (
"190 445 LINE",
"875 1061 LINE",
"853 1082 LINE",
"190 485 LINE"
);
},
{
closed = 1;
nodes = (
"275 560 LINE",
"856 0 LINE",
"902 0 LINE",
"321 561 LINE"
);
}
);
width = 1000;
}
);
unicode = 004B;
},
{
glyphname = L;
lastChange = "2020-11-26 21:58:58 +0000";
layers = (
{
anchors = (
{
name = bottom;
position = "{500, 0}";
},
{
name = center;
position = "{400, 476}";
},
{
name = top;
position = "{500, 1052}";
},
{
name = topright;
position = "{1000, 1042}";
}
);
layerId = "7B6A6B4E-EFCA-423F-B1F3-F70C1AFA501E";
paths = (
{
closed = 1;
nodes = (
"140 52 LINE",
"140 16 OFFCURVE",
"154 0 OFFCURVE",
"193 0 CURVE SMOOTH",
"857 0 LINE SMOOTH",
"886 0 OFFCURVE",
"900 17 OFFCURVE",
"900 52 CURVE SMOOTH",
"900 210 LINE SMOOTH",
"900 249 OFFCURVE",
"886 270 OFFCURVE",
"850 270 CURVE SMOOTH",
"529 270 LINE SMOOTH",
"484 270 OFFCURVE",
"470 286 OFFCURVE",
"470 330 CURVE SMOOTH",
"470 992 LINE",
"470 1027 OFFCURVE",
"456 1044 OFFCURVE",
"427 1044 CURVE SMOOTH",
"193 1044 LINE SMOOTH",
"154 1044 OFFCURVE",
"140 1028 OFFCURVE",
"140 992 CURVE"
);
}
);
width = 1000;
},
{
anchors = (
{
name = bottom;
position = "{500, 0}";
},
{
name = center;
position = "{400, 476}";
},
{
name = top;
position = "{500, 1052}";
},
{
name = topright;
position = "{1000, 1042}";
}
);
layerId = "75A0A031-BEAD-45F4-8089-5B3FA8FFE7DC";
paths = (
{
closed = 1;
nodes = (
"220 27 LINE",
"220 0 LINE",
"880 0 LINE",
"880 27 LINE"
);
},
{
closed = 1;
nodes = (
"230 1044 LINE",
"200 1044 LINE",
"200 0 LINE",
"230 0 LINE"
);
}
);
width = 1000;
}
);
unicode = 004C;
},
{
glyphname = M;
lastChange = "2020-04-19 03:21:22 +0000";
layers = (
{
layerId = "7B6A6B4E-EFCA-423F-B1F3-F70C1AFA501E";
paths = (
{
closed = 1;
nodes = (
"192 0 LINE",
"229 872 LINE SMOOTH",
"231 911 OFFCURVE",
"269 912 OFFCURVE",
"281 874 CURVE SMOOTH",
"429 391 LINE SMOOTH",
"456 301 OFFCURVE",
"526 306 OFFCURVE",
"553 384 CURVE SMOOTH",
"720 874 LINE SMOOTH",
"732 910 OFFCURVE",
"775 913 OFFCURVE",
"776 872 CURVE SMOOTH",
"800 0 LINE",
"940 0 LINE",
"904 938 LINE SMOOTH",
"897 1128 OFFCURVE",
"672 1136 OFFCURVE",
"613 955 CURVE SMOOTH",
"509 633 LINE SMOOTH",
"501 607 OFFCURVE",
"494 609 OFFCURVE",
"487 633 CURVE SMOOTH",
"391 952 LINE SMOOTH",
"334 1141 OFFCURVE",
"103 1121 OFFCURVE",
"96 938 CURVE SMOOTH",
"60 0 LINE"
);
}
);
width = 1000;
},
{
layerId = "75A0A031-BEAD-45F4-8089-5B3FA8FFE7DC";
paths = (
{
closed = 1;
nodes = (
"130 0 LINE",
"156 932 LINE SMOOTH",
"160 1090 OFFCURVE",
"335 1082 OFFCURVE",
"355 926 CURVE SMOOTH",
"419 421 LINE SMOOTH",
"431 328 OFFCURVE",
"550 332 OFFCURVE",
"563 414 CURVE SMOOTH",
"645 929 LINE SMOOTH",
"668 1072 OFFCURVE",
"836 1100 OFFCURVE",
"841 932 CURVE SMOOTH",
"867 0 LINE",
"900 0 LINE",
"874 938 LINE SMOOTH",
"869 1128 OFFCURVE",
"647 1128 OFFCURVE",
"617 939 CURVE SMOOTH",
"533 414 LINE SMOOTH",
"527 376 OFFCURVE",
"455 370 OFFCURVE",
"449 421 CURVE SMOOTH",
"384 933 LINE SMOOTH",
"359 1130 OFFCURVE",
"131 1121 OFFCURVE",
"126 938 CURVE SMOOTH",
"100 0 LINE"
);
}
);
width = 1000;
}
);
unicode = 004D;
},
{
glyphname = N;
lastChange = "2023-05-20 09:13:15 +0000";
layers = (
{
anchors = (
{
name = bottom;
position = "{500, 0}";
},
{
name = top;
position = "{500, 1052}";
}
);
background = {
paths = (
{
closed = 1;
nodes = (
"310 870 LINE SMOOTH",
"310 915 OFFCURVE",
"410 915 OFFCURVE",
"410 870 CURVE SMOOTH",
"410 107 LINE SMOOTH",
"410 -80 OFFCURVE",
"900 -68 OFFCURVE",
"900 110 CURVE SMOOTH",
"900 992 LINE SMOOTH",
"900 1027 OFFCURVE",
"885 1044 OFFCURVE",
"855 1044 CURVE SMOOTH",
"738 1044 LINE SMOOTH",
"707 1044 OFFCURVE",
"690 1027 OFFCURVE",
"690 992 CURVE SMOOTH",
"690 174 LINE SMOOTH",
"690 129 OFFCURVE",
"590 129 OFFCURVE",
"590 174 CURVE SMOOTH",
"590 937 LINE SMOOTH",
"590 1126 OFFCURVE",
"100 1112 OFFCURVE",
"100 934 CURVE SMOOTH",
"100 52 LINE SMOOTH",
"100 17 OFFCURVE",
"115 0 OFFCURVE",
"145 0 CURVE SMOOTH",
"262 0 LINE SMOOTH",
"293 0 OFFCURVE",
"310 17 OFFCURVE",
"310 52 CURVE SMOOTH"
);
}
);
};
layerId = "7B6A6B4E-EFCA-423F-B1F3-F70C1AFA501E";
paths = (
{
closed = 1;
nodes = (
"95 1044 LINE",
"474 1044 LINE",
"576 476 LINE SMOOTH",
"586 422 OFFCURVE",
"637 385 OFFCURVE",
"691 396 CURVE SMOOTH",
"745 404 OFFCURVE",
"783 456 OFFCURVE",
"773 510 CURVE SMOOTH",
"677 1044 LINE",
"905 1044 LINE",
"905 0 LINE",
"544 0 LINE",
"455 509 LINE SMOOTH",
"445 566 OFFCURVE",
"393 599 OFFCURVE",
"338 590 CURVE SMOOTH",
"284 581 OFFCURVE",
"247 529 OFFCURVE",
"257 475 CURVE SMOOTH",
"341 0 LINE",
"95 0 LINE"
);
},
{
closed = 0;
nodes = (
"95 1044 LINE"
);
}
);
width = 1000;
},
{
anchors = (
{
name = bottom;
position = "{500, 0}";
},
{
name = top;
position = "{500, 1052}";
}
);
background = {
paths = (
{
closed = 1;
nodes = (
"192 0 LINE",
"493 896 LINE",
"495 896 LINE",
"808 0 LINE",
"960 0 LINE",
"592 1044 LINE",
"399 1044 LINE",
"40 0 LINE"
);
},
{
closed = 1;
nodes = (
"190 164 LINE",
"840 164 LINE",
"840 304 LINE",
"190 304 LINE"
);
}
);
};
layerId = "75A0A031-BEAD-45F4-8089-5B3FA8FFE7DC";
paths = (
{
closed = 1;
nodes = (
"674 53 LINE SMOOTH",
"723 -67 OFFCURVE",
"860 -28 OFFCURVE",
"860 66 CURVE SMOOTH",
"860 1044 LINE",
"830 1044 LINE",
"830 66 LINE SMOOTH",
"830 -4 OFFCURVE",
"734 -22 OFFCURVE",
"700 63 CURVE SMOOTH",
"326 991 LINE SMOOTH",
"277 1113 OFFCURVE",
"140 1072 OFFCURVE",
"140 983 CURVE SMOOTH",
"140 0 LINE",
"170 0 LINE",
"170 983 LINE SMOOTH",
"170 1049 OFFCURVE",
"269 1058 OFFCURVE",
"296 991 CURVE SMOOTH"
);
}
);
width = 1000;
}
);
unicode = 004E;
},
{
glyphname = Eng;
lastChange = "2020-04-20 21:15:16 +0000";
layers = (
{
layerId = "7B6A6B4E-EFCA-423F-B1F3-F70C1AFA501E";
paths = (
{
closed = 1;
nodes = (
"670 -173 LINE",
"785 -123 LINE",
"424 937 LINE SMOOTH",
"363 1116 OFFCURVE",
"140 1112 OFFCURVE",
"140 864 CURVE SMOOTH",
"140 0 LINE",
"270 0 LINE",
"270 870 LINE SMOOTH",
"270 905 OFFCURVE",
"293 938 OFFCURVE",
"316 870 CURVE SMOOTH"
);
},
{
closed = 1;
nodes = (
"720 1044 LINE",
"720 43 LINE SMOOTH",
"720 -149 OFFCURVE",
"720 -173 OFFCURVE",
"300 -173 CURVE",
"300 -318 LINE",
"726 -318 OFFCURVE",
"860 -246 OFFCURVE",
"860 63 CURVE SMOOTH",
"860 1044 LINE"
);
}
);
width = 1000;
},
{
layerId = "75A0A031-BEAD-45F4-8089-5B3FA8FFE7DC";
paths = (
{
closed = 1;
nodes = (
"784 -220 LINE",
"810 -210 LINE",
"326 991 LINE SMOOTH",
"277 1112 OFFCURVE",
"140 1072 OFFCURVE",
"140 983 CURVE SMOOTH",
"140 0 LINE",
"170 0 LINE",
"170 983 LINE SMOOTH",
"170 1049 OFFCURVE",
"269 1057 OFFCURVE",
"296 991 CURVE SMOOTH"
);
},
{
closed = 1;
nodes = (
"830 1044 LINE",
"830 93 LINE SMOOTH",
"830 -269 OFFCURVE",
"760 -291 OFFCURVE",
"300 -291 CURVE",
"300 -318 LINE",
"776 -318 OFFCURVE",
"860 -296 OFFCURVE",
"860 93 CURVE SMOOTH",
"860 1044 LINE"
);
}
);
width = 1000;
}
);
unicode = 014A;
},
{
glyphname = O;
lastChange = "2020-11-22 08:49:05 +0000";
layers = (
{
anchors = (
{
name = bottom;
position = "{500, 0}";
},
{
name = center;
position = "{500, 527}";
},
{
name = ogonek;
position = "{900, 10}";
},
{
name = top;
position = "{500, 1052}";
},
{
name = topleft;
position = "{20, 1152}";
},
{
name = topright;
position = "{980, 1152}";
}
);
layerId = "7B6A6B4E-EFCA-423F-B1F3-F70C1AFA501E";
paths = (
{
closed = 1;
nodes = (
"630 724 OFFCURVE",
"601 744 OFFCURVE",
"572 744 CURVE SMOOTH",
"428 744 LINE SMOOTH",
"399 744 OFFCURVE",
"370 724 OFFCURVE",
"370 684 CURVE SMOOTH",
"370 360 LINE SMOOTH",
"370 320 OFFCURVE",
"399 300 OFFCURVE",
"428 300 CURVE SMOOTH",
"572 300 LINE SMOOTH",
"601 300 OFFCURVE",
"630 320 OFFCURVE",
"630 360 CURVE SMOOTH",
"630 684 LINE SMOOTH"
);
},
{
closed = 1;
nodes = (
"265 0 LINE SMOOTH",
"135 0 OFFCURVE",
"100 38 OFFCURVE",
"100 172 CURVE SMOOTH",
"100 872 LINE SMOOTH",
"100 1006 OFFCURVE",
"135 1044 OFFCURVE",
"265 1044 CURVE SMOOTH",
"735 1044 LINE SMOOTH",
"865 1044 OFFCURVE",
"900 1006 OFFCURVE",
"900 872 CURVE SMOOTH",
"900 172 LINE SMOOTH",
"900 38 OFFCURVE",
"865 0 OFFCURVE",
"735 0 CURVE SMOOTH"
);
}
);
width = 1000;
},
{
anchors = (
{
name = bottom;
position = "{500, 0}";
},
{
name = center;
position = "{500, 576}";
},
{
name = ogonek;
position = "{900, 10}";
},
{
name = top;
position = "{500, 1052}";
},
{
name = topleft;
position = "{20, 1152}";
},
{
name = topright;
position = "{980, 1152}";
}
);
layerId = "75A0A031-BEAD-45F4-8089-5B3FA8FFE7DC";
paths = (
{
closed = 1;
nodes = (
"231 1074 OFFCURVE",
"80 870 OFFCURVE",
"80 587 CURVE SMOOTH",
"80 467 LINE SMOOTH",
"80 213 OFFCURVE",
"231 -20 OFFCURVE",
"500 -20 CURVE SMOOTH",
"779 -20 OFFCURVE",
"920 213 OFFCURVE",
"920 467 CURVE SMOOTH",
"920 587 LINE SMOOTH",
"920 870 OFFCURVE",
"779 1074 OFFCURVE",
"500 1074 CURVE SMOOTH"
);
},
{
closed = 1;
nodes = (
"754 1047 OFFCURVE",
"890 855 OFFCURVE",
"890 585 CURVE SMOOTH",
"890 469 LINE SMOOTH",
"890 229 OFFCURVE",
"754 7 OFFCURVE",
"500 7 CURVE SMOOTH",
"246 7 OFFCURVE",
"110 229 OFFCURVE",
"110 469 CURVE SMOOTH",
"110 585 LINE SMOOTH",
"110 855 OFFCURVE",
"246 1047 OFFCURVE",
"500 1047 CURVE SMOOTH"
);
}
);
width = 1000;
}
);
unicode = 004F;
},
{
glyphname = OE;
lastChange = "2020-04-20 21:30:30 +0000";
layers = (
{
layerId = "7B6A6B4E-EFCA-423F-B1F3-F70C1AFA501E";
paths = (
{
closed = 1;
nodes = (
"980 0 LINE",
"980 135 LINE",
"650 135 LINE",
"650 435 LINE",
"940 435 LINE",
"940 565 LINE",
"650 565 LINE",
"650 909 LINE",
"940 909 LINE",
"940 1044 LINE",
"510 1044 LINE",
"510 0 LINE"
);
},
{
closed = 1;
nodes = (
"211 1044 OFFCURVE",
"60 873 OFFCURVE",
"60 590 CURVE SMOOTH",
"60 470 LINE SMOOTH",
"60 216 OFFCURVE",
"211 0 OFFCURVE",
"480 0 CURVE SMOOTH",
"588 0 LINE",
"588 139 LINE",
"480 135 LINE SMOOTH",
"306 129 OFFCURVE",
"200 272 OFFCURVE",
"200 472 CURVE SMOOTH",
"200 588 LINE SMOOTH",
"200 788 OFFCURVE",
"306 909 OFFCURVE",
"480 909 CURVE SMOOTH",
"583 909 LINE",
"583 1044 LINE",
"480 1044 LINE SMOOTH"
);
}
);
width = 1000;
},
{
layerId = "75A0A031-BEAD-45F4-8089-5B3FA8FFE7DC";
paths = (
{
closed = 1;
nodes = (
"980 0 LINE",
"980 27 LINE",
"560 27 LINE",
"560 487 LINE",
"940 487 LINE",
"940 514 LINE",
"560 514 LINE",
"560 1017 LINE",
"940 1017 LINE",
"940 1044 LINE",
"530 1044 LINE",
"530 0 LINE"
);
},
{
closed = 1;
nodes = (
"211 1044 OFFCURVE",
"60 873 OFFCURVE",
"60 590 CURVE SMOOTH",
"60 470 LINE SMOOTH",
"60 216 OFFCURVE",
"211 0 OFFCURVE",
"480 0 CURVE SMOOTH",
"548 0 LINE",
"548 24 LINE",
"480 25 LINE SMOOTH",
"226 29 OFFCURVE",
"90 242 OFFCURVE",
"90 472 CURVE SMOOTH",
"90 588 LINE SMOOTH",
"90 848 OFFCURVE",
"226 1019 OFFCURVE",
"480 1019 CURVE SMOOTH",
"543 1019 LINE",
"543 1044 LINE",
"480 1044 LINE SMOOTH"
);
}
);
width = 1000;
}
);
unicode = 0152;
},
{
glyphname = P;
lastChange = "2020-11-26 22:11:33 +0000";
layers = (
{
background = {
paths = (
{
closed = 1;
nodes = (
"880 436 LINE",
"880 991 LINE",
"795 1044 LINE",
"150 1044 LINE",
"150 926 LINE",
"684 926 LINE",
"745 878 LINE",
"745 528 LINE",
"609 509 LINE",
"284 509 LINE",
"284 988 LINE",
"150 988 LINE",
"150 0 LINE",
"284 0 LINE",
"284 391 LINE",
"622 391 LINE"
);
}
);
};
layerId = "7B6A6B4E-EFCA-423F-B1F3-F70C1AFA501E";
paths = (
{
closed = 1;
nodes = (
"153 1044 LINE SMOOTH",
"114 1044 OFFCURVE",
"100 1028 OFFCURVE",
"100 992 CURVE SMOOTH",
"100 52 LINE SMOOTH",
"100 16 OFFCURVE",
"114 0 OFFCURVE",
"153 0 CURVE SMOOTH",
"347 0 LINE SMOOTH",
"386 0 OFFCURVE",
"400 16 OFFCURVE",
"400 52 CURVE SMOOTH",
"400 204 LINE SMOOTH",
"400 244 OFFCURVE",
"429 264 OFFCURVE",
"458 264 CURVE SMOOTH",
"735 264 LINE SMOOTH",
"865 264 OFFCURVE",
"900 302 OFFCURVE",
"900 436 CURVE SMOOTH",
"900 872 LINE SMOOTH",
"900 1006 OFFCURVE",
"865 1044 OFFCURVE",
"735 1044 CURVE SMOOTH"
);
},
{
closed = 1;
nodes = (
"430 534 OFFCURVE",
"400 553 OFFCURVE",
"400 595 CURVE SMOOTH",
"400 713 LINE SMOOTH",
"400 755 OFFCURVE",
"430 774 OFFCURVE",
"460 774 CURVE SMOOTH",
"570 774 LINE SMOOTH",
"600 774 OFFCURVE",
"630 755 OFFCURVE",
"630 713 CURVE SMOOTH",
"630 595 LINE SMOOTH",
"630 553 OFFCURVE",
"600 534 OFFCURVE",
"570 534 CURVE SMOOTH",
"460 534 LINE SMOOTH"
);
}
);
width = 1000;
},
{
background = {
paths = (
{
closed = 1;
nodes = (
"880 436 LINE",
"880 991 LINE",
"795 1044 LINE",
"150 1044 LINE",
"150 926 LINE",
"684 926 LINE",
"745 878 LINE",
"745 528 LINE",
"609 509 LINE",
"284 509 LINE",
"284 988 LINE",
"150 988 LINE",
"150 0 LINE",
"284 0 LINE",
"284 391 LINE",
"622 391 LINE"
);
}
);
};
layerId = "75A0A031-BEAD-45F4-8089-5B3FA8FFE7DC";
paths = (
{
closed = 1;
nodes = (
"160 361 LINE",
"498 361 LINE SMOOTH",
"755 361 OFFCURVE",
"920 483 OFFCURVE",
"920 718 CURVE SMOOTH",
"920 961 OFFCURVE",
"750 1044 OFFCURVE",
"501 1044 CURVE SMOOTH",
"160 1044 LINE",
"160 0 LINE",
"190 0 LINE",
"190 1042 LINE",
"160 1017 LINE",
"497 1017 LINE SMOOTH",
"737 1017 OFFCURVE",
"887 934 OFFCURVE",
"887 718 CURVE SMOOTH",
"887 502 OFFCURVE",
"737 388 OFFCURVE",
"502 388 CURVE SMOOTH",
"160 388 LINE"
);
}
);
width = 1000;
}
);
unicode = 0050;
},
{
glyphname = Thorn;
lastChange = "2020-04-20 21:00:56 +0000";
layers = (
{
layerId = "7B6A6B4E-EFCA-423F-B1F3-F70C1AFA501E";
paths = (
{
closed = 1;
nodes = (
"160 191 LINE",
"498 191 LINE SMOOTH",
"755 191 OFFCURVE",
"920 329 OFFCURVE",
"920 548 CURVE SMOOTH",
"920 791 OFFCURVE",
"750 874 OFFCURVE",
"501 874 CURVE SMOOTH",
"160 874 LINE",
"160 739 LINE",
"497 739 LINE SMOOTH",
"680 739 OFFCURVE",
"775 687 OFFCURVE",
"775 546 CURVE SMOOTH",
"775 409 OFFCURVE",
"679 326 OFFCURVE",
"502 326 CURVE SMOOTH",
"160 326 LINE"
);
},
{
closed = 1;
nodes = (
"160 0 LINE",
"294 0 LINE",
"294 1044 LINE",
"160 1044 LINE"
);
}
);
width = 1000;
},
{
layerId = "75A0A031-BEAD-45F4-8089-5B3FA8FFE7DC";
paths = (
{
closed = 1;
nodes = (
"160 191 LINE",
"498 191 LINE SMOOTH",
"755 191 OFFCURVE",
"920 313 OFFCURVE",
"920 548 CURVE SMOOTH",
"920 791 OFFCURVE",
"750 874 OFFCURVE",
"501 874 CURVE SMOOTH",
"160 874 LINE",
"160 847 LINE",
"497 847 LINE SMOOTH",
"737 847 OFFCURVE",
"887 764 OFFCURVE",
"887 548 CURVE SMOOTH",
"887 332 OFFCURVE",
"737 218 OFFCURVE",
"502 218 CURVE SMOOTH",
"160 218 LINE"
);
},
{
closed = 1;
nodes = (
"160 0 LINE",
"190 0 LINE",
"190 1044 LINE",
"160 1044 LINE"
);
}
);
width = 1000;
}
);
unicode = 00DE;
},
{
glyphname = Q;
lastChange = "2020-11-26 21:59:43 +0000";
layers = (
{
components = (
{
name = O;
}
);
layerId = "7B6A6B4E-EFCA-423F-B1F3-F70C1AFA501E";
paths = (
{
closed = 1;
nodes = (
"903 -229 LINE",
"1006 -128 LINE",
"706 172 LINE",
"603 71 LINE"
);
}
);
width = 1000;
},
{
components = (
{
name = O;
}
);
layerId = "75A0A031-BEAD-45F4-8089-5B3FA8FFE7DC";
paths = (
{
closed = 1;
nodes = (
"923 -209 LINE",
"946 -188 LINE",
"706 52 LINE",
"683 31 LINE"
);
}
);
width = 1000;
}
);
unicode = 0051;
},
{
glyphname = R;
lastChange = "2020-11-26 22:08:58 +0000";
layers = (
{
anchors = (
{
name = bottom;
position = "{500, 0}";
},
{
name = top;
position = "{500, 1052}";
}
);
layerId = "7B6A6B4E-EFCA-423F-B1F3-F70C1AFA501E";
paths = (
{
closed = 1;
nodes = (
"145 1044 LINE",
"115 1044 OFFCURVE",
"100 1027 OFFCURVE",
"100 992 CURVE SMOOTH",
"100 52 LINE SMOOTH",
"100 17 OFFCURVE",
"115 0 OFFCURVE",
"145 0 CURVE SMOOTH",
"322 0 LINE SMOOTH",
"353 0 OFFCURVE",
"370 17 OFFCURVE",
"370 52 CURVE SMOOTH",
"370 225 LINE SMOOTH",
"370 254 OFFCURVE",
"374 260 OFFCURVE",
"410 230 CURVE SMOOTH",
"620 55 LINE SMOOTH",
"650 30 OFFCURVE",
"674 0 OFFCURVE",
"716 0 CURVE SMOOTH",
"896 0 LINE SMOOTH",
"925 0 OFFCURVE",
"950 17 OFFCURVE",
"950 52 CURVE SMOOTH",
"950 214 LINE SMOOTH",
"950 249 OFFCURVE",
"935 270 OFFCURVE",
"896 270 CURVE SMOOTH",
"817 270 LINE SMOOTH",
"755 270 OFFCURVE",
"728 282 OFFCURVE",
"691 305 CURVE SMOOTH",
"607 356 LINE SMOOTH",
"584 370 OFFCURVE",
"573 400 OFFCURVE",
"609 400 CURVE SMOOTH",
"735 400 LINE SMOOTH",
"865 400 OFFCURVE",
"900 438 OFFCURVE",
"900 572 CURVE SMOOTH",
"900 872 LINE SMOOTH",
"900 1006 OFFCURVE",
"865 1044 OFFCURVE",
"735 1044 CURVE SMOOTH"
);
},
{
closed = 1;
nodes = (
"630 599 OFFCURVE",
"600 580 OFFCURVE",
"570 580 CURVE SMOOTH",
"420 580 LINE SMOOTH",
"390 580 OFFCURVE",
"360 599 OFFCURVE",
"360 641 CURVE SMOOTH",
"360 743 LINE",
"360 785 OFFCURVE",
"390 804 OFFCURVE",
"420 804 CURVE SMOOTH",
"570 804 LINE SMOOTH",
"600 804 OFFCURVE",
"630 785 OFFCURVE",
"630 743 CURVE SMOOTH",
"630 641 LINE SMOOTH"
);
}
);
width = 1000;
},
{
anchors = (
{
name = bottom;
position = "{500, 0}";
},
{
name = top;
position = "{500, 1052}";
}
);
layerId = "75A0A031-BEAD-45F4-8089-5B3FA8FFE7DC";
paths = (
{
closed = 1;
nodes = (
"160 381 LINE",
"407 381 LINE SMOOTH",
"735 381 OFFCURVE",
"900 512 OFFCURVE",
"900 738 CURVE SMOOTH",
"900 966 OFFCURVE",
"730 1044 OFFCURVE",
"481 1044 CURVE SMOOTH",
"160 1044 LINE",
"160 0 LINE",
"190 0 LINE",
"190 1044 LINE",
"160 1017 LINE",
"477 1017 LINE SMOOTH",
"714 1017 OFFCURVE",
"870 948 OFFCURVE",
"870 738 CURVE SMOOTH",
"870 533 OFFCURVE",
"719 408 OFFCURVE",
"402 408 CURVE SMOOTH",
"160 408 LINE"
);
},
{
closed = 1;
nodes = (
"510 392 LINE",
"917 0 LINE",
"960 0 LINE",
"553 393 LINE"
);
}
);
width = 1000;
}
);
unicode = 0052;
},
{
glyphname = S;
lastChange = "2020-11-26 21:47:42 +0000";
layers = (
{
anchors = (
{
name = bottom;
position = "{500, 0}";
},
{
name = top;
position = "{500, 1052}";
}
);
background = {
paths = (
{
closed = 1;
nodes = (
"661 463 OFFCURVE",
"680 463 OFFCURVE",
"680 428 CURVE SMOOTH",
"680 173 LINE SMOOTH",
"680 134 OFFCURVE",
"700 120 OFFCURVE",
"735 120 CURVE SMOOTH",
"898 120 LINE SMOOTH",
"933 120 OFFCURVE",
"950 134 OFFCURVE",
"950 173 CURVE SMOOTH",
"950 509 LINE SMOOTH",
"950 554 OFFCURVE",
"943 579 OFFCURVE",
"925 592 CURVE SMOOTH",
"745 722 LINE SMOOTH",
"716 743 OFFCURVE",
"698 758 OFFCURVE",
"643 731 CURVE SMOOTH",
"372 601 LINE SMOOTH",
"338 585 OFFCURVE",
"320 585 OFFCURVE",
"320 620 CURVE SMOOTH",
"320 861 LINE SMOOTH",
"320 900 OFFCURVE",
"300 914 OFFCURVE",
"265 914 CURVE SMOOTH",
"102 914 LINE SMOOTH",
"67 914 OFFCURVE",
"50 900 OFFCURVE",
"50 861 CURVE SMOOTH",
"50 531 LINE SMOOTH",
"50 506 OFFCURVE",
"58 483 OFFCURVE",
"75 468 CURVE SMOOTH",
"255 318 LINE SMOOTH",
"282 295 OFFCURVE",
"298 287 OFFCURVE",
"360 317 CURVE SMOOTH",
"628 447 LINE SMOOTH"
);
},
{
closed = 1;
nodes = (
"100 1044 LINE SMOOTH",
"64 1044 OFFCURVE",
"50 1023 OFFCURVE",
"50 964 CURVE SMOOTH",
"50 856 LINE SMOOTH",
"50 821 OFFCURVE",
"64 804 OFFCURVE",
"93 804 CURVE",
"600 804 LINE",
"636 804 OFFCURVE",
"650 825 OFFCURVE",
"650 864 CURVE SMOOTH",
"650 992 LINE SMOOTH",
"650 1027 OFFCURVE",
"636 1044 OFFCURVE",
"607 1044 CURVE SMOOTH",
"123 1044 LINE"
);
},
{
closed = 1;
nodes = (
"400 240 LINE",
"364 240 OFFCURVE",
"350 219 OFFCURVE",
"350 180 CURVE SMOOTH",
"350 52 LINE SMOOTH",
"350 17 OFFCURVE",
"364 0 OFFCURVE",
"393 0 CURVE SMOOTH",
"900 0 LINE SMOOTH",
"936 0 OFFCURVE",
"950 21 OFFCURVE",
"950 80 CURVE SMOOTH",
"950 188 LINE SMOOTH",
"950 223 OFFCURVE",
"936 240 OFFCURVE",
"907 240 CURVE"
);
}
);
};
layerId = "7B6A6B4E-EFCA-423F-B1F3-F70C1AFA501E";
paths = (
{
closed = 1;
nodes = (
"100 413 OFFCURVE",
"123 390 OFFCURVE",
"167 390 CURVE SMOOTH",
"530 390 LINE SMOOTH",
"575 390 OFFCURVE",
"589 375 OFFCURVE",
"589 330 CURVE SMOOTH",
"589 286 OFFCURVE",
"575 270 OFFCURVE",
"530 270 CURVE SMOOTH",
"150 270 LINE SMOOTH",
"114 270 OFFCURVE",
"100 249 OFFCURVE",
"100 190 CURVE SMOOTH",
"100 52 LINE SMOOTH",
"100 17 OFFCURVE",
"114 0 OFFCURVE",
"143 0 CURVE SMOOTH",
"847 0 LINE SMOOTH",
"886 0 OFFCURVE",
"900 16 OFFCURVE",
"900 52 CURVE",
"900 585 LINE",
"900 631 OFFCURVE",
"877 654 OFFCURVE",
"833 654 CURVE SMOOTH",
"470 654 LINE SMOOTH",
"425 654 OFFCURVE",
"411 669 OFFCURVE",
"411 714 CURVE SMOOTH",
"411 758 OFFCURVE",
"425 774 OFFCURVE",
"470 774 CURVE SMOOTH",
"850 774 LINE SMOOTH",
"886 774 OFFCURVE",
"900 795 OFFCURVE",
"900 854 CURVE SMOOTH",
"900 992 LINE SMOOTH",
"900 1027 OFFCURVE",
"886 1044 OFFCURVE",
"857 1044 CURVE SMOOTH",
"153 1044 LINE SMOOTH",
"114 1044 OFFCURVE",
"100 1028 OFFCURVE",
"100 992 CURVE SMOOTH",
"100 459 LINE"
);
}
);
width = 1000;
},
{
anchors = (
{
name = bottom;
position = "{500, 0}";
},
{
name = top;
position = "{500, 1052}";
}
);
layerId = "75A0A031-BEAD-45F4-8089-5B3FA8FFE7DC";
paths = (
{
closed = 1;
nodes = (
"880 718 OFFCURVE",
"178 389 OFFCURVE",
"178 775 CURVE SMOOTH",
"178 918 OFFCURVE",
"262 1038 OFFCURVE",
"490 1038 CURVE SMOOTH",
"592 1038 OFFCURVE",
"739 1013 OFFCURVE",
"817 941 CURVE",
"837 961 LINE",
"758 1037 OFFCURVE",
"602 1065 OFFCURVE",
"490 1065 CURVE SMOOTH",
"247 1065 OFFCURVE",
"145 934 OFFCURVE",
"145 775 CURVE SMOOTH",
"145 350 OFFCURVE",
"847 681 OFFCURVE",
"847 282 CURVE SMOOTH",
"847 73 OFFCURVE",
"677 7 OFFCURVE",
"494 7 CURVE SMOOTH",
"385 7 OFFCURVE",
"234 30 OFFCURVE",
"130 144 CURVE",
"110 124 LINE",
"214 6 OFFCURVE",
"376 -20 OFFCURVE",
"494 -20 CURVE SMOOTH",
"696 -20 OFFCURVE",
"880 58 OFFCURVE",
"880 282 CURVE SMOOTH"
);
}
);
width = 1000;
}
);
unicode = 0053;
},
{
glyphname = Germandbls;
lastChange = "2020-04-22 03:40:37 +0000";
layers = (
{
background = {
paths = (
{
closed = 1;
nodes = (
"-48 40 LINE",
"-48 0 LINE",
"178 0 LINE",
"178 40 LINE"
);
},
{
closed = 1;
nodes = (
"433 688 OFFCURVE",
"343 720 OFFCURVE",
"256 720 CURVE SMOOTH",
"141 720 OFFCURVE",
"30 663 OFFCURVE",
"30 486 CURVE SMOOTH",
"30 24 LINE",
"110 24 LINE",
"110 492 LINE SMOOTH",
"110 603 OFFCURVE",
"119 676 OFFCURVE",
"237 676 CURVE SMOOTH",
"331 676 OFFCURVE",
"352 630 OFFCURVE",
"352 585 CURVE SMOOTH",
"352 555 OFFCURVE",
"343 526 OFFCURVE",
"295 506 CURVE SMOOTH",
"218 474 OFFCURVE",
"185 431 OFFCURVE",
"185 372 CURVE SMOOTH",
"185 304 OFFCURVE",
"229 250 OFFCURVE",
"322 195 CURVE SMOOTH",
"393 153 OFFCURVE",
"419 125 OFFCURVE",
"419 92 CURVE SMOOTH",
"419 56 OFFCURVE",
"388 31 OFFCURVE",
"354 21 CURVE",
"240 63 LINE",
"215 10 LINE",
"256 -4 OFFCURVE",
"298 -14 OFFCURVE",
"342 -14 CURVE SMOOTH",
"433 -14 OFFCURVE",
"495 30 OFFCURVE",
"495 109 CURVE SMOOTH",
"495 174 OFFCURVE",
"453 210 OFFCURVE",
"366 263 CURVE SMOOTH",
"297 305 OFFCURVE",
"258 335 OFFCURVE",
"258 386 CURVE SMOOTH",
"258 418 OFFCURVE",
"273 450 OFFCURVE",
"321 470 CURVE SMOOTH",
"398 502 OFFCURVE",
"433 525 OFFCURVE",
"433 587 CURVE SMOOTH"
);
}
);
};
layerId = "7B6A6B4E-EFCA-423F-B1F3-F70C1AFA501E";
paths = (
{
closed = 1;
nodes = (
"270 0 LINE",
"270 909 LINE",
"582 909 LINE SMOOTH",
"663 909 OFFCURVE",
"670 885 OFFCURVE",
"627 831 CURVE SMOOTH",
"524 701 LINE SMOOTH",
"487 654 OFFCURVE",
"477 638 OFFCURVE",
"529 617 CURVE SMOOTH",
"720 540 OFFCURVE",
"808 479 OFFCURVE",
"808 332 CURVE SMOOTH",
"808 167 OFFCURVE",
"704 125 OFFCURVE",
"584 125 CURVE SMOOTH",
"488 125 OFFCURVE",
"424 152 OFFCURVE",
"372 180 CURVE",
"372 35 LINE",
"416 13 OFFCURVE",
"484 -13 OFFCURVE",
"584 -13 CURVE SMOOTH",
"826 -13 OFFCURVE",
"950 133 OFFCURVE",
"950 332 CURVE SMOOTH",
"950 510 OFFCURVE",
"849 630 OFFCURVE",
"734 687 CURVE SMOOTH",
"702 703 OFFCURVE",
"698 708 OFFCURVE",
"718 734 CURVE SMOOTH",
"814 861 LINE SMOOTH",
"899 974 OFFCURVE",
"854 1044 OFFCURVE",
"726 1044 CURVE SMOOTH",
"130 1044 LINE",
"130 0 LINE"
);
}
);
width = 1000;
},
{
background = {
paths = (
{
closed = 1;
nodes = (
"-48 40 LINE",
"-48 0 LINE",
"178 0 LINE",
"178 40 LINE"
);
},
{
closed = 1;
nodes = (
"433 688 OFFCURVE",
"343 720 OFFCURVE",
"256 720 CURVE SMOOTH",
"141 720 OFFCURVE",
"30 663 OFFCURVE",
"30 486 CURVE SMOOTH",
"30 24 LINE",
"110 24 LINE",
"110 492 LINE SMOOTH",
"110 603 OFFCURVE",
"119 676 OFFCURVE",
"237 676 CURVE SMOOTH",
"331 676 OFFCURVE",
"352 630 OFFCURVE",
"352 585 CURVE SMOOTH",
"352 555 OFFCURVE",
"343 526 OFFCURVE",
"295 506 CURVE SMOOTH",
"218 474 OFFCURVE",
"185 431 OFFCURVE",
"185 372 CURVE SMOOTH",
"185 304 OFFCURVE",
"229 250 OFFCURVE",
"322 195 CURVE SMOOTH",
"393 153 OFFCURVE",
"419 125 OFFCURVE",
"419 92 CURVE SMOOTH",
"419 56 OFFCURVE",
"388 31 OFFCURVE",
"354 21 CURVE",
"240 63 LINE",
"215 10 LINE",
"256 -4 OFFCURVE",
"298 -14 OFFCURVE",
"342 -14 CURVE SMOOTH",
"433 -14 OFFCURVE",
"495 30 OFFCURVE",
"495 109 CURVE SMOOTH",
"495 174 OFFCURVE",
"453 210 OFFCURVE",
"366 263 CURVE SMOOTH",
"297 305 OFFCURVE",
"258 335 OFFCURVE",
"258 386 CURVE SMOOTH",
"258 418 OFFCURVE",
"273 450 OFFCURVE",
"321 470 CURVE SMOOTH",
"398 502 OFFCURVE",
"433 525 OFFCURVE",
"433 587 CURVE SMOOTH"
);
}
);
};
layerId = "75A0A031-BEAD-45F4-8089-5B3FA8FFE7DC";
paths = (
{
closed = 1;
nodes = (
"170 0 LINE",
"170 1016 LINE",
"721 1016 LINE SMOOTH",
"760 1016 OFFCURVE",
"777 1015 OFFCURVE",
"750 978 CURVE SMOOTH",
"501 630 LINE SMOOTH",
"469 585 OFFCURVE",
"483 587 OFFCURVE",
"519 587 CURVE SMOOTH",
"695 587 OFFCURVE",
"920 539 OFFCURVE",
"920 312 CURVE SMOOTH",
"920 147 OFFCURVE",
"804 14 OFFCURVE",
"584 14 CURVE SMOOTH",
"488 14 OFFCURVE",
"394 41 OFFCURVE",
"312 89 CURVE",
"312 55 LINE",
"390 13 OFFCURVE",
"480 -13 OFFCURVE",
"584 -13 CURVE SMOOTH",
"826 -13 OFFCURVE",
"950 131 OFFCURVE",
"950 312 CURVE SMOOTH",
"950 544 OFFCURVE",
"751 612 OFFCURVE",
"556 612 CURVE SMOOTH",
"527 612 OFFCURVE",
"520 610 OFFCURVE",
"541 640 CURVE SMOOTH",
"786 985 LINE SMOOTH",
"823 1038 OFFCURVE",
"794 1044 OFFCURVE",
"744 1044 CURVE SMOOTH",
"140 1044 LINE",
"140 0 LINE"
);
}
);
width = 1000;
}
);
unicode = 1E9E;
},
{
glyphname = T;
lastChange = "2020-11-22 08:47:52 +0000";
layers = (
{
anchors = (
{
name = bottom;
position = "{500, 0}";
},
{
name = center;
position = "{684, 676}";
},
{
name = top;
position = "{500, 1052}";
}
);
layerId = "7B6A6B4E-EFCA-423F-B1F3-F70C1AFA501E";
paths = (
{
closed = 1;
nodes = (
"113 1044 LINE SMOOTH",
"71 1044 OFFCURVE",
"50 1021 OFFCURVE",
"50 975 CURVE SMOOTH",
"50 843 LINE SMOOTH",
"50 797 OFFCURVE",
"71 774 OFFCURVE",
"113 774 CURVE SMOOTH",
"292 774 LINE SMOOTH",
"321 774 OFFCURVE",
"350 754 OFFCURVE",
"350 714 CURVE SMOOTH",
"350 52 LINE SMOOTH",
"350 16 OFFCURVE",
"364 0 OFFCURVE",
"403 0 CURVE SMOOTH",
"597 0 LINE SMOOTH",
"636 0 OFFCURVE",
"650 16 OFFCURVE",
"650 52 CURVE SMOOTH",
"650 714 LINE SMOOTH",
"650 754 OFFCURVE",
"679 774 OFFCURVE",
"708 774 CURVE SMOOTH",
"883 774 LINE SMOOTH",
"927 774 OFFCURVE",
"950 797 OFFCURVE",
"950 843 CURVE SMOOTH",
"950 975 LINE SMOOTH",
"950 1021 OFFCURVE",
"927 1044 OFFCURVE",
"883 1044 CURVE SMOOTH"
);
}
);
width = 1000;
},
{
anchors = (
{
name = bottom;
position = "{500, 0}";
},
{
name = center;
position = "{684, 676}";
},
{
name = top;
position = "{500, 1052}";
}
);
layerId = "75A0A031-BEAD-45F4-8089-5B3FA8FFE7DC";
paths = (
{
closed = 1;
nodes = (
"515 1044 LINE",
"485 1044 LINE",
"485 0 LINE",
"515 0 LINE"
);
},
{
closed = 1;
nodes = (
"50 1044 LINE",
"50 1017 LINE",
"950 1017 LINE",
"950 1044 LINE"
);
}
);
width = 1000;
}
);
unicode = 0054;
},
{
glyphname = Tbar;
lastChange = "2020-04-20 21:03:34 +0000";
layers = (
{
anchors = (
{
name = bottom;
position = "{500, 0}";
},
{
name = center;
position = "{684, 676}";
},
{
name = top;
position = "{500, 1052}";
}
);
layerId = "7B6A6B4E-EFCA-423F-B1F3-F70C1AFA501E";
paths = (
{
closed = 1;
nodes = (
"570 1044 LINE",
"430 1044 LINE",
"430 0 LINE",
"570 0 LINE"
);
},
{
closed = 1;
nodes = (
"50 1044 LINE",
"50 909 LINE",
"950 909 LINE",
"950 1044 LINE"
);
},
{
closed = 1;
nodes = (
"50 568 LINE",
"50 433 LINE",
"950 433 LINE",
"950 568 LINE"
);
}
);
width = 1000;
},
{
anchors = (
{
name = bottom;
position = "{500, 0}";
},
{
name = center;
position = "{684, 676}";
},
{
name = top;
position = "{500, 1052}";
}
);
layerId = "75A0A031-BEAD-45F4-8089-5B3FA8FFE7DC";
paths = (
{
closed = 1;
nodes = (
"515 1044 LINE",
"485 1044 LINE",
"485 0 LINE",
"515 0 LINE"
);
},
{
closed = 1;
nodes = (
"50 1044 LINE",
"50 1017 LINE",
"950 1017 LINE",
"950 1044 LINE"
);
},
{
closed = 1;
nodes = (
"50 514 LINE",
"50 487 LINE",
"950 487 LINE",
"950 514 LINE"
);
}
);
width = 1000;
}
);
unicode = 0166;
},
{
glyphname = U;
lastChange = "2020-11-22 08:56:29 +0000";
layers = (
{
anchors = (
{
name = bottom;
position = "{500, 0}";
},
{
name = ogonek;
position = "{900, 10}";
},
{
name = top;
position = "{500, 1052}";
},
{
name = topright;
position = "{980, 1152}";
}
);
layerId = "7B6A6B4E-EFCA-423F-B1F3-F70C1AFA501E";
paths = (
{
closed = 1;
nodes = (
"900 38 OFFCURVE",
"865 0 OFFCURVE",
"735 0 CURVE SMOOTH",
"265 0 LINE SMOOTH",
"135 0 OFFCURVE",
"100 38 OFFCURVE",
"100 172 CURVE SMOOTH",
"100 992 LINE SMOOTH",
"100 1027 OFFCURVE",
"115 1044 OFFCURVE",
"145 1044 CURVE SMOOTH",
"322 1044 LINE SMOOTH",
"353 1044 OFFCURVE",
"370 1027 OFFCURVE",
"370 992 CURVE SMOOTH",
"370 390 LINE SMOOTH",
"370 350 OFFCURVE",
"399 330 OFFCURVE",
"428 330 CURVE",
"572 330 LINE",
"601 330 OFFCURVE",
"630 350 OFFCURVE",
"630 390 CURVE SMOOTH",
"630 992 LINE SMOOTH",
"630 1027 OFFCURVE",
"648 1044 OFFCURVE",
"678 1044 CURVE SMOOTH",
"855 1044 LINE SMOOTH",
"885 1044 OFFCURVE",
"900 1027 OFFCURVE",
"900 992 CURVE SMOOTH",
"900 172 LINE SMOOTH"
);
}
);
width = 1000;
},
{
anchors = (
{
name = bottom;
position = "{500, 0}";
},
{
name = ogonek;
position = "{900, 10}";
},
{
name = top;
position = "{500, 1052}";
},
{
name = topright;
position = "{980, 1152}";
}
);
layerId = "75A0A031-BEAD-45F4-8089-5B3FA8FFE7DC";
paths = (
{
closed = 1;
nodes = (
"830 313 LINE SMOOTH",
"830 78 OFFCURVE",
"742 7 OFFCURVE",
"500 7 CURVE SMOOTH",
"252 7 OFFCURVE",
"170 78 OFFCURVE",
"170 313 CURVE SMOOTH",
"170 1044 LINE",
"140 1044 LINE",
"140 313 LINE SMOOTH",
"140 60 OFFCURVE",
"239 -20 OFFCURVE",
"500 -20 CURVE SMOOTH",
"757 -20 OFFCURVE",
"860 60 OFFCURVE",
"860 313 CURVE SMOOTH",
"860 1044 LINE",
"830 1044 LINE"
);
}
);
width = 1000;
}
);
unicode = 0055;
},
{
glyphname = V;
lastChange = "2020-04-18 09:26:20 +0000";
layers = (
{
background = {
paths = (
{
closed = 1;
nodes = (
"768 1044 LINE",
"726 766 LINE",
"610 115 LINE",
"423 118 LINE",
"282 800 LINE",
"244 1044 LINE",
"86 1044 LINE",
"145 774 LINE",
"308 0 LINE",
"710 0 LINE",
"864 772 LINE",
"915 1044 LINE"
);
}
);
};
layerId = "7B6A6B4E-EFCA-423F-B1F3-F70C1AFA501E";
paths = (
{
closed = 1;
nodes = (
"802 1044 LINE",
"543 148 LINE SMOOTH",
"531 105 OFFCURVE",
"482 105 OFFCURVE",
"469 148 CURVE SMOOTH",
"198 1044 LINE",
"40 1044 LINE",
"358 53 LINE SMOOTH",
"397 -70 OFFCURVE",
"612 -71 OFFCURVE",
"651 53 CURVE SMOOTH",
"960 1044 LINE"
);
}
);
width = 1000;
},
{
background = {
paths = (
{
closed = 1;
nodes = (
"768 1044 LINE",
"726 766 LINE",
"610 115 LINE",
"423 118 LINE",
"282 800 LINE",
"244 1044 LINE",
"86 1044 LINE",
"145 774 LINE",
"308 0 LINE",
"710 0 LINE",
"864 772 LINE",
"915 1044 LINE"
);
}
);
};
layerId = "75A0A031-BEAD-45F4-8089-5B3FA8FFE7DC";
paths = (
{
closed = 1;
nodes = (
"927 1044 LINE",
"629 89 LINE SMOOTH",
"592 -31 OFFCURVE",
"417 -31 OFFCURVE",
"378 89 CURVE SMOOTH",
"71 1044 LINE",
"39 1044 LINE",
"345 89 LINE SMOOTH",
"396 -70 OFFCURVE",
"611 -71 OFFCURVE",
"661 89 CURVE SMOOTH",
"959 1044 LINE"
);
}
);
width = 1000;
}
);
unicode = 0056;
},
{
glyphname = W;
lastChange = "2020-04-19 03:28:34 +0000";
layers = (
{
anchors = (
{
name = bottom;
position = "{500, 0}";
},
{
name = top;
position = "{500, 1052}";
}
);
background = {
paths = (
{
closed = 1;
nodes = (
"728 263 LINE",
"695 263 LINE",
"576 546 LINE",
"467 546 LINE",
"305 263 LINE",
"272 263 LINE",
"272 1044 LINE",
"138 1044 LINE",
"138 0 LINE",
"299 0 LINE",
"483 329 LINE",
"516 329 LINE",
"674 0 LINE",
"862 0 LINE",
"862 1044 LINE",
"728 1044 LINE"
);
}
);
};
layerId = "7B6A6B4E-EFCA-423F-B1F3-F70C1AFA501E";
paths = (
{
closed = 1;
nodes = (
"816 1044 LINE",
"749 155 LINE SMOOTH",
"745 106 OFFCURVE",
"684 106 OFFCURVE",
"679 153 CURVE SMOOTH",
"628 666 LINE SMOOTH",
"612 827 OFFCURVE",
"395 827 OFFCURVE",
"379 666 CURVE SMOOTH",
"329 153 LINE SMOOTH",
"324 106 OFFCURVE",
"263 106 OFFCURVE",
"259 155 CURVE SMOOTH",
"185 1044 LINE",
"50 1044 LINE",
"135 99 LINE SMOOTH",
"149 -59 OFFCURVE",
"417 -76 OFFCURVE",
"434 112 CURVE SMOOTH",
"479 614 LINE SMOOTH",
"482 646 OFFCURVE",
"518 644 OFFCURVE",
"521 614 CURVE SMOOTH",
"566 115 LINE SMOOTH",
"584 -81 OFFCURVE",
"852 -52 OFFCURVE",
"865 89 CURVE SMOOTH",
"950 1044 LINE"
);
}
);
width = 1000;
},
{
anchors = (
{
name = bottom;
position = "{500, 0}";
},
{
name = top;
position = "{500, 1052}";
}
);
background = {
paths = (
{
closed = 1;
nodes = (
"728 263 LINE",
"695 263 LINE",
"576 546 LINE",
"467 546 LINE",
"305 263 LINE",
"272 263 LINE",
"272 1044 LINE",
"138 1044 LINE",
"138 0 LINE",
"299 0 LINE",
"483 329 LINE",
"516 329 LINE",
"674 0 LINE",
"862 0 LINE",
"862 1044 LINE",
"728 1044 LINE"
);
}
);
};
layerId = "75A0A031-BEAD-45F4-8089-5B3FA8FFE7DC";
paths = (
{
closed = 1;
nodes = (
"918 1044 LINE",
"835 99 LINE SMOOTH",
"823 -34 OFFCURVE",
"633 -44 OFFCURVE",
"616 125 CURVE SMOOTH",
"561 666 LINE SMOOTH",
"552 756 OFFCURVE",
"448 757 OFFCURVE",
"439 666 CURVE SMOOTH",
"384 122 LINE SMOOTH",
"369 -30 OFFCURVE",
"178 -32 OFFCURVE",
"165 109 CURVE SMOOTH",
"82 1044 LINE",
"50 1044 LINE",
"135 99 LINE SMOOTH",
"149 -59 OFFCURVE",
"395 -75 OFFCURVE",
"414 112 CURVE SMOOTH",
"469 666 LINE SMOOTH",
"474 718 OFFCURVE",
"526 716 OFFCURVE",
"531 666 CURVE SMOOTH",
"586 115 LINE SMOOTH",
"606 -81 OFFCURVE",
"852 -62 OFFCURVE",
"865 89 CURVE SMOOTH",
"950 1044 LINE"
);
}
);
width = 1000;
}
);
unicode = 0057;
},
{
glyphname = X;
lastChange = "2020-04-19 03:30:37 +0000";
layers = (
{
layerId = "7B6A6B4E-EFCA-423F-B1F3-F70C1AFA501E";
paths = (
{
closed = 1;
nodes = (
"148 -36 LINE",
"538 491 LINE",
"475 491 LINE",
"839 -36 LINE",
"960 44 LINE",
"559 598 LINE",
"559 510 LINE",
"936 1008 LINE",
"818 1088 LINE",
"475 617 LINE",
"538 617 LINE",
"197 1088 LINE",
"76 1008 LINE",
"453 510 LINE",
"454 598 LINE",
"40 44 LINE"
);
}
);
width = 1000;
},
{
layerId = "75A0A031-BEAD-45F4-8089-5B3FA8FFE7DC";
paths = (
{
closed = 1;
nodes = (
"105 -4 LINE",
"513 540 LINE",
"499 540 LINE",
"887 -5 LINE",
"912 12 LINE",
"518 564 LINE",
"518 544 LINE",
"890 1039 LINE",
"864 1057 LINE",
"499 569 LINE",
"513 569 LINE",
"149 1056 LINE",
"124 1039 LINE",
"494 544 LINE",
"494 564 LINE",
"83 13 LINE"
);
}
);
width = 1000;
}
);
unicode = 0058;
},
{
glyphname = Y;
lastChange = "2020-11-26 22:07:15 +0000";
layers = (
{
anchors = (
{
name = bottom;
position = "{500, 0}";
},
{
name = top;
position = "{500, 1052}";
},
{
name = topleft;
position = "{20, 1152}";
}
);
background = {
paths = (
{
closed = 1;
nodes = (
"324 2 LINE",
"474 0 LINE",
"980 1044 LINE",
"830 1044 LINE"
);
},
{
closed = 1;
nodes = (
"611 485 LINE",
"498 487 LINE SMOOTH",
"466 488 OFFCURVE",
"462 496 OFFCURVE",
"447 527 CURVE SMOOTH",
"202 1044 LINE",
"60 1044 LINE",
"331 454 LINE SMOOTH",
"365 380 OFFCURVE",
"386 353 OFFCURVE",
"458 353 CURVE SMOOTH",
"611 353 LINE"
);
}
);
};
layerId = "7B6A6B4E-EFCA-423F-B1F3-F70C1AFA501E";
paths = (
{
closed = 1;
nodes = (
"484 619 OFFCURVE",
"516 619 OFFCURVE",
"539 646 CURVE SMOOTH",
"605 725 LINE SMOOTH",
"615 737 OFFCURVE",
"620 744 OFFCURVE",
"620 766 CURVE SMOOTH",
"620 992 LINE SMOOTH",
"620 1027 OFFCURVE",
"638 1044 OFFCURVE",
"688 1044 CURVE SMOOTH",
"905 1044 LINE SMOOTH",
"935 1044 OFFCURVE",
"950 1027 OFFCURVE",
"950 992 CURVE SMOOTH",
"950 607 LINE SMOOTH",
"950 582 OFFCURVE",
"940 561 OFFCURVE",
"909 536 CURVE SMOOTH",
"710 376 LINE SMOOTH",
"679 351 OFFCURVE",
"665 338 OFFCURVE",
"665 292 CURVE SMOOTH",
"665 52 LINE SMOOTH",
"665 17 OFFCURVE",
"650 0 OFFCURVE",
"620 0 CURVE SMOOTH",
"383 0 LINE SMOOTH",
"352 0 OFFCURVE",
"335 17 OFFCURVE",
"335 52 CURVE SMOOTH",
"335 292 LINE SMOOTH",
"335 338 OFFCURVE",
"321 351 OFFCURVE",
"290 376 CURVE SMOOTH",
"91 536 LINE SMOOTH",
"60 561 OFFCURVE",
"50 582 OFFCURVE",
"50 607 CURVE SMOOTH",
"50 992 LINE SMOOTH",
"50 1027 OFFCURVE",
"65 1044 OFFCURVE",
"95 1044 CURVE SMOOTH",
"312 1044 LINE SMOOTH",
"362 1044 OFFCURVE",
"380 1027 OFFCURVE",
"380 992 CURVE SMOOTH",
"380 766 LINE SMOOTH",
"380 744 OFFCURVE",
"385 737 OFFCURVE",
"395 725 CURVE SMOOTH",
"461 646 LINE SMOOTH"
);
}
);
width = 1000;
},
{
anchors = (
{
name = bottom;
position = "{500, 0}";
},
{
name = top;
position = "{500, 1052}";
},
{
name = topleft;
position = "{20, 1152}";
}
);
background = {
paths = (
{
closed = 1;
nodes = (
"381 2 LINE",
"414 0 LINE",
"920 1044 LINE",
"887 1044 LINE"
);
},
{
closed = 1;
nodes = (
"618 485 LINE",
"442 487 LINE SMOOTH",
"417 487 OFFCURVE",
"407 498 OFFCURVE",
"391 527 CURVE SMOOTH",
"114 1044 LINE",
"80 1044 LINE",
"360 521 LINE SMOOTH",
"380 483 OFFCURVE",
"397 458 OFFCURVE",
"442 458 CURVE SMOOTH",
"618 458 LINE"
);
}
);
};
layerId = "75A0A031-BEAD-45F4-8089-5B3FA8FFE7DC";
paths = (
{
closed = 1;
nodes = (
"515 0 LINE",
"515 504 LINE",
"485 504 LINE",
"485 0 LINE"
);
},
{
closed = 1;
nodes = (
"500 466 LINE",
"920 1044 LINE",
"900 1060 LINE",
"500 517 LINE",
"100 1060 LINE",
"80 1044 LINE"
);
}
);
width = 1000;
}
);
unicode = 0059;
},
{
glyphname = Z;
lastChange = "2020-04-19 03:23:12 +0000";
layers = (
{
anchors = (
{
name = bottom;
position = "{500, 0}";
},
{
name = top;
position = "{500, 1052}";
}
);
layerId = "7B6A6B4E-EFCA-423F-B1F3-F70C1AFA501E";
paths = (
{
closed = 1;
nodes = (
"129 1044 LINE",
"129 909 LINE",
"628 909 LINE SMOOTH",
"665 909 OFFCURVE",
"668 887 OFFCURVE",
"647 858 CURVE SMOOTH",
"174 197 LINE SMOOTH",
"88 77 OFFCURVE",
"90 0 OFFCURVE",
"171 0 CURVE SMOOTH",
"890 0 LINE",
"890 135 LINE",
"357 135 LINE SMOOTH",
"320 135 OFFCURVE",
"321 154 OFFCURVE",
"340 182 CURVE SMOOTH",
"804 844 LINE SMOOTH",
"897 977 OFFCURVE",
"872 1044 OFFCURVE",
"797 1044 CURVE SMOOTH"
);
}
);
width = 1000;
},
{
anchors = (
{
name = bottom;
position = "{500, 0}";
},
{
name = top;
position = "{500, 1052}";
}
);
layerId = "75A0A031-BEAD-45F4-8089-5B3FA8FFE7DC";
paths = (
{
closed = 1;
nodes = (
"129 1044 LINE",
"129 1017 LINE",
"798 1017 LINE SMOOTH",
"847 1017 OFFCURVE",
"857 1014 OFFCURVE",
"817 966 CURVE SMOOTH",
"174 197 LINE SMOOTH",
"79 84 OFFCURVE",
"90 0 OFFCURVE",
"171 0 CURVE SMOOTH",
"890 0 LINE",
"890 27 LINE",
"174 27 LINE SMOOTH",
"115 27 OFFCURVE",
"133 103 OFFCURVE",
"204 187 CURVE SMOOTH",
"847 956 LINE SMOOTH",
"917 1039 OFFCURVE",
"872 1044 OFFCURVE",
"797 1044 CURVE SMOOTH"
);
}
);
width = 1000;
}
);
unicode = 005A;
},
{
glyphname = A.l;
lastChange = "2020-04-20 03:49:05 +0000";
layers = (
{
anchors = (
{
name = bottom;
position = "{500, 0}";
},
{
name = ogonek;
position = "{900, 10}";
},
{
name = top;
position = "{500, 1052}";
}
);
background = {
paths = (
{
closed = 1;
nodes = (
"901 -448 LINE",
"901 1152 LINE",
"724 1152 LINE",
"724 -448 LINE"
);
},
{
closed = 1;
nodes = (
"1408 -448 LINE",
"1408 1152 LINE",
"1231 1152 LINE",
"1231 -448 LINE"
);
},
{
closed = 1;
nodes = (
"786 -448 LINE",
"786 -288 LINE",
"177 -288 LINE",
"177 -448 LINE"
);
},
{
closed = 1;
nodes = (
"1954 -448 LINE",
"1954 -288 LINE",
"1345 -288 LINE",
"1345 -448 LINE"
);
},
{
closed = 1;
nodes = (
"1954 992 LINE",
"1954 1152 LINE",
"177 1152 LINE",
"177 992 LINE"
);
},
{
closed = 1;
nodes = (
"1954 32 LINE",
"1954 192 LINE",
"177 192 LINE",
"177 32 LINE"
);
},
{
closed = 1;
nodes = (
"854 512 LINE",
"854 672 LINE",
"177 672 LINE",
"177 512 LINE"
);
},
{
closed = 1;
nodes = (
"1954 512 LINE",
"1954 672 LINE",
"1277 672 LINE",
"1277 512 LINE"
);
}
);
};
layerId = "7B6A6B4E-EFCA-423F-B1F3-F70C1AFA501E";
paths = (
{
closed = 1;
nodes = (
"152 0 LINE",
"433 896 LINE SMOOTH",
"447 939 OFFCURVE",
"501 939 OFFCURVE",
"515 896 CURVE SMOOTH",
"808 0 LINE",
"960 0 LINE",
"622 991 LINE SMOOTH",
"580 1113 OFFCURVE",
"370 1114 OFFCURVE",
"329 991 CURVE SMOOTH",
"0 0 LINE"
);
},
{
closed = 1;
nodes = (
"150 264 LINE",
"800 264 LINE",
"800 404 LINE",
"150 404 LINE"
);
}
);
width = 1000;
},
{
anchors = (
{
name = bottom;
position = "{500, 0}";
},
{
name = ogonek;
position = "{900, 10}";
},
{
name = top;
position = "{500, 1052}";
}
);
background = {
paths = (
{
closed = 1;
nodes = (
"901 -448 LINE",
"901 1152 LINE",
"724 1152 LINE",
"724 -448 LINE"
);
},
{
closed = 1;
nodes = (
"1408 -448 LINE",
"1408 1152 LINE",
"1231 1152 LINE",
"1231 -448 LINE"
);
},
{
closed = 1;
nodes = (
"786 -448 LINE",
"786 -288 LINE",
"177 -288 LINE",
"177 -448 LINE"
);
},
{
closed = 1;
nodes = (
"1954 -448 LINE",
"1954 -288 LINE",
"1345 -288 LINE",
"1345 -448 LINE"
);
},
{
closed = 1;
nodes = (
"1954 992 LINE",
"1954 1152 LINE",
"177 1152 LINE",
"177 992 LINE"
);
},
{
closed = 1;
nodes = (
"1954 32 LINE",
"1954 192 LINE",
"177 192 LINE",
"177 32 LINE"
);
},
{
closed = 1;
nodes = (
"854 512 LINE",
"854 672 LINE",
"177 672 LINE",
"177 512 LINE"
);
},
{
closed = 1;
nodes = (
"1954 512 LINE",
"1954 672 LINE",
"1277 672 LINE",
"1277 512 LINE"
);
}
);
};
layerId = "75A0A031-BEAD-45F4-8089-5B3FA8FFE7DC";
paths = (
{
closed = 1;
nodes = (
"32 0 LINE",
"370 955 LINE SMOOTH",
"413 1075 OFFCURVE",
"538 1074 OFFCURVE",
"581 955 CURVE SMOOTH",
"928 0 LINE",
"960 0 LINE",
"614 955 LINE SMOOTH",
"556 1114 OFFCURVE",
"395 1115 OFFCURVE",
"338 955 CURVE SMOOTH",
"0 0 LINE"
);
},
{
closed = 1;
nodes = (
"170 377 LINE",
"790 377 LINE",
"790 404 LINE",
"170 404 LINE"
);
}
);
width = 1000;
}
);
},
{
glyphname = H.l;
lastChange = "2020-04-20 08:35:28 +0000";
layers = (
{
layerId = "7B6A6B4E-EFCA-423F-B1F3-F70C1AFA501E";
paths = (
{
closed = 1;
nodes = (
"50 433 LINE",
"850 433 LINE",
"850 568 LINE",
"50 568 LINE"
);
},
{
closed = 1;
nodes = (
"50 0 LINE",
"190 0 LINE",
"190 1044 LINE",
"50 1044 LINE"
);
},
{
closed = 1;
nodes = (
"710 0 LINE",
"850 0 LINE",
"850 1044 LINE",
"710 1044 LINE"
);
}
);
width = 1000;
},
{
layerId = "75A0A031-BEAD-45F4-8089-5B3FA8FFE7DC";
paths = (
{
closed = 1;
nodes = (
"50 487 LINE",
"850 487 LINE",
"850 514 LINE",
"50 514 LINE"
);
},
{
closed = 1;
nodes = (
"50 0 LINE",
"80 0 LINE",
"80 1044 LINE",
"50 1044 LINE"
);
},
{
closed = 1;
nodes = (
"820 0 LINE",
"850 0 LINE",
"850 1044 LINE",
"820 1044 LINE"
);
}
);
width = 1000;
}
);
},
{
glyphname = M.l;
lastChange = "2020-04-20 04:03:09 +0000";
layers = (
{
layerId = "7B6A6B4E-EFCA-423F-B1F3-F70C1AFA501E";
paths = (
{
closed = 1;
nodes = (
"142 0 LINE",
"169 872 LINE SMOOTH",
"170 911 OFFCURVE",
"198 912 OFFCURVE",
"211 874 CURVE SMOOTH",
"379 391 LINE SMOOTH",
"410 303 OFFCURVE",
"473 309 OFFCURVE",
"503 384 CURVE SMOOTH",
"697 874 LINE SMOOTH",
"711 910 OFFCURVE",
"742 913 OFFCURVE",
"743 872 CURVE SMOOTH",
"757 0 LINE",
"900 0 LINE",
"874 938 LINE SMOOTH",
"869 1128 OFFCURVE",
"649 1133 OFFCURVE",
"583 955 CURVE SMOOTH",
"459 623 LINE SMOOTH",
"449 597 OFFCURVE",
"446 599 OFFCURVE",
"437 623 CURVE SMOOTH",
"321 952 LINE SMOOTH",
"255 1139 OFFCURVE",
"31 1121 OFFCURVE",
"26 938 CURVE SMOOTH",
"0 0 LINE"
);
}
);
width = 1000;
},
{
layerId = "75A0A031-BEAD-45F4-8089-5B3FA8FFE7DC";
paths = (
{
closed = 1;
nodes = (
"30 0 LINE",
"55 912 LINE SMOOTH",
"60 1090 OFFCURVE",
"231 1080 OFFCURVE",
"261 926 CURVE SMOOTH",
"359 421 LINE SMOOTH",
"377 328 OFFCURVE",
"504 328 OFFCURVE",
"525 421 CURVE SMOOTH",
"639 929 LINE SMOOTH",
"670 1069 OFFCURVE",
"836 1100 OFFCURVE",
"841 912 CURVE SMOOTH",
"867 0 LINE",
"900 0 LINE",
"875 918 LINE SMOOTH",
"869 1128 OFFCURVE",
"652 1124 OFFCURVE",
"611 939 CURVE SMOOTH",
"495 421 LINE SMOOTH",
"483 368 OFFCURVE",
"399 367 OFFCURVE",
"389 421 CURVE SMOOTH",
"290 933 LINE SMOOTH",
"253 1126 OFFCURVE",
"31 1121 OFFCURVE",
"25 918 CURVE SMOOTH",
"0 0 LINE"
);
}
);
width = 1000;
}
);
},
{
glyphname = N.l;
lastChange = "2020-04-20 16:03:59 +0000";
layers = (
{
layerId = "7B6A6B4E-EFCA-423F-B1F3-F70C1AFA501E";
paths = (
{
closed = 1;
nodes = (
"674 53 LINE SMOOTH",
"745 -55 OFFCURVE",
"860 -28 OFFCURVE",
"860 50 CURVE SMOOTH",
"860 1044 LINE",
"730 1044 LINE",
"730 262 LINE SMOOTH",
"730 247 OFFCURVE",
"710 253 OFFCURVE",
"704 262 CURVE SMOOTH",
"226 991 LINE SMOOTH",
"155 1099 OFFCURVE",
"40 1072 OFFCURVE",
"40 994 CURVE SMOOTH",
"40 0 LINE",
"170 0 LINE",
"170 782 LINE SMOOTH",
"170 797 OFFCURVE",
"190 791 OFFCURVE",
"196 782 CURVE SMOOTH"
);
}
);
width = 1000;
},
{
layerId = "75A0A031-BEAD-45F4-8089-5B3FA8FFE7DC";
paths = (
{
closed = 1;
nodes = (
"674 53 LINE SMOOTH",
"733 -62 OFFCURVE",
"860 -28 OFFCURVE",
"860 66 CURVE SMOOTH",
"860 1044 LINE",
"830 1044 LINE",
"830 66 LINE SMOOTH",
"830 -4 OFFCURVE",
"742 -19 OFFCURVE",
"700 63 CURVE SMOOTH",
"226 991 LINE SMOOTH",
"166 1108 OFFCURVE",
"40 1072 OFFCURVE",
"40 983 CURVE SMOOTH",
"40 0 LINE",
"70 0 LINE",
"70 983 LINE SMOOTH",
"70 1049 OFFCURVE",
"163 1055 OFFCURVE",
"196 991 CURVE SMOOTH"
);
}
);
width = 1000;
}
);
},
{
glyphname = O.l;
lastChange = "2020-04-20 16:04:55 +0000";
layers = (
{
layerId = "7B6A6B4E-EFCA-423F-B1F3-F70C1AFA501E";
paths = (
{
closed = 1;
nodes = (
"171 1074 OFFCURVE",
"20 873 OFFCURVE",
"20 590 CURVE SMOOTH",
"20 470 LINE SMOOTH",
"20 216 OFFCURVE",
"171 -20 OFFCURVE",
"470 -20 CURVE SMOOTH",
"779 -20 OFFCURVE",
"920 216 OFFCURVE",
"920 470 CURVE SMOOTH",
"920 590 LINE SMOOTH",
"920 873 OFFCURVE",
"779 1074 OFFCURVE",
"470 1074 CURVE SMOOTH"
);
},
{
closed = 1;
nodes = (
"654 939 OFFCURVE",
"780 788 OFFCURVE",
"780 588 CURVE SMOOTH",
"780 472 LINE SMOOTH",
"780 272 OFFCURVE",
"654 115 OFFCURVE",
"470 115 CURVE SMOOTH",
"286 115 OFFCURVE",
"160 272 OFFCURVE",
"160 472 CURVE SMOOTH",
"160 588 LINE SMOOTH",
"160 788 OFFCURVE",
"286 939 OFFCURVE",
"470 939 CURVE SMOOTH"
);
}
);
width = 1000;
},
{
layerId = "75A0A031-BEAD-45F4-8089-5B3FA8FFE7DC";
paths = (
{
closed = 1;
nodes = (
"191 1074 OFFCURVE",
"20 870 OFFCURVE",
"20 587 CURVE SMOOTH",
"20 467 LINE SMOOTH",
"20 213 OFFCURVE",
"191 -20 OFFCURVE",
"470 -20 CURVE SMOOTH",
"759 -20 OFFCURVE",
"920 213 OFFCURVE",
"920 467 CURVE SMOOTH",
"920 587 LINE SMOOTH",
"920 870 OFFCURVE",
"759 1074 OFFCURVE",
"470 1074 CURVE SMOOTH"
);
},
{
closed = 1;
nodes = (
"734 1047 OFFCURVE",
"890 855 OFFCURVE",
"890 585 CURVE SMOOTH",
"890 469 LINE SMOOTH",
"890 229 OFFCURVE",
"734 7 OFFCURVE",
"470 7 CURVE SMOOTH",
"206 7 OFFCURVE",
"50 229 OFFCURVE",
"50 469 CURVE SMOOTH",
"50 585 LINE SMOOTH",
"50 855 OFFCURVE",
"206 1047 OFFCURVE",
"470 1047 CURVE SMOOTH"
);
}
);
width = 1000;
}
);
},
{
glyphname = Q.l;
lastChange = "2020-04-20 16:05:36 +0000";
layers = (
{
components = (
{
name = O.l;
}
);
layerId = "7B6A6B4E-EFCA-423F-B1F3-F70C1AFA501E";
paths = (
{
closed = 1;
nodes = (
"903 -229 LINE",
"1006 -128 LINE",
"706 172 LINE",
"603 71 LINE"
);
}
);
width = 1000;
},
{
components = (
{
name = O.l;
}
);
layerId = "75A0A031-BEAD-45F4-8089-5B3FA8FFE7DC";
paths = (
{
closed = 1;
nodes = (
"883 -209 LINE",
"906 -188 LINE",
"666 52 LINE",
"643 31 LINE"
);
}
);
width = 1000;
}
);
},
{
glyphname = W.l;
lastChange = "2020-04-20 03:50:17 +0000";
layers = (
{
layerId = "7B6A6B4E-EFCA-423F-B1F3-F70C1AFA501E";
paths = (
{
closed = 1;
nodes = (
"816 1087 LINE",
"739 155 LINE SMOOTH",
"735 106 OFFCURVE",
"675 106 OFFCURVE",
"669 153 CURVE SMOOTH",
"608 666 LINE SMOOTH",
"589 827 OFFCURVE",
"368 827 OFFCURVE",
"349 666 CURVE SMOOTH",
"289 153 LINE SMOOTH",
"284 106 OFFCURVE",
"223 106 OFFCURVE",
"219 155 CURVE SMOOTH",
"135 1087 LINE",
"0 1087 LINE",
"95 99 LINE SMOOTH",
"110 -59 OFFCURVE",
"378 -76 OFFCURVE",
"399 112 CURVE SMOOTH",
"454 614 LINE SMOOTH",
"458 646 OFFCURVE",
"493 644 OFFCURVE",
"496 614 CURVE SMOOTH",
"551 115 LINE SMOOTH",
"573 -81 OFFCURVE",
"842 -52 OFFCURVE",
"855 89 CURVE SMOOTH",
"950 1087 LINE"
);
}
);
width = 1000;
},
{
layerId = "75A0A031-BEAD-45F4-8089-5B3FA8FFE7DC";
paths = (
{
closed = 1;
nodes = (
"918 1044 LINE",
"835 99 LINE SMOOTH",
"823 -34 OFFCURVE",
"639 -44 OFFCURVE",
"616 125 CURVE SMOOTH",
"541 666 LINE SMOOTH",
"528 758 OFFCURVE",
"422 757 OFFCURVE",
"409 666 CURVE SMOOTH",
"334 122 LINE SMOOTH",
"313 -30 OFFCURVE",
"128 -32 OFFCURVE",
"115 109 CURVE SMOOTH",
"32 1044 LINE",
"0 1044 LINE",
"85 99 LINE SMOOTH",
"99 -59 OFFCURVE",
"339 -75 OFFCURVE",
"364 112 CURVE SMOOTH",
"439 666 LINE SMOOTH",
"446 718 OFFCURVE",
"504 718 OFFCURVE",
"511 666 CURVE SMOOTH",
"586 115 LINE SMOOTH",
"613 -81 OFFCURVE",
"852 -62 OFFCURVE",
"865 89 CURVE SMOOTH",
"950 1044 LINE"
);
}
);
width = 1000;
}
);
},
{
glyphname = A.r;
lastChange = "2020-04-20 03:48:14 +0000";
layers = (
{
anchors = (
{
name = bottom;
position = "{500, 0}";
},
{
name = ogonek;
position = "{900, 10}";
},
{
name = top;
position = "{500, 1052}";
}
);
background = {
paths = (
{
closed = 1;
nodes = (
"901 -448 LINE",
"901 1152 LINE",
"724 1152 LINE",
"724 -448 LINE"
);
},
{
closed = 1;
nodes = (
"1408 -448 LINE",
"1408 1152 LINE",
"1231 1152 LINE",
"1231 -448 LINE"
);
},
{
closed = 1;
nodes = (
"786 -448 LINE",
"786 -288 LINE",
"177 -288 LINE",
"177 -448 LINE"
);
},
{
closed = 1;
nodes = (
"1954 -448 LINE",
"1954 -288 LINE",
"1345 -288 LINE",
"1345 -448 LINE"
);
},
{
closed = 1;
nodes = (
"1954 992 LINE",
"1954 1152 LINE",
"177 1152 LINE",
"177 992 LINE"
);
},
{
closed = 1;
nodes = (
"1954 32 LINE",
"1954 192 LINE",
"177 192 LINE",
"177 32 LINE"
);
},
{
closed = 1;
nodes = (
"854 512 LINE",
"854 672 LINE",
"177 672 LINE",
"177 512 LINE"
);
},
{
closed = 1;
nodes = (
"1954 512 LINE",
"1954 672 LINE",
"1277 672 LINE",
"1277 512 LINE"
);
}
);
};
components = (
{
alignment = -1;
name = A.l;
transform = "{1, 0, 0, 1, 40, 0}";
}
);
layerId = "7B6A6B4E-EFCA-423F-B1F3-F70C1AFA501E";
width = 1000;
},
{
anchors = (
{
name = bottom;
position = "{500, 0}";
},
{
name = ogonek;
position = "{900, 10}";
},
{
name = top;
position = "{500, 1052}";
}
);
background = {
paths = (
{
closed = 1;
nodes = (
"901 -448 LINE",
"901 1152 LINE",
"724 1152 LINE",
"724 -448 LINE"
);
},
{
closed = 1;
nodes = (
"1408 -448 LINE",
"1408 1152 LINE",
"1231 1152 LINE",
"1231 -448 LINE"
);
},
{
closed = 1;
nodes = (
"786 -448 LINE",
"786 -288 LINE",
"177 -288 LINE",
"177 -448 LINE"
);
},
{
closed = 1;
nodes = (
"1954 -448 LINE",
"1954 -288 LINE",
"1345 -288 LINE",
"1345 -448 LINE"
);
},
{
closed = 1;
nodes = (
"1954 992 LINE",
"1954 1152 LINE",
"177 1152 LINE",
"177 992 LINE"
);
},
{
closed = 1;
nodes = (
"1954 32 LINE",
"1954 192 LINE",
"177 192 LINE",
"177 32 LINE"
);
},
{
closed = 1;
nodes = (
"854 512 LINE",
"854 672 LINE",
"177 672 LINE",
"177 512 LINE"
);
},
{
closed = 1;
nodes = (
"1954 512 LINE",
"1954 672 LINE",
"1277 672 LINE",
"1277 512 LINE"
);
}
);
};
components = (
{
alignment = -1;
name = A.l;
transform = "{1, 0, 0, 1, 40, 0}";
}
);
layerId = "75A0A031-BEAD-45F4-8089-5B3FA8FFE7DC";
width = 1000;
}
);
},
{
glyphname = A.w;
lastChange = "2020-04-20 03:48:51 +0000";
layers = (
{
layerId = "7B6A6B4E-EFCA-423F-B1F3-F70C1AFA501E";
paths = (
{
closed = 1;
nodes = (
"152 0 LINE",
"453 896 LINE SMOOTH",
"467 939 OFFCURVE",
"520 939 OFFCURVE",
"535 896 CURVE SMOOTH",
"848 0 LINE",
"1000 0 LINE",
"642 991 LINE SMOOTH",
"598 1113 OFFCURVE",
"392 1114 OFFCURVE",
"349 991 CURVE SMOOTH",
"0 0 LINE"
);
},
{
closed = 1;
nodes = (
"150 264 LINE",
"820 264 LINE",
"820 404 LINE",
"150 404 LINE"
);
}
);
width = 1000;
},
{
layerId = "75A0A031-BEAD-45F4-8089-5B3FA8FFE7DC";
paths = (
{
closed = 1;
nodes = (
"32 0 LINE",
"390 955 LINE SMOOTH",
"435 1074 OFFCURVE",
"555 1073 OFFCURVE",
"601 955 CURVE SMOOTH",
"968 0 LINE",
"1000 0 LINE",
"634 955 LINE SMOOTH",
"573 1113 OFFCURVE",
"418 1114 OFFCURVE",
"358 955 CURVE SMOOTH",
"0 0 LINE"
);
},
{
closed = 1;
nodes = (
"170 377 LINE",
"830 377 LINE",
"830 404 LINE",
"170 404 LINE"
);
}
);
width = 1000;
}
);
},
{
glyphname = C.w;
lastChange = "2020-04-20 07:41:53 +0000";
layers = (
{
layerId = "7B6A6B4E-EFCA-423F-B1F3-F70C1AFA501E";
paths = (
{
closed = 1;
nodes = (
"823 296 LINE",
"772 179 OFFCURVE",
"657 115 OFFCURVE",
"530 115 CURVE SMOOTH",
"336 115 OFFCURVE",
"210 264 OFFCURVE",
"210 464 CURVE SMOOTH",
"210 580 LINE SMOOTH",
"210 780 OFFCURVE",
"326 929 OFFCURVE",
"528 929 CURVE SMOOTH",
"637 929 OFFCURVE",
"784 888 OFFCURVE",
"794 790 CURVE",
"920 820 LINE",
"910 981 OFFCURVE",
"730 1064 OFFCURVE",
"528 1064 CURVE SMOOTH",
"211 1064 OFFCURVE",
"70 865 OFFCURVE",
"70 582 CURVE SMOOTH",
"70 462 LINE SMOOTH",
"70 208 OFFCURVE",
"221 -20 OFFCURVE",
"530 -20 CURVE SMOOTH",
"713 -20 OFFCURVE",
"861 64 OFFCURVE",
"920 204 CURVE"
);
}
);
width = 1000;
},
{
layerId = "75A0A031-BEAD-45F4-8089-5B3FA8FFE7DC";
paths = (
{
closed = 1;
nodes = (
"903 216 LINE",
"849 80 OFFCURVE",
"707 7 OFFCURVE",
"540 7 CURVE SMOOTH",
"259 7 OFFCURVE",
"110 227 OFFCURVE",
"110 464 CURVE SMOOTH",
"110 580 LINE SMOOTH",
"110 840 OFFCURVE",
"255 1037 OFFCURVE",
"538 1037 CURVE SMOOTH",
"721 1037 OFFCURVE",
"890 958 OFFCURVE",
"900 810 CURVE",
"930 820 LINE",
"920 981 OFFCURVE",
"740 1064 OFFCURVE",
"538 1064 CURVE SMOOTH",
"221 1064 OFFCURVE",
"80 865 OFFCURVE",
"80 582 CURVE SMOOTH",
"80 462 LINE SMOOTH",
"80 208 OFFCURVE",
"231 -20 OFFCURVE",
"540 -20 CURVE SMOOTH",
"723 -20 OFFCURVE",
"871 64 OFFCURVE",
"930 204 CURVE"
);
}
);
width = 1000;
}
);
},
{
glyphname = D.w;
lastChange = "2020-04-20 07:43:29 +0000";
layers = (
{
layerId = "7B6A6B4E-EFCA-423F-B1F3-F70C1AFA501E";
paths = (
{
closed = 1;
nodes = (
"379 0 LINE SMOOTH",
"776 0 OFFCURVE",
"940 262 OFFCURVE",
"940 523 CURVE SMOOTH",
"940 795 OFFCURVE",
"765 1044 OFFCURVE",
"398 1044 CURVE SMOOTH",
"100 1044 LINE",
"100 0 LINE"
);
},
{
closed = 1;
nodes = (
"240 909 LINE",
"392 909 LINE SMOOTH",
"709 909 OFFCURVE",
"795 712 OFFCURVE",
"795 522 CURVE SMOOTH",
"795 309 OFFCURVE",
"693 135 OFFCURVE",
"398 135 CURVE SMOOTH",
"240 135 LINE"
);
}
);
width = 1000;
},
{
layerId = "75A0A031-BEAD-45F4-8089-5B3FA8FFE7DC";
paths = (
{
closed = 1;
nodes = (
"388 0 LINE SMOOTH",
"766 0 OFFCURVE",
"940 262 OFFCURVE",
"940 523 CURVE SMOOTH",
"940 765 OFFCURVE",
"785 1044 OFFCURVE",
"388 1044 CURVE SMOOTH",
"100 1044 LINE",
"100 0 LINE"
);
},
{
closed = 1;
nodes = (
"130 1017 LINE",
"388 1017 LINE SMOOTH",
"769 1017 OFFCURVE",
"907 753 OFFCURVE",
"907 523 CURVE SMOOTH",
"907 280 OFFCURVE",
"753 27 OFFCURVE",
"388 27 CURVE SMOOTH",
"130 27 LINE"
);
}
);
width = 1000;
}
);
},
{
glyphname = G.w;
lastChange = "2020-04-19 04:13:49 +0000";
layers = (
{
layerId = "7B6A6B4E-EFCA-423F-B1F3-F70C1AFA501E";
paths = (
{
closed = 1;
nodes = (
"1010 568 LINE",
"518 568 LINE",
"518 433 LINE",
"1010 433 LINE"
);
},
{
closed = 1;
nodes = (
"719 -20 OFFCURVE",
"910 95 OFFCURVE",
"910 311 CURVE SMOOTH",
"910 567 LINE",
"784 568 LINE",
"784 311 LINE SMOOTH",
"784 176 OFFCURVE",
"626 115 OFFCURVE",
"500 115 CURVE SMOOTH",
"306 115 OFFCURVE",
"190 264 OFFCURVE",
"190 464 CURVE SMOOTH",
"190 580 LINE SMOOTH",
"190 780 OFFCURVE",
"336 929 OFFCURVE",
"518 929 CURVE SMOOTH",
"617 929 OFFCURVE",
"769 888 OFFCURVE",
"779 790 CURVE",
"905 820 LINE",
"895 981 OFFCURVE",
"710 1064 OFFCURVE",
"518 1064 CURVE SMOOTH",
"221 1064 OFFCURVE",
"50 865 OFFCURVE",
"50 582 CURVE SMOOTH",
"50 462 LINE SMOOTH",
"50 208 OFFCURVE",
"191 -20 OFFCURVE",
"500 -20 CURVE SMOOTH"
);
}
);
width = 1000;
},
{
layerId = "75A0A031-BEAD-45F4-8089-5B3FA8FFE7DC";
paths = (
{
closed = 1;
nodes = (
"1010 514 LINE",
"518 514 LINE",
"518 487 LINE",
"1010 487 LINE"
);
},
{
closed = 1;
nodes = (
"719 -20 OFFCURVE",
"910 95 OFFCURVE",
"910 311 CURVE SMOOTH",
"910 513 LINE",
"880 514 LINE",
"880 311 LINE SMOOTH",
"880 109 OFFCURVE",
"708 7 OFFCURVE",
"500 7 CURVE SMOOTH",
"208 7 OFFCURVE",
"80 222 OFFCURVE",
"80 462 CURVE SMOOTH",
"80 578 LINE SMOOTH",
"80 846 OFFCURVE",
"239 1037 OFFCURVE",
"518 1037 CURVE SMOOTH",
"698 1037 OFFCURVE",
"865 963 OFFCURVE",
"875 816 CURVE",
"905 820 LINE",
"895 981 OFFCURVE",
"710 1064 OFFCURVE",
"518 1064 CURVE SMOOTH",
"221 1064 OFFCURVE",
"50 865 OFFCURVE",
"50 582 CURVE SMOOTH",
"50 462 LINE SMOOTH",
"50 208 OFFCURVE",
"191 -20 OFFCURVE",
"500 -20 CURVE SMOOTH"
);
}
);
width = 1000;
}
);
},
{
glyphname = H.w;
lastChange = "2020-04-22 01:31:42 +0000";
layers = (
{
layerId = "7B6A6B4E-EFCA-423F-B1F3-F70C1AFA501E";
paths = (
{
closed = 1;
nodes = (
"100 433 LINE",
"900 433 LINE",
"900 568 LINE",
"100 568 LINE"
);
},
{
closed = 1;
nodes = (
"100 0 LINE",
"240 0 LINE",
"240 1044 LINE",
"100 1044 LINE"
);
},
{
closed = 1;
nodes = (
"760 0 LINE",
"900 0 LINE",
"900 1044 LINE",
"760 1044 LINE"
);
}
);
width = 1000;
},
{
layerId = "75A0A031-BEAD-45F4-8089-5B3FA8FFE7DC";
paths = (
{
closed = 1;
nodes = (
"100 487 LINE",
"900 487 LINE",
"900 514 LINE",
"100 514 LINE"
);
},
{
closed = 1;
nodes = (
"100 0 LINE",
"130 0 LINE",
"130 1044 LINE",
"100 1044 LINE"
);
},
{
closed = 1;
nodes = (
"870 0 LINE",
"900 0 LINE",
"900 1044 LINE",
"870 1044 LINE"
);
}
);
width = 1000;
}
);
},
{
glyphname = M.w;
lastChange = "2020-04-20 04:03:35 +0000";
layers = (
{
layerId = "7B6A6B4E-EFCA-423F-B1F3-F70C1AFA501E";
paths = (
{
closed = 1;
nodes = (
"152 0 LINE",
"179 872 LINE SMOOTH",
"180 911 OFFCURVE",
"205 912 OFFCURVE",
"221 874 CURVE SMOOTH",
"429 391 LINE SMOOTH",
"466 306 OFFCURVE",
"518 311 OFFCURVE",
"553 384 CURVE SMOOTH",
"787 874 LINE SMOOTH",
"804 910 OFFCURVE",
"832 913 OFFCURVE",
"833 872 CURVE SMOOTH",
"847 0 LINE",
"990 0 LINE",
"964 938 LINE SMOOTH",
"959 1128 OFFCURVE",
"743 1128 OFFCURVE",
"667 955 CURVE SMOOTH",
"509 593 LINE SMOOTH",
"498 567 OFFCURVE",
"497 569 OFFCURVE",
"487 593 CURVE SMOOTH",
"337 952 LINE SMOOTH",
"261 1134 OFFCURVE",
"41 1121 OFFCURVE",
"36 938 CURVE SMOOTH",
"10 0 LINE"
);
}
);
width = 1000;
},
{
layerId = "75A0A031-BEAD-45F4-8089-5B3FA8FFE7DC";
paths = (
{
closed = 1;
nodes = (
"30 0 LINE",
"56 932 LINE SMOOTH",
"60 1090 OFFCURVE",
"206 1076 OFFCURVE",
"255 926 CURVE SMOOTH",
"419 421 LINE SMOOTH",
"448 332 OFFCURVE",
"535 336 OFFCURVE",
"563 414 CURVE SMOOTH",
"745 929 LINE SMOOTH",
"793 1066 OFFCURVE",
"936 1100 OFFCURVE",
"941 932 CURVE SMOOTH",
"967 0 LINE",
"1000 0 LINE",
"974 938 LINE SMOOTH",
"969 1128 OFFCURVE",
"780 1120 OFFCURVE",
"717 939 CURVE SMOOTH",
"533 414 LINE SMOOTH",
"520 378 OFFCURVE",
"465 372 OFFCURVE",
"449 421 CURVE SMOOTH",
"284 933 LINE SMOOTH",
"223 1122 OFFCURVE",
"31 1121 OFFCURVE",
"26 938 CURVE SMOOTH",
"0 0 LINE"
);
}
);
width = 1000;
}
);
},
{
glyphname = N.w;
lastChange = "2020-04-20 16:04:22 +0000";
layers = (
{
layerId = "7B6A6B4E-EFCA-423F-B1F3-F70C1AFA501E";
paths = (
{
closed = 1;
nodes = (
"724 53 LINE SMOOTH",
"795 -55 OFFCURVE",
"910 -28 OFFCURVE",
"910 50 CURVE SMOOTH",
"910 1044 LINE",
"780 1044 LINE",
"780 262 LINE SMOOTH",
"780 247 OFFCURVE",
"760 253 OFFCURVE",
"754 262 CURVE SMOOTH",
"276 991 LINE SMOOTH",
"205 1099 OFFCURVE",
"90 1072 OFFCURVE",
"90 994 CURVE SMOOTH",
"90 0 LINE",
"220 0 LINE",
"220 782 LINE SMOOTH",
"220 797 OFFCURVE",
"240 791 OFFCURVE",
"246 782 CURVE SMOOTH"
);
}
);
width = 1000;
},
{
layerId = "75A0A031-BEAD-45F4-8089-5B3FA8FFE7DC";
paths = (
{
closed = 1;
nodes = (
"724 53 LINE SMOOTH",
"783 -62 OFFCURVE",
"910 -28 OFFCURVE",
"910 66 CURVE SMOOTH",
"910 1044 LINE",
"880 1044 LINE",
"880 66 LINE SMOOTH",
"880 -4 OFFCURVE",
"792 -19 OFFCURVE",
"750 63 CURVE SMOOTH",
"276 991 LINE SMOOTH",
"216 1108 OFFCURVE",
"90 1072 OFFCURVE",
"90 983 CURVE SMOOTH",
"90 0 LINE",
"120 0 LINE",
"120 983 LINE SMOOTH",
"120 1049 OFFCURVE",
"213 1055 OFFCURVE",
"246 991 CURVE SMOOTH"
);
}
);
width = 1000;
}
);
},
{
glyphname = O.w;
lastChange = "2020-04-20 16:05:14 +0000";
layers = (
{
layerId = "7B6A6B4E-EFCA-423F-B1F3-F70C1AFA501E";
paths = (
{
closed = 1;
nodes = (
"211 1074 OFFCURVE",
"20 913 OFFCURVE",
"20 590 CURVE SMOOTH",
"20 470 LINE SMOOTH",
"20 176 OFFCURVE",
"211 -20 OFFCURVE",
"500 -20 CURVE SMOOTH",
"799 -20 OFFCURVE",
"980 176 OFFCURVE",
"980 470 CURVE SMOOTH",
"980 590 LINE SMOOTH",
"980 913 OFFCURVE",
"799 1074 OFFCURVE",
"500 1074 CURVE SMOOTH"
);
},
{
closed = 1;
nodes = (
"684 939 OFFCURVE",
"840 808 OFFCURVE",
"840 588 CURVE SMOOTH",
"840 472 LINE SMOOTH",
"840 252 OFFCURVE",
"684 115 OFFCURVE",
"500 115 CURVE SMOOTH",
"316 115 OFFCURVE",
"160 252 OFFCURVE",
"160 472 CURVE SMOOTH",
"160 588 LINE SMOOTH",
"160 808 OFFCURVE",
"316 939 OFFCURVE",
"500 939 CURVE SMOOTH"
);
}
);
width = 1000;
},
{
layerId = "75A0A031-BEAD-45F4-8089-5B3FA8FFE7DC";
paths = (
{
closed = 1;
nodes = (
"221 1074 OFFCURVE",
"50 870 OFFCURVE",
"50 587 CURVE SMOOTH",
"50 467 LINE SMOOTH",
"50 213 OFFCURVE",
"221 -20 OFFCURVE",
"500 -20 CURVE SMOOTH",
"789 -20 OFFCURVE",
"950 213 OFFCURVE",
"950 467 CURVE SMOOTH",
"950 587 LINE SMOOTH",
"950 870 OFFCURVE",
"789 1074 OFFCURVE",
"500 1074 CURVE SMOOTH"
);
},
{
closed = 1;
nodes = (
"764 1047 OFFCURVE",
"920 855 OFFCURVE",
"920 585 CURVE SMOOTH",
"920 469 LINE SMOOTH",
"920 229 OFFCURVE",
"764 7 OFFCURVE",
"500 7 CURVE SMOOTH",
"236 7 OFFCURVE",
"80 229 OFFCURVE",
"80 469 CURVE SMOOTH",
"80 585 LINE SMOOTH",
"80 855 OFFCURVE",
"236 1047 OFFCURVE",
"500 1047 CURVE SMOOTH"
);
}
);
width = 1000;
}
);
},
{
glyphname = Q.w;
lastChange = "2020-04-20 16:05:43 +0000";
layers = (
{
components = (
{
name = O.w;
}
);
layerId = "7B6A6B4E-EFCA-423F-B1F3-F70C1AFA501E";
paths = (
{
closed = 1;
nodes = (
"903 -229 LINE",
"1006 -128 LINE",
"706 172 LINE",
"603 71 LINE"
);
}
);
width = 1000;
},
{
components = (
{
name = O.w;
}
);
layerId = "75A0A031-BEAD-45F4-8089-5B3FA8FFE7DC";
paths = (
{
closed = 1;
nodes = (
"923 -209 LINE",
"946 -188 LINE",
"706 52 LINE",
"683 31 LINE"
);
}
);
width = 1000;
}
);
},
{
glyphname = W.w;
lastChange = "2020-04-20 03:50:45 +0000";
layers = (
{
layerId = "7B6A6B4E-EFCA-423F-B1F3-F70C1AFA501E";
paths = (
{
closed = 1;
nodes = (
"866 1087 LINE",
"779 155 LINE SMOOTH",
"774 106 OFFCURVE",
"715 106 OFFCURVE",
"709 153 CURVE SMOOTH",
"638 666 LINE SMOOTH",
"616 827 OFFCURVE",
"391 827 OFFCURVE",
"369 666 CURVE SMOOTH",
"299 153 LINE SMOOTH",
"293 106 OFFCURVE",
"234 106 OFFCURVE",
"229 155 CURVE SMOOTH",
"135 1087 LINE",
"0 1087 LINE",
"105 99 LINE SMOOTH",
"122 -59 OFFCURVE",
"390 -76 OFFCURVE",
"414 112 CURVE SMOOTH",
"479 614 LINE SMOOTH",
"483 646 OFFCURVE",
"517 644 OFFCURVE",
"521 614 CURVE SMOOTH",
"586 115 LINE SMOOTH",
"611 -81 OFFCURVE",
"880 -52 OFFCURVE",
"895 89 CURVE SMOOTH",
"1000 1087 LINE"
);
}
);
width = 1000;
},
{
layerId = "75A0A031-BEAD-45F4-8089-5B3FA8FFE7DC";
paths = (
{
closed = 1;
nodes = (
"968 1044 LINE",
"885 99 LINE SMOOTH",
"873 -34 OFFCURVE",
"695 -42 OFFCURVE",
"666 125 CURVE SMOOTH",
"571 666 LINE SMOOTH",
"555 756 OFFCURVE",
"445 757 OFFCURVE",
"429 666 CURVE SMOOTH",
"334 122 LINE SMOOTH",
"308 -30 OFFCURVE",
"128 -32 OFFCURVE",
"115 109 CURVE SMOOTH",
"32 1044 LINE",
"0 1044 LINE",
"85 99 LINE SMOOTH",
"99 -59 OFFCURVE",
"332 -74 OFFCURVE",
"364 112 CURVE SMOOTH",
"459 666 LINE SMOOTH",
"468 718 OFFCURVE",
"532 716 OFFCURVE",
"541 666 CURVE SMOOTH",
"636 115 LINE SMOOTH",
"670 -80 OFFCURVE",
"902 -62 OFFCURVE",
"915 89 CURVE SMOOTH",
"1000 1044 LINE"
);
}
);
width = 1000;
}
);
},
{
glyphname = a;
lastChange = "2023-05-22 01:37:41 +0000";
layers = (
{
anchors = (
{
name = bottom;
position = "{450, 0}";
},
{
name = ogonek;
position = "{810, 10}";
},
{
name = top;
position = "{500, 860}";
}
);
background = {
paths = (
{
closed = 1;
nodes = (
"210 704 LINE",
"322 736 OFFCURVE",
"426 746 OFFCURVE",
"514 746 CURVE SMOOTH",
"662 746 OFFCURVE",
"700 713 OFFCURVE",
"700 603 CURVE SMOOTH",
"700 0 LINE",
"840 0 LINE",
"840 620 LINE SMOOTH",
"840 795 OFFCURVE",
"770 881 OFFCURVE",
"516 881 CURVE SMOOTH",
"424 881 OFFCURVE",
"319 871 OFFCURVE",
"210 852 CURVE"
);
},
{
closed = 1;
nodes = (
"533 -20 OFFCURVE",
"668 38 OFFCURVE",
"700 124 CURVE",
"700 252 LINE",
"645 166 OFFCURVE",
"528 115 OFFCURVE",
"407 115 CURVE SMOOTH",
"294 115 OFFCURVE",
"290 158 OFFCURVE",
"290 193 CURVE SMOOTH",
"290 226 LINE SMOOTH",
"290 255 OFFCURVE",
"297 265 OFFCURVE",
"385 303 CURVE SMOOTH",
"739 456 LINE",
"739 591 LINE",
"382 450 LINE SMOOTH",
"186 373 OFFCURVE",
"150 334 OFFCURVE",
"150 256 CURVE SMOOTH",
"150 152 LINE SMOOTH",
"150 27 OFFCURVE",
"244 -20 OFFCURVE",
"380 -20 CURVE SMOOTH"
);
},
{
closed = 1;
nodes = (
"260 494 LINE SMOOTH",
"144 494 OFFCURVE",
"100 444 OFFCURVE",
"100 310 CURVE SMOOTH",
"100 51 LINE SMOOTH",
"100 17 OFFCURVE",
"115 0 OFFCURVE",
"144 0 CURVE SMOOTH",
"469 0 LINE SMOOTH",
"584 0 OFFCURVE",
"548 150 OFFCURVE",
"601 150 CURVE SMOOTH",
"656 150 OFFCURVE",
"713 -8 OFFCURVE",
"816 -8 CURVE SMOOTH",
"878 -8 OFFCURVE",
"900 51 OFFCURVE",
"900 118 CURVE SMOOTH",
"900 813 LINE SMOOTH",
"900 847 OFFCURVE",
"885 864 OFFCURVE",
"856 864 CURVE SMOOTH",
"158 864 LINE SMOOTH",
"129 864 OFFCURVE",
"115 847 OFFCURVE",
"115 813 CURVE SMOOTH",
"115 648 LINE SMOOTH",
"115 614 OFFCURVE",
"129 594 OFFCURVE",
"158 594 CURVE SMOOTH",
"601 594 LINE SMOOTH",
"615 594 OFFCURVE",
"630 578 OFFCURVE",
"630 544 CURVE SMOOTH",
"630 510 OFFCURVE",
"615 494 OFFCURVE",
"601 494 CURVE SMOOTH"
);
},
{
closed = 1;
nodes = (
"340 314 OFFCURVE",
"369 334 OFFCURVE",
"398 334 CURVE SMOOTH",
"465 334 LINE SMOOTH",
"494 334 OFFCURVE",
"523 314 OFFCURVE",
"523 273 CURVE SMOOTH",
"523 242 LINE SMOOTH",
"523 202 OFFCURVE",
"494 182 OFFCURVE",
"465 182 CURVE SMOOTH",
"398 182 LINE SMOOTH",
"369 182 OFFCURVE",
"340 202 OFFCURVE",
"340 242 CURVE SMOOTH",
"340 273 LINE SMOOTH"
);
}
);
};
layerId = "7B6A6B4E-EFCA-423F-B1F3-F70C1AFA501E";
paths = (
{
closed = 1;
nodes = (
"108 594 LINE SMOOTH",
"78 594 OFFCURVE",
"65 614 OFFCURVE",
"65 648 CURVE SMOOTH",
"65 813 LINE SMOOTH",
"65 847 OFFCURVE",
"79 864 OFFCURVE",
"108 864 CURVE SMOOTH",
"806 864 LINE SMOOTH",
"835 864 OFFCURVE",
"850 847 OFFCURVE",
"850 813 CURVE SMOOTH",
"850 118 LINE SMOOTH",
"850 51 OFFCURVE",
"828 -8 OFFCURVE",
"766 -8 CURVE SMOOTH",
"735 -8 OFFCURVE",
"717 -7 OFFCURVE",
"693 19 CURVE",
"615 104 LINE",
"597 124 OFFCURVE",
"570 137 OFFCURVE",
"541 137 CURVE SMOOTH",
"486 137 OFFCURVE",
"441 92 OFFCURVE",
"441 37 CURVE SMOOTH",
"441 17 OFFCURVE",
"424 0 OFFCURVE",
"399 0 CURVE SMOOTH",
"94 0 LINE SMOOTH",
"65 0 OFFCURVE",
"50 17 OFFCURVE",
"50 51 CURVE SMOOTH",
"50 210 LINE SMOOTH",
"50 344 OFFCURVE",
"55 394 OFFCURVE",
"171 394 CURVE SMOOTH",
"492 394 LINE SMOOTH",
"548 394 OFFCURVE",
"592 438 OFFCURVE",
"592 494 CURVE SMOOTH",
"592 550 OFFCURVE",
"548 594 OFFCURVE",
"492 594 CURVE SMOOTH"
);
}
);
width = 900;
},
{
anchors = (
{
name = bottom;
position = "{450, 0}";
},
{
name = ogonek;
position = "{810, 10}";
},
{
name = top;
position = "{500, 864}";
}
);
background = {
paths = (
{
closed = 1;
nodes = (
"210 704 LINE",
"322 736 OFFCURVE",
"426 746 OFFCURVE",
"514 746 CURVE SMOOTH",
"662 746 OFFCURVE",
"700 713 OFFCURVE",
"700 603 CURVE SMOOTH",
"700 0 LINE",
"840 0 LINE",
"840 620 LINE SMOOTH",
"840 795 OFFCURVE",
"770 881 OFFCURVE",
"516 881 CURVE SMOOTH",
"424 881 OFFCURVE",
"319 871 OFFCURVE",
"210 852 CURVE"
);
},
{
closed = 1;
nodes = (
"533 -20 OFFCURVE",
"668 38 OFFCURVE",
"700 124 CURVE",
"700 252 LINE",
"645 166 OFFCURVE",
"528 115 OFFCURVE",
"407 115 CURVE SMOOTH",
"294 115 OFFCURVE",
"290 158 OFFCURVE",
"290 193 CURVE SMOOTH",
"290 226 LINE SMOOTH",
"290 255 OFFCURVE",
"297 265 OFFCURVE",
"385 303 CURVE SMOOTH",
"739 456 LINE",
"739 591 LINE",
"382 450 LINE SMOOTH",
"186 373 OFFCURVE",
"150 334 OFFCURVE",
"150 256 CURVE SMOOTH",
"150 152 LINE SMOOTH",
"150 27 OFFCURVE",
"244 -20 OFFCURVE",
"380 -20 CURVE SMOOTH"
);
}
);
};
layerId = "75A0A031-BEAD-45F4-8089-5B3FA8FFE7DC";
paths = (
{
closed = 1;
nodes = (
"330 494 LINE SMOOTH",
"194 494 OFFCURVE",
"120 426 OFFCURVE",
"120 302 CURVE SMOOTH",
"120 191 LINE SMOOTH",
"120 47 OFFCURVE",
"165 0 OFFCURVE",
"344 0 CURVE SMOOTH",
"649 0 LINE SMOOTH",
"724 0 OFFCURVE",
"701 75 OFFCURVE",
"730 75 CURVE SMOOTH",
"760 75 OFFCURVE",
"780 -8 OFFCURVE",
"839 -8 CURVE SMOOTH",
"879 -8 OFFCURVE",
"880 31 OFFCURVE",
"880 48 CURVE SMOOTH",
"880 567 LINE SMOOTH",
"880 777 OFFCURVE",
"866 864 OFFCURVE",
"547 864 CURVE SMOOTH",
"163 864 LINE SMOOTH",
"134 864 OFFCURVE",
"120 847 OFFCURVE",
"120 812 CURVE SMOOTH",
"120 784 LINE SMOOTH",
"120 749 OFFCURVE",
"134 729 OFFCURVE",
"163 729 CURVE SMOOTH",
"543 729 LINE SMOOTH",
"698 729 OFFCURVE",
"732 704 OFFCURVE",
"732 569 CURVE SMOOTH",
"732 500 OFFCURVE",
"724 494 OFFCURVE",
"675 494 CURVE SMOOTH"
);
},
{
closed = 1;
nodes = (
"270 361 OFFCURVE",
"299 381 OFFCURVE",
"328 381 CURVE SMOOTH",
"672 381 LINE SMOOTH",
"701 381 OFFCURVE",
"730 361 OFFCURVE",
"730 320 CURVE SMOOTH",
"730 183 LINE SMOOTH",
"730 143 OFFCURVE",
"704 123 OFFCURVE",
"675 123 CURVE SMOOTH",
"348 123 LINE SMOOTH",
"289 123 OFFCURVE",
"270 153 OFFCURVE",
"270 203 CURVE SMOOTH",
"270 320 LINE SMOOTH"
);
}
);
width = 1000;
}
);
unicode = 0061;
},
{
glyphname = ae;
lastChange = "2020-04-22 03:25:29 +0000";
layers = (
{
layerId = "7B6A6B4E-EFCA-423F-B1F3-F70C1AFA501E";
paths = (
{
closed = 1;
nodes = (
"162 0 LINE",
"386 691 LINE SMOOTH",
"393 712 OFFCURVE",
"410 729 OFFCURVE",
"428 729 CURVE SMOOTH",
"528 729 LINE",
"529 864 LINE",
"421 864 LINE SMOOTH",
"347 864 OFFCURVE",
"288 831 OFFCURVE",
"268 771 CURVE SMOOTH",
"10 0 LINE"
);
},
{
closed = 1;
nodes = (
"980 0 LINE",
"980 135 LINE",
"650 135 LINE",
"650 344 LINE",
"980 344 LINE",
"980 474 LINE",
"650 474 LINE",
"650 729 LINE",
"980 729 LINE",
"980 864 LINE",
"510 864 LINE",
"510 0 LINE"
);
},
{
closed = 1;
nodes = (
"180 344 LINE",
"530 344 LINE",
"530 474 LINE",
"180 474 LINE"
);
}
);
width = 1000;
},
{
layerId = "75A0A031-BEAD-45F4-8089-5B3FA8FFE7DC";
paths = (
{
closed = 1;
nodes = (
"52 0 LINE",
"356 765 LINE SMOOTH",
"378 821 OFFCURVE",
"420 837 OFFCURVE",
"478 837 CURVE SMOOTH",
"548 837 LINE",
"549 864 LINE",
"479 864 LINE SMOOTH",
"405 864 OFFCURVE",
"350 831 OFFCURVE",
"326 771 CURVE SMOOTH",
"20 0 LINE"
);
},
{
closed = 1;
nodes = (
"980 0 LINE",
"980 27 LINE",
"560 27 LINE",
"560 371 LINE",
"940 371 LINE",
"940 398 LINE",
"560 398 LINE",
"560 837 LINE",
"940 837 LINE",
"940 864 LINE",
"530 864 LINE",
"530 0 LINE"
);
},
{
closed = 1;
nodes = (
"180 371 LINE",
"550 371 LINE",
"550 398 LINE",
"180 398 LINE"
);
}
);
width = 1000;
}
);
unicode = 00E6;
},
{
glyphname = b;
lastChange = "2023-05-22 01:37:44 +0000";
layers = (
{
background = {
paths = (
{
closed = 1;
nodes = (
"910 712 OFFCURVE",
"770 874 OFFCURVE",
"542 874 CURVE SMOOTH",
"435 874 OFFCURVE",
"353 838 OFFCURVE",
"300 782 CURVE",
"300 650 LINE",
"347 707 OFFCURVE",
"417 739 OFFCURVE",
"500 739 CURVE SMOOTH",
"652 739 OFFCURVE",
"768 632 OFFCURVE",
"768 460 CURVE SMOOTH",
"768 282 OFFCURVE",
"645 115 OFFCURVE",
"300 115 CURVE",
"300 1152 LINE",
"160 1152 LINE",
"160 -20 LINE",
"300 -20 LINE SMOOTH",
"751 -20 OFFCURVE",
"910 200 OFFCURVE",
"910 462 CURVE SMOOTH"
);
},
{
closed = 1;
nodes = (
"153 0 LINE",
"114 0 OFFCURVE",
"100 16 OFFCURVE",
"100 52 CURVE SMOOTH",
"100 250 LINE SMOOTH",
"100 284 OFFCURVE",
"113 304 OFFCURVE",
"143 304 CURVE SMOOTH",
"527 304 LINE SMOOTH",
"583 304 OFFCURVE",
"627 348 OFFCURVE",
"627 404 CURVE SMOOTH",
"627 460 OFFCURVE",
"583 504 OFFCURVE",
"527 504 CURVE SMOOTH",
"143 504 LINE SMOOTH",
"113 504 OFFCURVE",
"100 524 OFFCURVE",
"100 558 CURVE SMOOTH",
"100 992 LINE SMOOTH",
"100 1028 OFFCURVE",
"114 1044 OFFCURVE",
"153 1044 CURVE SMOOTH",
"347 1044 LINE SMOOTH",
"386 1044 OFFCURVE",
"400 1028 OFFCURVE",
"400 992 CURVE SMOOTH",
"399 829 LINE SMOOTH",
"399 774 OFFCURVE",
"444 729 OFFCURVE",
"499 729 CURVE SMOOTH",
"528 729 OFFCURVE",
"555 742 OFFCURVE",
"573 762 CURVE",
"631 837 LINE",
"655 863 OFFCURVE",
"673 864 OFFCURVE",
"704 864 CURVE SMOOTH",
"820 864 LINE SMOOTH",
"921 864 OFFCURVE",
"898 797 OFFCURVE",
"898 688 CURVE SMOOTH",
"898 172 LINE SMOOTH",
"898 38 OFFCURVE",
"863 0 OFFCURVE",
"733 0 CURVE SMOOTH"
);
}
);
};
hints = (
{
place = "{232, 858}";
type = Stem;
}
);
layerId = "7B6A6B4E-EFCA-423F-B1F3-F70C1AFA501E";
paths = (
{
closed = 1;
nodes = (
"683 0 LINE",
"814 0 OFFCURVE",
"848 38 OFFCURVE",
"848 172 CURVE SMOOTH",
"848 688 LINE SMOOTH",
"848 797 OFFCURVE",
"871 864 OFFCURVE",
"770 864 CURVE SMOOTH",
"449 864 LINE SMOOTH",
"394 864 OFFCURVE",
"347 909 OFFCURVE",
"349 964 CURVE SMOOTH",
"350 992 LINE SMOOTH",
"351 1028 OFFCURVE",
"336 1044 OFFCURVE",
"297 1044 CURVE SMOOTH",
"103 1044 LINE SMOOTH",
"64 1044 OFFCURVE",
"50 1028 OFFCURVE",
"50 992 CURVE SMOOTH",
"50 648 LINE SMOOTH",
"50 614 OFFCURVE",
"63 594 OFFCURVE",
"93 594 CURVE SMOOTH",
"477 594 LINE SMOOTH",
"533 594 OFFCURVE",
"577 550 OFFCURVE",
"577 494 CURVE SMOOTH",
"577 438 OFFCURVE",
"533 394 OFFCURVE",
"477 394 CURVE SMOOTH",
"93 394 LINE SMOOTH",
"63 394 OFFCURVE",
"50 374 OFFCURVE",
"50 340 CURVE SMOOTH",
"50 52 LINE SMOOTH",
"50 16 OFFCURVE",
"64 0 OFFCURVE",
"103 0 CURVE"
);
}
);
width = 900;
},
{
background = {
paths = (
{
closed = 1;
nodes = (
"910 712 OFFCURVE",
"770 874 OFFCURVE",
"542 874 CURVE SMOOTH",
"435 874 OFFCURVE",
"353 838 OFFCURVE",
"300 782 CURVE",
"300 650 LINE",
"347 707 OFFCURVE",
"417 739 OFFCURVE",
"500 739 CURVE SMOOTH",
"652 739 OFFCURVE",
"768 632 OFFCURVE",
"768 460 CURVE SMOOTH",
"768 282 OFFCURVE",
"645 115 OFFCURVE",
"300 115 CURVE",
"300 1152 LINE",
"160 1152 LINE",
"160 -20 LINE",
"300 -20 LINE SMOOTH",
"751 -20 OFFCURVE",
"910 200 OFFCURVE",
"910 462 CURVE SMOOTH"
);
}
);
};
hints = (
{
origin = "{1, 6}";
target = "{0, 3}";
type = Stem;
}
);
layerId = "75A0A031-BEAD-45F4-8089-5B3FA8FFE7DC";
paths = (
{
closed = 1;
nodes = (
"518 -10 LINE SMOOTH",
"771 -10 OFFCURVE",
"910 213 OFFCURVE",
"910 462 CURVE SMOOTH",
"910 712 OFFCURVE",
"770 874 OFFCURVE",
"558 874 CURVE SMOOTH",
"395 874 OFFCURVE",
"222 776 OFFCURVE",
"180 590 CURVE",
"180 1152 LINE",
"150 1152 LINE",
"150 -10 LINE"
);
},
{
closed = 1;
nodes = (
"180 432 LINE SMOOTH",
"180 766 OFFCURVE",
"417 847 OFFCURVE",
"557 847 CURVE SMOOTH",
"752 847 OFFCURVE",
"877 694 OFFCURVE",
"877 460 CURVE SMOOTH",
"877 231 OFFCURVE",
"751 17 OFFCURVE",
"518 17 CURVE SMOOTH",
"180 17 LINE"
);
}
);
width = 1000;
}
);
unicode = 0062;
},
{
glyphname = c;
lastChange = "2023-05-22 01:37:47 +0000";
layers = (
{
anchors = (
{
name = bottom;
position = "{450, 0}";
},
{
name = top;
position = "{540, 864}";
}
);
background = {
paths = (
{
closed = 1;
nodes = (
"757 -30 OFFCURVE",
"930 146 OFFCURVE",
"930 430 CURVE SMOOTH",
"930 714 OFFCURVE",
"757 890 OFFCURVE",
"500 890 CURVE SMOOTH",
"243 890 OFFCURVE",
"70 714 OFFCURVE",
"70 430 CURVE SMOOTH",
"70 146 OFFCURVE",
"243 -30 OFFCURVE",
"500 -30 CURVE SMOOTH"
);
},
{
closed = 1;
nodes = (
"341 150 OFFCURVE",
"230 262 OFFCURVE",
"230 430 CURVE SMOOTH",
"230 598 OFFCURVE",
"341 710 OFFCURVE",
"500 710 CURVE SMOOTH",
"659 710 OFFCURVE",
"770 598 OFFCURVE",
"770 430 CURVE SMOOTH",
"770 262 OFFCURVE",
"659 150 OFFCURVE",
"500 150 CURVE SMOOTH"
);
}
);
};
layerId = "7B6A6B4E-EFCA-423F-B1F3-F70C1AFA501E";
paths = (
{
closed = 1;
nodes = (
"350 494 LINE SMOOTH",
"350 549 OFFCURVE",
"395 594 OFFCURVE",
"450 594 CURVE SMOOTH",
"783 594 LINE SMOOTH",
"827 594 OFFCURVE",
"850 617 OFFCURVE",
"850 663 CURVE SMOOTH",
"850 795 LINE SMOOTH",
"850 841 OFFCURVE",
"827 864 OFFCURVE",
"783 864 CURVE",
"303 864 LINE",
"164 864 OFFCURVE",
"50 758 OFFCURVE",
"50 632 CURVE SMOOTH",
"50 260 LINE SMOOTH",
"50 235 OFFCURVE",
"59 213 OFFCURVE",
"75 197 CURVE SMOOTH",
"245 27 LINE SMOOTH",
"270 2 OFFCURVE",
"288 0 OFFCURVE",
"318 0 CURVE SMOOTH",
"807 0 LINE SMOOTH",
"836 0 OFFCURVE",
"850 17 OFFCURVE",
"850 52 CURVE SMOOTH",
"850 250 LINE SMOOTH",
"850 279 OFFCURVE",
"836 300 OFFCURVE",
"800 300 CURVE SMOOTH",
"450 300 LINE SMOOTH",
"395 300 OFFCURVE",
"350 345 OFFCURVE",
"350 400 CURVE SMOOTH"
);
}
);
width = 900;
},
{
anchors = (
{
name = bottom;
position = "{540, 0}";
},
{
name = top;
position = "{500, 900}";
}
);
background = {
paths = (
{
closed = 1;
nodes = (
"757 -30 OFFCURVE",
"930 146 OFFCURVE",
"930 430 CURVE SMOOTH",
"930 714 OFFCURVE",
"757 890 OFFCURVE",
"500 890 CURVE SMOOTH",
"243 890 OFFCURVE",
"70 714 OFFCURVE",
"70 430 CURVE SMOOTH",
"70 146 OFFCURVE",
"243 -30 OFFCURVE",
"500 -30 CURVE SMOOTH"
);
},
{
closed = 1;
nodes = (
"341 150 OFFCURVE",
"230 262 OFFCURVE",
"230 430 CURVE SMOOTH",
"230 598 OFFCURVE",
"341 710 OFFCURVE",
"500 710 CURVE SMOOTH",
"659 710 OFFCURVE",
"770 598 OFFCURVE",
"770 430 CURVE SMOOTH",
"770 262 OFFCURVE",
"659 150 OFFCURVE",
"500 150 CURVE SMOOTH"
);
}
);
};
layerId = "75A0A031-BEAD-45F4-8089-5B3FA8FFE7DC";
paths = (
{
closed = 1;
nodes = (
"880 802 LINE",
"806 858 OFFCURVE",
"692 884 OFFCURVE",
"589 884 CURVE SMOOTH",
"318 884 OFFCURVE",
"120 697 OFFCURVE",
"120 432 CURVE SMOOTH",
"120 166 OFFCURVE",
"318 -20 OFFCURVE",
"581 -20 CURVE SMOOTH",
"697 -20 OFFCURVE",
"818 16 OFFCURVE",
"880 73 CURVE",
"862 96 LINE",
"814 44 OFFCURVE",
"690 6 OFFCURVE",
"581 6 CURVE SMOOTH",
"344 6 OFFCURVE",
"153 186 OFFCURVE",
"153 432 CURVE SMOOTH",
"153 671 OFFCURVE",
"330 857 OFFCURVE",
"589 857 CURVE SMOOTH",
"691 857 OFFCURVE",
"808 828 OFFCURVE",
"863 784 CURVE"
);
}
);
width = 1000;
}
);
unicode = 0063;
},
{
glyphname = d;
lastChange = "2023-05-22 01:37:50 +0000";
layers = (
{
anchors = (
{
name = bottom;
position = "{450, 0}";
},
{
name = center;
position = "{610, 1044}";
},
{
name = top;
position = "{946, 1022}";
},
{
name = topright;
position = "{950, 1152}";
}
);
background = {
paths = (
{
closed = 1;
nodes = (
"700 1144 LINE",
"700 0 LINE",
"840 0 LINE",
"840 1144 LINE"
);
},
{
closed = 1;
nodes = (
"354 832 OFFCURVE",
"90 662 OFFCURVE",
"90 318 CURVE SMOOTH",
"90 67 OFFCURVE",
"234 -10 OFFCURVE",
"377 -10 CURVE SMOOTH",
"482 -10 OFFCURVE",
"588 32 OFFCURVE",
"690 108 CURVE",
"700 108 LINE",
"700 273 LINE",
"629 206 OFFCURVE",
"492 125 OFFCURVE",
"380 125 CURVE SMOOTH",
"277 125 OFFCURVE",
"235 193 OFFCURVE",
"235 320 CURVE SMOOTH",
"235 574 OFFCURVE",
"399 699 OFFCURVE",
"700 759 CURVE",
"700 894 LINE"
);
}
);
};
hints = (
{
place = "{90, 145}";
type = Stem;
},
{
horizontal = 1;
place = "{-24, 140}";
type = Stem;
},
{
horizontal = 1;
origin = "{0, 30}";
place = "{864, 140}";
type = Stem;
}
);
layerId = "7B6A6B4E-EFCA-423F-B1F3-F70C1AFA501E";
paths = (
{
closed = 1;
nodes = (
"836 0 OFFCURVE",
"850 16 OFFCURVE",
"850 52 CURVE SMOOTH",
"850 340 LINE SMOOTH",
"850 374 OFFCURVE",
"837 394 OFFCURVE",
"807 394 CURVE SMOOTH",
"423 394 LINE SMOOTH",
"367 394 OFFCURVE",
"323 438 OFFCURVE",
"323 494 CURVE SMOOTH",
"323 550 OFFCURVE",
"367 594 OFFCURVE",
"423 594 CURVE SMOOTH",
"807 594 LINE SMOOTH",
"837 594 OFFCURVE",
"850 614 OFFCURVE",
"850 648 CURVE SMOOTH",
"850 992 LINE SMOOTH",
"850 1028 OFFCURVE",
"836 1044 OFFCURVE",
"797 1044 CURVE SMOOTH",
"603 1044 LINE SMOOTH",
"564 1044 OFFCURVE",
"549 1028 OFFCURVE",
"550 992 CURVE SMOOTH",
"551 964 LINE SMOOTH",
"553 909 OFFCURVE",
"506 864 OFFCURVE",
"451 864 CURVE SMOOTH",
"130 864 LINE SMOOTH",
"29 864 OFFCURVE",
"52 797 OFFCURVE",
"52 688 CURVE SMOOTH",
"52 172 LINE SMOOTH",
"52 38 OFFCURVE",
"86 0 OFFCURVE",
"217 0 CURVE SMOOTH",
"285 0 LINE SMOOTH",
"316 0 OFFCURVE",
"334 1 OFFCURVE",
"358 27 CURVE",
"436 119 LINE",
"454 139 OFFCURVE",
"481 152 OFFCURVE",
"510 152 CURVE SMOOTH",
"565 152 OFFCURVE",
"612 107 OFFCURVE",
"610 52 CURVE SMOOTH",
"610 16 OFFCURVE",
"624 0 OFFCURVE",
"663 0 CURVE SMOOTH",
"797 0 LINE"
);
}
);
width = 900;
},
{
anchors = (
{
name = bottom;
position = "{500, 0}";
},
{
name = center;
position = "{660, 1044}";
},
{
name = top;
position = "{500, 1280}";
},
{
name = topright;
position = "{1000, 1152}";
}
);
background = {
paths = (
{
closed = 1;
nodes = (
"700 1144 LINE",
"700 0 LINE",
"840 0 LINE",
"840 1144 LINE"
);
},
{
closed = 1;
nodes = (
"354 832 OFFCURVE",
"90 662 OFFCURVE",
"90 318 CURVE SMOOTH",
"90 67 OFFCURVE",
"234 -10 OFFCURVE",
"377 -10 CURVE SMOOTH",
"482 -10 OFFCURVE",
"588 32 OFFCURVE",
"690 108 CURVE",
"700 108 LINE",
"700 273 LINE",
"629 206 OFFCURVE",
"492 125 OFFCURVE",
"380 125 CURVE SMOOTH",
"277 125 OFFCURVE",
"235 193 OFFCURVE",
"235 320 CURVE SMOOTH",
"235 574 OFFCURVE",
"399 699 OFFCURVE",
"700 759 CURVE",
"700 894 LINE"
);
}
);
};
hints = (
{
place = "{90, 33}";
type = Stem;
},
{
horizontal = 1;
place = "{-24, 27}";
type = Stem;
},
{
horizontal = 1;
place = "{892, 27}";
type = Stem;
}
);
layerId = "75A0A031-BEAD-45F4-8089-5B3FA8FFE7DC";
paths = (
{
closed = 1;
nodes = (
"880 992 LINE SMOOTH",
"880 1028 OFFCURVE",
"866 1044 OFFCURVE",
"827 1044 CURVE SMOOTH",
"783 1044 LINE SMOOTH",
"744 1044 OFFCURVE",
"730 1028 OFFCURVE",
"730 992 CURVE SMOOTH",
"731 806 LINE SMOOTH",
"731 791 OFFCURVE",
"725 778 OFFCURVE",
"709 778 CURVE SMOOTH",
"690 778 OFFCURVE",
"676 798 OFFCURVE",
"666 812 CURVE SMOOTH",
"656 825 LINE SMOOTH",
"635 853 OFFCURVE",
"623 864 OFFCURVE",
"551 864 CURVE SMOOTH",
"417 864 LINE SMOOTH",
"216 864 OFFCURVE",
"120 757 OFFCURVE",
"120 558 CURVE SMOOTH",
"120 326 LINE SMOOTH",
"120 57 OFFCURVE",
"197 0 OFFCURVE",
"468 0 CURVE SMOOTH",
"649 0 LINE SMOOTH",
"724 0 OFFCURVE",
"701 75 OFFCURVE",
"730 75 CURVE SMOOTH",
"760 75 OFFCURVE",
"780 -8 OFFCURVE",
"839 -8 CURVE SMOOTH",
"879 -8 OFFCURVE",
"880 31 OFFCURVE",
"880 48 CURVE SMOOTH"
);
},
{
closed = 1;
nodes = (
"730 213 LINE SMOOTH",
"730 161 OFFCURVE",
"706 135 OFFCURVE",
"671 135 CURVE SMOOTH",
"469 135 LINE SMOOTH",
"315 135 OFFCURVE",
"270 191 OFFCURVE",
"270 343 CURVE SMOOTH",
"270 561 LINE SMOOTH",
"270 663 OFFCURVE",
"325 729 OFFCURVE",
"419 729 CURVE SMOOTH",
"661 729 LINE SMOOTH",
"696 729 OFFCURVE",
"730 703 OFFCURVE",
"730 651 CURVE SMOOTH"
);
}
);
width = 1000;
}
);
unicode = 0064;
},
{
glyphname = eth;
lastChange = "2023-05-22 01:56:22 +0000";
layers = (
{
background = {
paths = (
{
closed = 1;
nodes = (
"207 35 LINE",
"362 0 LINE",
"606 0 LINE",
"812 40 LINE",
"824 412 LINE",
"801 705 LINE",
"660 768 LINE",
"439 768 LINE",
"207 727 LINE",
"176 382 LINE"
);
},
{
closed = 1;
nodes = (
"314 636 LINE",
"456 657 LINE",
"634 657 LINE",
"694 633 LINE",
"695 123 LINE",
"601 111 LINE",
"437 111 LINE",
"314 143 LINE"
);
}
);
};
components = (
{
name = d;
},
{
name = strokeshortcomb;
transform = "{1, 0, 0, 1, 110, 544}";
}
);
layerId = "7B6A6B4E-EFCA-423F-B1F3-F70C1AFA501E";
width = 900;
},
{
background = {
paths = (
{
closed = 1;
nodes = (
"207 35 LINE",
"362 0 LINE",
"606 0 LINE",
"812 40 LINE",
"824 412 LINE",
"801 705 LINE",
"660 768 LINE",
"439 768 LINE",
"207 727 LINE",
"176 382 LINE"
);
},
{
closed = 1;
nodes = (
"314 636 LINE",
"456 657 LINE",
"634 657 LINE",
"694 633 LINE",
"695 123 LINE",
"601 111 LINE",
"437 111 LINE",
"314 143 LINE"
);
}
);
};
components = (
{
name = d;
},
{
name = strokeshortcomb;
transform = "{1, 0, 0, 1, 160, 544}";
}
);
layerId = "75A0A031-BEAD-45F4-8089-5B3FA8FFE7DC";
width = 1000;
}
);
unicode = 00F0;
},
{
glyphname = e;
lastChange = "2023-05-22 01:37:54 +0000";
layers = (
{
anchors = (
{
name = bottom;
position = "{450, 0}";
},
{
name = ogonek;
position = "{777, 40}";
},
{
name = top;
position = "{450, 900}";
}
);
background = {
paths = (
{
closed = 1;
nodes = (
"487 884 OFFCURVE",
"312 826 OFFCURVE",
"280 740 CURVE",
"280 612 LINE",
"335 698 OFFCURVE",
"492 749 OFFCURVE",
"619 749 CURVE SMOOTH",
"736 749 OFFCURVE",
"740 706 OFFCURVE",
"740 671 CURVE SMOOTH",
"740 659 LINE SMOOTH",
"740 630 OFFCURVE",
"732 620 OFFCURVE",
"635 582 CURVE SMOOTH",
"241 429 LINE",
"241 292 LINE",
"687 463 LINE SMOOTH",
"841 522 OFFCURVE",
"880 551 OFFCURVE",
"880 629 CURVE SMOOTH",
"880 712 LINE SMOOTH",
"880 837 OFFCURVE",
"786 884 OFFCURVE",
"645 884 CURVE SMOOTH"
);
},
{
closed = 1;
nodes = (
"880 828 LINE",
"816 858 OFFCURVE",
"722 884 OFFCURVE",
"623 884 CURVE SMOOTH",
"360 884 OFFCURVE",
"150 697 OFFCURVE",
"150 432 CURVE SMOOTH",
"150 166 OFFCURVE",
"358 -20 OFFCURVE",
"611 -20 CURVE SMOOTH",
"727 -20 OFFCURVE",
"818 16 OFFCURVE",
"880 63 CURVE",
"880 199 LINE",
"819 159 OFFCURVE",
"720 118 OFFCURVE",
"621 118 CURVE SMOOTH",
"436 118 OFFCURVE",
"292 261 OFFCURVE",
"292 435 CURVE SMOOTH",
"292 608 OFFCURVE",
"438 746 OFFCURVE",
"623 746 CURVE SMOOTH",
"723 746 OFFCURVE",
"823 706 OFFCURVE",
"880 673 CURVE"
);
}
);
};
hints = (
{
horizontal = 1;
place = "{884, 138}";
type = Stem;
},
{
place = "{100, 140}";
type = Stem;
},
{
place = "{760, 140}";
type = Stem;
},
{
horizontal = 1;
place = "{-20, 136}";
type = Stem;
}
);
layerId = "7B6A6B4E-EFCA-423F-B1F3-F70C1AFA501E";
paths = (
{
closed = 1;
nodes = (
"72 864 OFFCURVE",
"50 805 OFFCURVE",
"50 738 CURVE SMOOTH",
"50 260 LINE SMOOTH",
"50 235 OFFCURVE",
"59 213 OFFCURVE",
"75 197 CURVE SMOOTH",
"245 27 LINE SMOOTH",
"270 2 OFFCURVE",
"288 0 OFFCURVE",
"318 0 CURVE SMOOTH",
"792 0 LINE SMOOTH",
"821 0 OFFCURVE",
"835 17 OFFCURVE",
"835 51 CURVE SMOOTH",
"835 208 LINE SMOOTH",
"835 242 OFFCURVE",
"822 262 OFFCURVE",
"792 262 CURVE SMOOTH",
"408 262 LINE SMOOTH",
"352 262 OFFCURVE",
"308 306 OFFCURVE",
"308 362 CURVE SMOOTH",
"308 418 OFFCURVE",
"352 462 OFFCURVE",
"408 462 CURVE SMOOTH",
"729 462 LINE SMOOTH",
"845 462 OFFCURVE",
"850 520 OFFCURVE",
"850 654 CURVE SMOOTH",
"850 813 LINE SMOOTH",
"850 847 OFFCURVE",
"835 864 OFFCURVE",
"806 864 CURVE",
"579 864 LINE SMOOTH",
"545 864 OFFCURVE",
"525 851 OFFCURVE",
"525 821 CURVE SMOOTH",
"525 763 LINE SMOOTH",
"525 707 OFFCURVE",
"481 663 OFFCURVE",
"425 663 CURVE SMOOTH",
"369 663 OFFCURVE",
"325 707 OFFCURVE",
"325 763 CURVE SMOOTH",
"325 821 LINE SMOOTH",
"325 851 OFFCURVE",
"305 864 OFFCURVE",
"271 864 CURVE SMOOTH",
"134 864 LINE"
);
}
);
width = 900;
},
{
anchors = (
{
name = bottom;
position = "{500, 0}";
},
{
name = ogonek;
position = "{827, 40}";
},
{
name = top;
position = "{500, 900}";
}
);
background = {
paths = (
{
closed = 1;
nodes = (
"487 884 OFFCURVE",
"312 826 OFFCURVE",
"280 740 CURVE",
"280 612 LINE",
"335 698 OFFCURVE",
"492 749 OFFCURVE",
"619 749 CURVE SMOOTH",
"736 749 OFFCURVE",
"740 706 OFFCURVE",
"740 671 CURVE SMOOTH",
"740 659 LINE SMOOTH",
"740 630 OFFCURVE",
"732 620 OFFCURVE",
"635 582 CURVE SMOOTH",
"241 429 LINE",
"241 292 LINE",
"687 463 LINE SMOOTH",
"841 522 OFFCURVE",
"880 551 OFFCURVE",
"880 629 CURVE SMOOTH",
"880 712 LINE SMOOTH",
"880 837 OFFCURVE",
"786 884 OFFCURVE",
"645 884 CURVE SMOOTH"
);
},
{
closed = 1;
nodes = (
"880 828 LINE",
"816 858 OFFCURVE",
"722 884 OFFCURVE",
"623 884 CURVE SMOOTH",
"360 884 OFFCURVE",
"150 697 OFFCURVE",
"150 432 CURVE SMOOTH",
"150 166 OFFCURVE",
"358 -20 OFFCURVE",
"611 -20 CURVE SMOOTH",
"727 -20 OFFCURVE",
"818 16 OFFCURVE",
"880 63 CURVE",
"880 199 LINE",
"819 159 OFFCURVE",
"720 118 OFFCURVE",
"621 118 CURVE SMOOTH",
"436 118 OFFCURVE",
"292 261 OFFCURVE",
"292 435 CURVE SMOOTH",
"292 608 OFFCURVE",
"438 746 OFFCURVE",
"623 746 CURVE SMOOTH",
"723 746 OFFCURVE",
"823 706 OFFCURVE",
"880 673 CURVE"
);
}
);
};
hints = (
{
horizontal = 1;
place = "{884, 27}";
type = Stem;
},
{
place = "{100, 32}";
type = Stem;
},
{
place = "{867, 33}";
type = Stem;
},
{
horizontal = 1;
place = "{-20, 30}";
type = Stem;
}
);
layerId = "75A0A031-BEAD-45F4-8089-5B3FA8FFE7DC";
paths = (
{
closed = 1;
nodes = (
"156 864 OFFCURVE",
"121 826 OFFCURVE",
"121 692 CURVE SMOOTH",
"120 322 LINE SMOOTH",
"119 97 OFFCURVE",
"314 0 OFFCURVE",
"533 0 CURVE SMOOTH",
"837 0 LINE SMOOTH",
"866 0 OFFCURVE",
"880 17 OFFCURVE",
"880 52 CURVE SMOOTH",
"880 80 LINE SMOOTH",
"880 115 OFFCURVE",
"866 135 OFFCURVE",
"837 135 CURVE SMOOTH",
"537 135 LINE SMOOTH",
"422 135 OFFCURVE",
"268 170 OFFCURVE",
"268 320 CURVE SMOOTH",
"268 354 OFFCURVE",
"276 370 OFFCURVE",
"315 370 CURVE SMOOTH",
"680 370 LINE SMOOTH",
"827 370 OFFCURVE",
"880 422 OFFCURVE",
"880 550 CURVE SMOOTH",
"880 692 LINE SMOOTH",
"880 826 OFFCURVE",
"835 864 OFFCURVE",
"685 864 CURVE SMOOTH",
"286 864 LINE"
);
},
{
closed = 1;
nodes = (
"730 514 OFFCURVE",
"700 493 OFFCURVE",
"650 493 CURVE SMOOTH",
"331 493 LINE SMOOTH",
"301 493 OFFCURVE",
"271 514 OFFCURVE",
"271 556 CURVE SMOOTH",
"271 678 LINE SMOOTH",
"271 720 OFFCURVE",
"301 741 OFFCURVE",
"331 741 CURVE SMOOTH",
"650 741 LINE SMOOTH",
"700 741 OFFCURVE",
"730 720 OFFCURVE",
"730 678 CURVE SMOOTH",
"730 556 LINE SMOOTH"
);
}
);
width = 1000;
}
);
unicode = 0065;
},
{
glyphname = f;
lastChange = "2023-05-22 01:37:56 +0000";
layers = (
{
background = {
paths = (
{
closed = 1;
nodes = (
"330 674 LINE SMOOTH",
"330 619 OFFCURVE",
"285 574 OFFCURVE",
"230 574 CURVE SMOOTH",
"167 574 LINE SMOOTH",
"123 574 OFFCURVE",
"100 551 OFFCURVE",
"100 505 CURVE SMOOTH",
"100 373 LINE SMOOTH",
"100 327 OFFCURVE",
"123 304 OFFCURVE",
"167 304 CURVE SMOOTH",
"230 304 LINE SMOOTH",
"285 304 OFFCURVE",
"330 259 OFFCURVE",
"330 204 CURVE SMOOTH",
"330 52 LINE SMOOTH",
"330 16 OFFCURVE",
"344 0 OFFCURVE",
"383 0 CURVE SMOOTH",
"547 0 LINE SMOOTH",
"586 0 OFFCURVE",
"600 16 OFFCURVE",
"600 52 CURVE SMOOTH",
"600 204 LINE SMOOTH",
"600 259 OFFCURVE",
"645 304 OFFCURVE",
"700 304 CURVE SMOOTH",
"833 304 LINE SMOOTH",
"877 304 OFFCURVE",
"900 327 OFFCURVE",
"900 373 CURVE SMOOTH",
"900 505 LINE SMOOTH",
"900 551 OFFCURVE",
"877 574 OFFCURVE",
"833 574 CURVE SMOOTH",
"700 574 LINE SMOOTH",
"645 574 OFFCURVE",
"600 619 OFFCURVE",
"600 674 CURVE SMOOTH",
"600 729 OFFCURVE",
"645 774 OFFCURVE",
"700 774 CURVE SMOOTH",
"850 774 LINE SMOOTH",
"886 774 OFFCURVE",
"900 795 OFFCURVE",
"900 824 CURVE SMOOTH",
"900 992 LINE SMOOTH",
"900 1027 OFFCURVE",
"886 1044 OFFCURVE",
"857 1044 CURVE SMOOTH",
"383 1044 LINE SMOOTH",
"344 1044 OFFCURVE",
"330 1028 OFFCURVE",
"330 992 CURVE SMOOTH"
);
}
);
};
layerId = "7B6A6B4E-EFCA-423F-B1F3-F70C1AFA501E";
paths = (
{
closed = 1;
nodes = (
"280 16 OFFCURVE",
"294 0 OFFCURVE",
"333 0 CURVE SMOOTH",
"497 0 LINE SMOOTH",
"536 0 OFFCURVE",
"550 16 OFFCURVE",
"550 52 CURVE SMOOTH",
"550 174 LINE SMOOTH",
"550 229 OFFCURVE",
"595 274 OFFCURVE",
"650 274 CURVE SMOOTH",
"783 274 LINE SMOOTH",
"827 274 OFFCURVE",
"850 297 OFFCURVE",
"850 343 CURVE SMOOTH",
"850 475 LINE SMOOTH",
"850 521 OFFCURVE",
"827 544 OFFCURVE",
"783 544 CURVE SMOOTH",
"650 544 LINE SMOOTH",
"595 544 OFFCURVE",
"550 589 OFFCURVE",
"550 644 CURVE SMOOTH",
"550 699 OFFCURVE",
"595 744 OFFCURVE",
"650 744 CURVE SMOOTH",
"800 744 LINE SMOOTH",
"836 744 OFFCURVE",
"850 765 OFFCURVE",
"850 794 CURVE SMOOTH",
"850 992 LINE SMOOTH",
"850 1027 OFFCURVE",
"836 1044 OFFCURVE",
"807 1044 CURVE SMOOTH",
"478 1044 LINE SMOOTH",
"448 1044 OFFCURVE",
"431 1043 OFFCURVE",
"405 1017 CURVE SMOOTH",
"305 917 LINE SMOOTH",
"289 901 OFFCURVE",
"280 879 OFFCURVE",
"280 854 CURVE SMOOTH",
"280 644 LINE SMOOTH",
"280 589 OFFCURVE",
"235 544 OFFCURVE",
"180 544 CURVE SMOOTH",
"117 544 LINE SMOOTH",
"73 544 OFFCURVE",
"50 521 OFFCURVE",
"50 475 CURVE SMOOTH",
"50 343 LINE SMOOTH",
"50 297 OFFCURVE",
"73 274 OFFCURVE",
"117 274 CURVE SMOOTH",
"180 274 LINE SMOOTH",
"235 274 OFFCURVE",
"280 229 OFFCURVE",
"280 174 CURVE SMOOTH",
"280 52 LINE SMOOTH"
);
}
);
width = 900;
},
{
background = {
paths = (
{
closed = 1;
nodes = (
"860 768 LINE",
"120 768 LINE",
"120 670 LINE",
"442 650 LINE",
"860 670 LINE"
);
},
{
closed = 1;
nodes = (
"857 0 LINE",
"857 108 LINE",
"420 120 LINE",
"163 102 LINE",
"163 0 LINE"
);
},
{
closed = 1;
nodes = (
"466 1034 LINE",
"762 1034 LINE",
"900 1005 LINE",
"918 1128 LINE",
"813 1152 LINE",
"466 1152 LINE"
);
},
{
closed = 1;
nodes = (
"100 726 LINE",
"878 726 LINE",
"890 844 LINE",
"112 844 LINE"
);
},
{
closed = 1;
nodes = (
"404 1152 LINE",
"404 0 LINE",
"538 0 LINE",
"538 1152 LINE"
);
}
);
};
layerId = "75A0A031-BEAD-45F4-8089-5B3FA8FFE7DC";
paths = (
{
closed = 1;
nodes = (
"100 834 LINE",
"900 834 LINE",
"900 864 LINE",
"100 864 LINE"
);
},
{
closed = 1;
nodes = (
"405 0 LINE",
"405 912 LINE SMOOTH",
"405 1114 OFFCURVE",
"630 1122 OFFCURVE",
"900 1122 CURVE",
"900 1152 LINE",
"617 1152 OFFCURVE",
"375 1144 OFFCURVE",
"375 912 CURVE SMOOTH",
"375 0 LINE"
);
}
);
width = 1000;
}
);
unicode = 0066;
},
{
glyphname = g;
lastChange = "2023-05-22 01:37:59 +0000";
layers = (
{
anchors = (
{
name = bottom;
position = "{500, -448}";
},
{
name = top;
position = "{500, 900}";
}
);
background = {
paths = (
{
closed = 1;
nodes = (
"241 -102 LINE",
"413 -102 LINE",
"880 949 LINE",
"713 949 LINE"
);
}
);
};
layerId = "7B6A6B4E-EFCA-423F-B1F3-F70C1AFA501E";
paths = (
{
closed = 1;
nodes = (
"494 -105 OFFCURVE",
"500 -73 OFFCURVE",
"519 -47 CURVE SMOOTH",
"530 -32 LINE SMOOTH",
"540 -19 OFFCURVE",
"551 4 OFFCURVE",
"551 27 CURVE SMOOTH",
"551 82 OFFCURVE",
"506 127 OFFCURVE",
"451 127 CURVE SMOOTH",
"422 127 OFFCURVE",
"395 114 OFFCURVE",
"377 94 CURVE",
"319 19 LINE",
"295 -7 OFFCURVE",
"277 -8 OFFCURVE",
"246 -8 CURVE SMOOTH",
"166 -8 LINE SMOOTH",
"65 -8 OFFCURVE",
"50 18 OFFCURVE",
"50 127 CURVE SMOOTH",
"50 694 LINE SMOOTH",
"50 828 OFFCURVE",
"85 864 OFFCURVE",
"215 864 CURVE SMOOTH",
"794 864 LINE SMOOTH",
"828 864 OFFCURVE",
"850 849 OFFCURVE",
"850 809 CURVE SMOOTH",
"850 648 LINE SMOOTH",
"850 614 OFFCURVE",
"837 594 OFFCURVE",
"807 594 CURVE SMOOTH",
"423 594 LINE SMOOTH",
"367 594 OFFCURVE",
"323 550 OFFCURVE",
"323 494 CURVE SMOOTH",
"323 438 OFFCURVE",
"367 394 OFFCURVE",
"423 394 CURVE SMOOTH",
"807 394 LINE SMOOTH",
"837 394 OFFCURVE",
"850 374 OFFCURVE",
"850 340 CURVE SMOOTH",
"850 -52 LINE SMOOTH",
"850 -83 OFFCURVE",
"849 -106 OFFCURVE",
"823 -138 CURVE SMOOTH",
"743 -237 LINE SMOOTH",
"717 -269 OFFCURVE",
"681 -267 OFFCURVE",
"656 -245 CURVE SMOOTH",
"532 -138 LINE SMOOTH"
);
}
);
width = 900;
},
{
anchors = (
{
name = bottom;
position = "{500, -448}";
},
{
name = top;
position = "{500, 900}";
}
);
background = {
paths = (
{
closed = 1;
nodes = (
"241 -102 LINE",
"413 -102 LINE",
"880 949 LINE",
"713 949 LINE"
);
}
);
};
layerId = "75A0A031-BEAD-45F4-8089-5B3FA8FFE7DC";
paths = (
{
closed = 1;
nodes = (
"925 -277 LINE",
"925 -247 LINE",
"329 -247 LINE SMOOTH",
"153 -247 OFFCURVE",
"184 -157 OFFCURVE",
"203 -116 CURVE SMOOTH",
"339 178 LINE",
"307 178 LINE",
"169 -112 LINE SMOOTH",
"148 -157 OFFCURVE",
"118 -277 OFFCURVE",
"329 -277 CURVE SMOOTH"
);
},
{
closed = 1;
nodes = (
"710 819 LINE",
"748 819 LINE",
"851 1034 LINE",
"818 1034 LINE"
);
},
{
closed = 1;
nodes = (
"748 140 OFFCURVE",
"885 284 OFFCURVE",
"885 515 CURVE SMOOTH",
"885 747 OFFCURVE",
"748 890 OFFCURVE",
"500 890 CURVE SMOOTH",
"252 890 OFFCURVE",
"115 747 OFFCURVE",
"115 515 CURVE SMOOTH",
"115 284 OFFCURVE",
"252 140 OFFCURVE",
"500 140 CURVE SMOOTH"
);
},
{
closed = 1;
nodes = (
"280 167 OFFCURVE",
"148 307 OFFCURVE",
"148 515 CURVE SMOOTH",
"148 723 OFFCURVE",
"280 863 OFFCURVE",
"500 863 CURVE SMOOTH",
"720 863 OFFCURVE",
"852 723 OFFCURVE",
"852 515 CURVE SMOOTH",
"852 307 OFFCURVE",
"721 167 OFFCURVE",
"500 167 CURVE SMOOTH"
);
}
);
width = 1000;
}
);
unicode = 0067;
},
{
glyphname = h;
lastChange = "2023-05-22 01:38:02 +0000";
layers = (
{
anchors = (
{
name = bottom;
position = "{500, 0}";
},
{
name = center;
position = "{340, 1044}";
},
{
name = top;
position = "{510, 900}";
}
);
background = {
paths = (
{
closed = 1;
nodes = (
"160 1152 LINE",
"160 0 LINE",
"300 0 LINE",
"300 1152 LINE"
);
},
{
closed = 1;
nodes = (
"300 650 LINE",
"398 726 OFFCURVE",
"481 750 OFFCURVE",
"552 750 CURVE SMOOTH",
"627 750 OFFCURVE",
"700 723 OFFCURVE",
"700 573 CURVE SMOOTH",
"700 0 LINE",
"840 0 LINE",
"840 641 LINE SMOOTH",
"840 806 OFFCURVE",
"762 880 OFFCURVE",
"591 880 CURVE SMOOTH",
"486 880 OFFCURVE",
"391 850 OFFCURVE",
"300 772 CURVE"
);
}
);
};
layerId = "7B6A6B4E-EFCA-423F-B1F3-F70C1AFA501E";
paths = (
{
closed = 1;
nodes = (
"327 1044 OFFCURVE",
"350 1021 OFFCURVE",
"350 977 CURVE SMOOTH",
"350 964 LINE SMOOTH",
"350 909 OFFCURVE",
"395 864 OFFCURVE",
"450 864 CURVE SMOOTH",
"590 864 LINE SMOOTH",
"615 864 OFFCURVE",
"637 855 OFFCURVE",
"653 839 CURVE SMOOTH",
"823 669 LINE SMOOTH",
"848 644 OFFCURVE",
"850 626 OFFCURVE",
"850 596 CURVE SMOOTH",
"850 43 LINE SMOOTH",
"850 14 OFFCURVE",
"833 0 OFFCURVE",
"798 0 CURVE SMOOTH",
"620 0 LINE SMOOTH",
"591 0 OFFCURVE",
"570 14 OFFCURVE",
"570 50 CURVE SMOOTH",
"570 464 LINE SMOOTH",
"570 519 OFFCURVE",
"525 564 OFFCURVE",
"470 564 CURVE SMOOTH",
"450 564 LINE SMOOTH",
"395 564 OFFCURVE",
"350 519 OFFCURVE",
"350 464 CURVE SMOOTH",
"350 67 LINE SMOOTH",
"350 23 OFFCURVE",
"327 0 OFFCURVE",
"281 0 CURVE SMOOTH",
"119 0 LINE SMOOTH",
"73 0 OFFCURVE",
"50 23 OFFCURVE",
"50 67 CURVE",
"50 977 LINE SMOOTH",
"50 1021 OFFCURVE",
"73 1044 OFFCURVE",
"119 1044 CURVE SMOOTH",
"281 1044 LINE"
);
}
);
width = 900;
},
{
anchors = (
{
name = bottom;
position = "{500, 0}";
},
{
name = center;
position = "{340, 1044}";
},
{
name = top;
position = "{500, 1280}";
}
);
background = {
paths = (
{
closed = 1;
nodes = (
"160 1152 LINE",
"160 0 LINE",
"300 0 LINE",
"300 1152 LINE"
);
},
{
closed = 1;
nodes = (
"300 650 LINE",
"398 726 OFFCURVE",
"481 750 OFFCURVE",
"552 750 CURVE SMOOTH",
"627 750 OFFCURVE",
"700 723 OFFCURVE",
"700 573 CURVE SMOOTH",
"700 0 LINE",
"840 0 LINE",
"840 641 LINE SMOOTH",
"840 806 OFFCURVE",
"762 880 OFFCURVE",
"591 880 CURVE SMOOTH",
"486 880 OFFCURVE",
"391 850 OFFCURVE",
"300 772 CURVE"
);
}
);
};
layerId = "75A0A031-BEAD-45F4-8089-5B3FA8FFE7DC";
paths = (
{
closed = 1;
nodes = (
"240 1100 LINE SMOOTH",
"240 1135 OFFCURVE",
"223 1152 OFFCURVE",
"192 1152 CURVE SMOOTH",
"165 1152 LINE SMOOTH",
"135 1152 OFFCURVE",
"120 1135 OFFCURVE",
"120 1100 CURVE SMOOTH",
"120 52 LINE SMOOTH",
"120 17 OFFCURVE",
"135 0 OFFCURVE",
"165 0 CURVE SMOOTH",
"192 0 LINE SMOOTH",
"223 0 OFFCURVE",
"240 17 OFFCURVE",
"240 52 CURVE SMOOTH",
"240 696 LINE SMOOTH",
"240 736 OFFCURVE",
"269 756 OFFCURVE",
"298 756 CURVE SMOOTH",
"702 756 LINE SMOOTH",
"731 756 OFFCURVE",
"760 736 OFFCURVE",
"760 696 CURVE SMOOTH",
"760 52 LINE SMOOTH",
"760 17 OFFCURVE",
"778 0 OFFCURVE",
"808 0 CURVE SMOOTH",
"835 0 LINE SMOOTH",
"865 0 OFFCURVE",
"880 17 OFFCURVE",
"880 52 CURVE SMOOTH",
"880 692 LINE SMOOTH",
"880 826 OFFCURVE",
"845 864 OFFCURVE",
"715 864 CURVE SMOOTH",
"298 864 LINE SMOOTH",
"269 864 OFFCURVE",
"240 884 OFFCURVE",
"240 924 CURVE SMOOTH"
);
}
);
width = 1000;
}
);
unicode = 0068;
},
{
glyphname = i;
lastChange = "2023-05-22 01:38:11 +0000";
layers = (
{
background = {
paths = (
{
closed = 1;
nodes = (
"141 661 LINE",
"482 645 LINE",
"457 114 LINE",
"110 98 LINE",
"110 0 LINE",
"910 0 LINE",
"910 98 LINE",
"595 114 LINE",
"614 602 LINE",
"635 768 LINE",
"141 768 LINE"
);
},
{
closed = 1;
nodes = (
"397 981 LINE",
"610 981 LINE",
"613 1202 LINE",
"397 1198 LINE"
);
}
);
};
components = (
{
name = idotless;
},
{
name = dotaccentcomb;
transform = "{1, 0, 0, 1, 75, 0}";
}
);
layerId = "7B6A6B4E-EFCA-423F-B1F3-F70C1AFA501E";
width = 900;
},
{
background = {
paths = (
{
closed = 1;
nodes = (
"141 661 LINE",
"482 645 LINE",
"457 114 LINE",
"110 98 LINE",
"110 0 LINE",
"910 0 LINE",
"910 98 LINE",
"595 114 LINE",
"614 602 LINE",
"635 768 LINE",
"141 768 LINE"
);
},
{
closed = 1;
nodes = (
"397 981 LINE",
"610 981 LINE",
"613 1202 LINE",
"397 1198 LINE"
);
}
);
};
components = (
{
name = idotless;
},
{
name = dotaccentcomb;
transform = "{1, 0, 0, 1, 65, 0}";
}
);
layerId = "75A0A031-BEAD-45F4-8089-5B3FA8FFE7DC";
width = 1000;
}
);
unicode = 0069;
},
{
glyphname = idotless;
lastChange = "2023-05-22 01:54:23 +0000";
layers = (
{
anchors = (
{
name = bottom;
position = "{503, 0}";
},
{
name = ogonek;
position = "{896, 10}";
},
{
name = top;
position = "{575, 864}";
}
);
background = {
paths = (
{
closed = 1;
nodes = (
"141 756 LINE",
"482 744 LINE",
"457 120 LINE",
"110 108 LINE",
"110 0 LINE",
"910 0 LINE",
"910 108 LINE",
"595 120 LINE",
"614 698 LINE",
"635 864 LINE",
"141 864 LINE"
);
},
{
closed = 1;
nodes = (
"141 746 LINE",
"470 746 LINE",
"470 118 LINE",
"110 118 LINE",
"110 0 LINE",
"950 0 LINE",
"950 118 LINE",
"604 118 LINE",
"604 698 LINE",
"624 864 LINE",
"141 864 LINE"
);
}
);
};
layerId = "7B6A6B4E-EFCA-423F-B1F3-F70C1AFA501E";
paths = (
{
closed = 1;
nodes = (
"837 270 OFFCURVE",
"850 250 OFFCURVE",
"850 216 CURVE SMOOTH",
"850 51 LINE SMOOTH",
"850 17 OFFCURVE",
"836 0 OFFCURVE",
"807 0 CURVE SMOOTH",
"568 0 LINE SMOOTH",
"538 0 OFFCURVE",
"520 2 OFFCURVE",
"495 27 CURVE SMOOTH",
"325 197 LINE SMOOTH",
"309 213 OFFCURVE",
"300 235 OFFCURVE",
"300 260 CURVE SMOOTH",
"300 494 LINE SMOOTH",
"300 549 OFFCURVE",
"255 594 OFFCURVE",
"200 594 CURVE SMOOTH",
"93 594 LINE SMOOTH",
"63 594 OFFCURVE",
"50 614 OFFCURVE",
"50 648 CURVE SMOOTH",
"50 813 LINE SMOOTH",
"50 847 OFFCURVE",
"64 864 OFFCURVE",
"93 864 CURVE SMOOTH",
"547 864 LINE SMOOTH",
"586 864 OFFCURVE",
"600 848 OFFCURVE",
"600 812 CURVE SMOOTH",
"600 370 LINE SMOOTH",
"600 315 OFFCURVE",
"645 270 OFFCURVE",
"700 270 CURVE SMOOTH",
"807 270 LINE SMOOTH"
);
}
);
width = 900;
},
{
anchors = (
{
name = bottom;
position = "{553, 0}";
},
{
name = ogonek;
position = "{946, 10}";
},
{
name = top;
position = "{565, 864}";
}
);
background = {
paths = (
{
closed = 1;
nodes = (
"141 756 LINE",
"482 744 LINE",
"457 120 LINE",
"110 108 LINE",
"110 0 LINE",
"910 0 LINE",
"910 108 LINE",
"595 120 LINE",
"614 698 LINE",
"635 864 LINE",
"141 864 LINE"
);
},
{
closed = 1;
nodes = (
"141 746 LINE",
"470 746 LINE",
"470 118 LINE",
"110 118 LINE",
"110 0 LINE",
"950 0 LINE",
"950 118 LINE",
"604 118 LINE",
"604 698 LINE",
"624 864 LINE",
"141 864 LINE"
);
}
);
};
layerId = "75A0A031-BEAD-45F4-8089-5B3FA8FFE7DC";
paths = (
{
closed = 1;
nodes = (
"415 245 OFFCURVE",
"423 224 OFFCURVE",
"440 207 CURVE SMOOTH",
"620 27 LINE SMOOTH",
"645 2 OFFCURVE",
"663 0 OFFCURVE",
"693 0 CURVE SMOOTH",
"967 0 LINE SMOOTH",
"996 0 OFFCURVE",
"1010 17 OFFCURVE",
"1010 52 CURVE SMOOTH",
"1010 73 LINE SMOOTH",
"1010 102 OFFCURVE",
"996 123 OFFCURVE",
"960 123 CURVE SMOOTH",
"813 123 LINE SMOOTH",
"679 123 OFFCURVE",
"565 234 OFFCURVE",
"565 370 CURVE SMOOTH",
"565 812 LINE SMOOTH",
"565 848 OFFCURVE",
"551 864 OFFCURVE",
"512 864 CURVE SMOOTH",
"53 864 LINE SMOOTH",
"14 864 OFFCURVE",
"0 847 OFFCURVE",
"0 812 CURVE SMOOTH",
"0 784 LINE SMOOTH",
"0 749 OFFCURVE",
"14 729 OFFCURVE",
"53 729 CURVE SMOOTH",
"366 729 LINE SMOOTH",
"401 729 OFFCURVE",
"415 712 OFFCURVE",
"415 677 CURVE SMOOTH",
"415 270 LINE SMOOTH"
);
}
);
width = 1000;
}
);
unicode = 0131;
},
{
glyphname = j;
lastChange = "2023-05-22 01:38:24 +0000";
layers = (
{
background = {
paths = (
{
closed = 1;
nodes = (
"475 979 LINE",
"658 979 LINE",
"661 1168 LINE",
"475 1165 LINE"
);
}
);
};
components = (
{
name = jdotless;
},
{
name = dotaccentcomb;
transform = "{1, 0, 0, 1, 300, 0}";
}
);
layerId = "7B6A6B4E-EFCA-423F-B1F3-F70C1AFA501E";
width = 900;
},
{
background = {
paths = (
{
closed = 1;
nodes = (
"475 979 LINE",
"658 979 LINE",
"661 1168 LINE",
"475 1165 LINE"
);
}
);
};
components = (
{
name = jdotless;
},
{
name = dotaccentcomb;
transform = "{1, 0, 0, 1, 66, 36}";
}
);
layerId = "75A0A031-BEAD-45F4-8089-5B3FA8FFE7DC";
width = 1000;
}
);
unicode = 006A;
},
{
glyphname = jdotless;
lastChange = "2023-05-22 01:38:24 +0000";
layers = (
{
anchors = (
{
name = bottom;
position = "{420, -448}";
},
{
name = top;
position = "{800, 864}";
}
);
layerId = "7B6A6B4E-EFCA-423F-B1F3-F70C1AFA501E";
paths = (
{
closed = 1;
nodes = (
"550 195 OFFCURVE",
"505 150 OFFCURVE",
"450 150 CURVE SMOOTH",
"100 150 LINE SMOOTH",
"64 150 OFFCURVE",
"50 129 OFFCURVE",
"50 100 CURVE SMOOTH",
"50 -128 LINE SMOOTH",
"50 -163 OFFCURVE",
"64 -180 OFFCURVE",
"93 -180 CURVE SMOOTH",
"582 -180 LINE SMOOTH",
"612 -180 OFFCURVE",
"630 -178 OFFCURVE",
"655 -153 CURVE SMOOTH",
"825 17 LINE SMOOTH",
"841 33 OFFCURVE",
"850 55 OFFCURVE",
"850 80 CURVE SMOOTH",
"850 812 LINE SMOOTH",
"850 848 OFFCURVE",
"836 864 OFFCURVE",
"797 864 CURVE",
"117 864 LINE",
"73 864 OFFCURVE",
"50 841 OFFCURVE",
"50 795 CURVE SMOOTH",
"50 663 LINE SMOOTH",
"50 617 OFFCURVE",
"73 594 OFFCURVE",
"117 594 CURVE SMOOTH",
"450 594 LINE SMOOTH",
"505 594 OFFCURVE",
"550 549 OFFCURVE",
"550 494 CURVE SMOOTH",
"550 250 LINE SMOOTH"
);
}
);
width = 900;
},
{
anchors = (
{
name = bottom;
position = "{480, -448}";
},
{
name = top;
position = "{566, 900}";
}
);
layerId = "75A0A031-BEAD-45F4-8089-5B3FA8FFE7DC";
paths = (
{
closed = 1;
nodes = (
"690 864 LINE",
"690 201 LINE SMOOTH",
"690 -71 OFFCURVE",
"568 -111 OFFCURVE",
"158 -219 CURVE",
"165 -250 LINE",
"596 -133 OFFCURVE",
"720 -98 OFFCURVE",
"720 201 CURVE SMOOTH",
"720 864 LINE"
);
},
{
closed = 1;
nodes = (
"711 864 LINE",
"100 864 LINE",
"100 837 LINE",
"711 837 LINE"
);
}
);
width = 1000;
}
);
unicode = 0237;
},
{
glyphname = k;
lastChange = "2023-05-22 01:38:34 +0000";
layers = (
{
anchors = (
{
name = bottom;
position = "{418, 0}";
},
{
name = top;
position = "{418, 1280}";
}
);
layerId = "7B6A6B4E-EFCA-423F-B1F3-F70C1AFA501E";
paths = (
{
closed = 1;
nodes = (
"654 0 OFFCURVE",
"618 8 OFFCURVE",
"595 39 CURVE SMOOTH",
"494 175 LINE SMOOTH",
"477 197 OFFCURVE",
"449 208 OFFCURVE",
"420 208 CURVE SMOOTH",
"365 208 OFFCURVE",
"320 163 OFFCURVE",
"320 108 CURVE SMOOTH",
"320 35 LINE SMOOTH",
"320 8 OFFCURVE",
"306 0 OFFCURVE",
"281 0 CURVE SMOOTH",
"95 0 LINE SMOOTH",
"65 0 OFFCURVE",
"50 17 OFFCURVE",
"50 52 CURVE SMOOTH",
"50 992 LINE SMOOTH",
"50 1027 OFFCURVE",
"65 1044 OFFCURVE",
"95 1044 CURVE SMOOTH",
"272 1044 LINE SMOOTH",
"311 1044 OFFCURVE",
"320 1027 OFFCURVE",
"320 992 CURVE SMOOTH",
"320 756 LINE SMOOTH",
"320 701 OFFCURVE",
"365 656 OFFCURVE",
"420 656 CURVE SMOOTH",
"449 656 OFFCURVE",
"478 667 OFFCURVE",
"494 689 CURVE SMOOTH",
"595 825 LINE SMOOTH",
"619 857 OFFCURVE",
"652 864 OFFCURVE",
"694 864 CURVE SMOOTH",
"796 864 LINE SMOOTH",
"825 864 OFFCURVE",
"850 847 OFFCURVE",
"850 812 CURVE SMOOTH",
"850 640 LINE SMOOTH",
"850 605 OFFCURVE",
"835 584 OFFCURVE",
"806 584 CURVE SMOOTH",
"747 584 LINE SMOOTH",
"691 584 OFFCURVE",
"647 540 OFFCURVE",
"647 484 CURVE SMOOTH",
"647 370 LINE SMOOTH",
"647 314 OFFCURVE",
"691 270 OFFCURVE",
"747 270 CURVE SMOOTH",
"806 270 LINE SMOOTH",
"835 270 OFFCURVE",
"850 249 OFFCURVE",
"850 214 CURVE SMOOTH",
"850 52 LINE SMOOTH",
"850 17 OFFCURVE",
"826 0 OFFCURVE",
"796 0 CURVE SMOOTH",
"696 0 LINE SMOOTH"
);
}
);
width = 900;
},
{
anchors = (
{
name = bottom;
position = "{468, 0}";
},
{
name = top;
position = "{468, 1280}";
}
);
layerId = "75A0A031-BEAD-45F4-8089-5B3FA8FFE7DC";
paths = (
{
closed = 1;
nodes = (
"180 526 LINE",
"897 867 LINE",
"883 892 LINE",
"180 559 LINE"
);
},
{
closed = 1;
nodes = (
"262 597 LINE",
"905 0 LINE",
"950 0 LINE",
"306 597 LINE"
);
},
{
closed = 1;
nodes = (
"150 1152 LINE",
"150 0 LINE",
"180 0 LINE",
"180 1152 LINE"
);
}
);
width = 1000;
}
);
unicode = 006B;
},
{
glyphname = l;
lastChange = "2023-05-22 01:44:25 +0000";
layers = (
{
anchors = (
{
name = bottom;
position = "{450, 0}";
},
{
name = center;
position = "{450, 480}";
},
{
name = top;
position = "{450, 1180}";
},
{
name = topright;
position = "{820, 1152}";
}
);
background = {
paths = (
{
closed = 1;
nodes = (
"560 1152 LINE",
"0 1152 LINE",
"0 1007 LINE",
"420 1007 LINE",
"420 245 LINE SMOOTH",
"420 77 OFFCURVE",
"479 -20 OFFCURVE",
"730 -20 CURVE SMOOTH",
"835 -20 OFFCURVE",
"912 -3 OFFCURVE",
"960 10 CURVE",
"960 155 LINE",
"912 142 OFFCURVE",
"840 125 OFFCURVE",
"745 125 CURVE SMOOTH",
"580 125 OFFCURVE",
"560 173 OFFCURVE",
"560 239 CURVE SMOOTH"
);
}
);
};
hints = (
{
horizontal = 1;
place = "{-30, 135}";
type = Stem;
}
);
layerId = "7B6A6B4E-EFCA-423F-B1F3-F70C1AFA501E";
paths = (
{
closed = 1;
nodes = (
"547 1044 LINE SMOOTH",
"586 1044 OFFCURVE",
"600 1028 OFFCURVE",
"600 992 CURVE SMOOTH",
"600 370 LINE SMOOTH",
"600 315 OFFCURVE",
"645 270 OFFCURVE",
"700 270 CURVE SMOOTH",
"800 270 LINE SMOOTH",
"836 270 OFFCURVE",
"850 249 OFFCURVE",
"850 220 CURVE SMOOTH",
"850 52 LINE SMOOTH",
"850 17 OFFCURVE",
"836 0 OFFCURVE",
"807 0 CURVE SMOOTH",
"568 0 LINE SMOOTH",
"538 0 OFFCURVE",
"520 2 OFFCURVE",
"495 27 CURVE SMOOTH",
"325 197 LINE SMOOTH",
"309 213 OFFCURVE",
"300 235 OFFCURVE",
"300 260 CURVE SMOOTH",
"300 644 LINE SMOOTH",
"300 699 OFFCURVE",
"255 744 OFFCURVE",
"200 744 CURVE SMOOTH",
"117 744 LINE SMOOTH",
"73 744 OFFCURVE",
"50 767 OFFCURVE",
"50 813 CURVE SMOOTH",
"50 975 LINE SMOOTH",
"50 1021 OFFCURVE",
"73 1044 OFFCURVE",
"117 1044 CURVE SMOOTH"
);
}
);
width = 900;
},
{
anchors = (
{
name = bottom;
position = "{500, 0}";
},
{
name = center;
position = "{500, 480}";
},
{
name = top;
position = "{500, 1180}";
},
{
name = topright;
position = "{870, 1152}";
}
);
background = {
paths = (
{
closed = 1;
nodes = (
"560 1152 LINE",
"0 1152 LINE",
"0 1007 LINE",
"420 1007 LINE",
"420 245 LINE SMOOTH",
"420 77 OFFCURVE",
"479 -20 OFFCURVE",
"730 -20 CURVE SMOOTH",
"835 -20 OFFCURVE",
"912 -3 OFFCURVE",
"960 10 CURVE",
"960 155 LINE",
"912 142 OFFCURVE",
"840 125 OFFCURVE",
"745 125 CURVE SMOOTH",
"580 125 OFFCURVE",
"560 173 OFFCURVE",
"560 239 CURVE SMOOTH"
);
}
);
};
hints = (
{
horizontal = 1;
place = "{1125, 27}";
type = Stem;
},
{
horizontal = 1;
place = "{-30, 27}";
type = Stem;
}
);
layerId = "75A0A031-BEAD-45F4-8089-5B3FA8FFE7DC";
paths = (
{
closed = 1;
nodes = (
"415 245 OFFCURVE",
"423 224 OFFCURVE",
"440 207 CURVE SMOOTH",
"620 27 LINE SMOOTH",
"645 2 OFFCURVE",
"663 0 OFFCURVE",
"693 0 CURVE SMOOTH",
"967 0 LINE SMOOTH",
"996 0 OFFCURVE",
"1010 17 OFFCURVE",
"1010 52 CURVE SMOOTH",
"1010 73 LINE SMOOTH",
"1010 102 OFFCURVE",
"996 123 OFFCURVE",
"960 123 CURVE SMOOTH",
"813 123 LINE SMOOTH",
"679 123 OFFCURVE",
"565 234 OFFCURVE",
"565 370 CURVE SMOOTH",
"565 992 LINE SMOOTH",
"565 1028 OFFCURVE",
"551 1044 OFFCURVE",
"512 1044 CURVE SMOOTH",
"53 1044 LINE SMOOTH",
"14 1044 OFFCURVE",
"0 1027 OFFCURVE",
"0 992 CURVE SMOOTH",
"0 964 LINE SMOOTH",
"0 929 OFFCURVE",
"14 909 OFFCURVE",
"53 909 CURVE SMOOTH",
"366 909 LINE SMOOTH",
"401 909 OFFCURVE",
"415 892 OFFCURVE",
"415 857 CURVE SMOOTH",
"415 270 LINE SMOOTH"
);
}
);
width = 1000;
}
);
unicode = 006C;
},
{
glyphname = m;
lastChange = "2023-05-22 01:38:42 +0000";
layers = (
{
background = {
paths = (
{
closed = 1;
nodes = (
"227 646 LINE",
"257 646 LINE",
"438 382 LINE",
"539 382 LINE",
"726 646 LINE",
"756 646 LINE",
"756 0 LINE",
"890 0 LINE",
"890 864 LINE",
"722 864 LINE",
"517 557 LINE",
"487 557 LINE",
"279 864 LINE",
"110 864 LINE",
"110 0 LINE",
"227 0 LINE"
);
},
{
closed = 1;
nodes = (
"910 864 OFFCURVE",
"925 846 OFFCURVE",
"925 762 CURVE SMOOTH",
"925 52 LINE SMOOTH",
"925 17 OFFCURVE",
"910 0 OFFCURVE",
"880 0 CURVE SMOOTH",
"733 0 LINE SMOOTH",
"703 0 OFFCURVE",
"685 17 OFFCURVE",
"685 52 CURVE SMOOTH",
"685 374 LINE SMOOTH",
"685 404 OFFCURVE",
"676 424 OFFCURVE",
"635 424 CURVE SMOOTH",
"593 424 OFFCURVE",
"585 404 OFFCURVE",
"585 374 CURVE SMOOTH",
"585 52 LINE SMOOTH",
"585 17 OFFCURVE",
"568 0 OFFCURVE",
"537 0 CURVE SMOOTH",
"460 0 LINE SMOOTH",
"430 0 OFFCURVE",
"415 17 OFFCURVE",
"415 52 CURVE SMOOTH",
"415 374 LINE",
"415 404 OFFCURVE",
"407 424 OFFCURVE",
"365 424 CURVE SMOOTH",
"324 424 OFFCURVE",
"315 404 OFFCURVE",
"315 374 CURVE SMOOTH",
"315 52 LINE SMOOTH",
"315 17 OFFCURVE",
"298 0 OFFCURVE",
"267 0 CURVE SMOOTH",
"120 0 LINE SMOOTH",
"90 0 OFFCURVE",
"75 17 OFFCURVE",
"75 52 CURVE SMOOTH",
"75 762 LINE SMOOTH",
"75 846 OFFCURVE",
"90 864 OFFCURVE",
"140 864 CURVE SMOOTH",
"255 864 LINE SMOOTH",
"369 864 OFFCURVE",
"435 644 OFFCURVE",
"499 644 CURVE SMOOTH",
"564 644 OFFCURVE",
"629 864 OFFCURVE",
"735 864 CURVE SMOOTH",
"850 864 LINE SMOOTH"
);
}
);
};
layerId = "7B6A6B4E-EFCA-423F-B1F3-F70C1AFA501E";
paths = (
{
closed = 1;
nodes = (
"50 52 LINE SMOOTH",
"50 17 OFFCURVE",
"64 0 OFFCURVE",
"93 0 CURVE SMOOTH",
"217 0 LINE SMOOTH",
"246 0 OFFCURVE",
"260 17 OFFCURVE",
"260 52 CURVE SMOOTH",
"260 234 LINE SMOOTH",
"260 289 OFFCURVE",
"305 334 OFFCURVE",
"360 334 CURVE SMOOTH",
"529 334 LINE SMOOTH",
"584 334 OFFCURVE",
"629 289 OFFCURVE",
"629 234 CURVE SMOOTH",
"630 50 LINE SMOOTH",
"630 15 OFFCURVE",
"644 0 OFFCURVE",
"673 0 CURVE SMOOTH",
"807 0 LINE SMOOTH",
"836 0 OFFCURVE",
"850 17 OFFCURVE",
"850 52 CURVE SMOOTH",
"850 812 LINE SMOOTH",
"850 848 OFFCURVE",
"836 864 OFFCURVE",
"797 864 CURVE SMOOTH",
"704 864 LINE SMOOTH",
"674 864 OFFCURVE",
"655 865 OFFCURVE",
"631 837 CURVE SMOOTH",
"519 702 LINE",
"501 682 OFFCURVE",
"474 669 OFFCURVE",
"445 669 CURVE SMOOTH",
"416 669 OFFCURVE",
"389 682 OFFCURVE",
"371 702 CURVE",
"258 837 LINE SMOOTH",
"234 865 OFFCURVE",
"215 864 OFFCURVE",
"185 864 CURVE SMOOTH",
"103 864 LINE SMOOTH",
"64 864 OFFCURVE",
"50 848 OFFCURVE",
"50 812 CURVE SMOOTH"
);
}
);
width = 900;
},
{
background = {
paths = (
{
closed = 1;
nodes = (
"227 646 LINE",
"257 646 LINE",
"438 382 LINE",
"539 382 LINE",
"726 646 LINE",
"756 646 LINE",
"756 0 LINE",
"890 0 LINE",
"890 864 LINE",
"722 864 LINE",
"517 557 LINE",
"487 557 LINE",
"279 864 LINE",
"110 864 LINE",
"110 0 LINE",
"227 0 LINE"
);
}
);
};
layerId = "75A0A031-BEAD-45F4-8089-5B3FA8FFE7DC";
paths = (
{
closed = 1;
nodes = (
"130 0 LINE",
"130 778 LINE SMOOTH",
"130 891 OFFCURVE",
"308 899 OFFCURVE",
"334 762 CURVE SMOOTH",
"413 341 LINE SMOOTH",
"433 233 OFFCURVE",
"553 232 OFFCURVE",
"577 341 CURVE SMOOTH",
"670 762 LINE SMOOTH",
"702 906 OFFCURVE",
"870 887 OFFCURVE",
"870 778 CURVE SMOOTH",
"870 0 LINE",
"900 0 LINE",
"900 778 LINE SMOOTH",
"900 918 OFFCURVE",
"681 952 OFFCURVE",
"640 764 CURVE SMOOTH",
"547 341 LINE SMOOTH",
"532 273 OFFCURVE",
"456 274 OFFCURVE",
"443 341 CURVE SMOOTH",
"364 762 LINE SMOOTH",
"329 947 OFFCURVE",
"100 921 OFFCURVE",
"100 778 CURVE SMOOTH",
"100 0 LINE"
);
}
);
width = 1000;
}
);
unicode = 006D;
},
{
glyphname = n;
lastChange = "2023-05-22 01:38:45 +0000";
layers = (
{
anchors = (
{
name = bottom;
position = "{450, 0}";
},
{
name = top;
position = "{460, 900}";
}
);
background = {
paths = (
{
closed = 1;
nodes = (
"670 0 LINE",
"840 0 LINE",
"840 470 LINE SMOOTH",
"840 770 OFFCURVE",
"757 890 OFFCURVE",
"500 890 CURVE SMOOTH",
"243 890 OFFCURVE",
"160 770 OFFCURVE",
"160 470 CURVE SMOOTH",
"160 0 LINE",
"330 0 LINE",
"330 470 LINE SMOOTH",
"330 628 OFFCURVE",
"380 710 OFFCURVE",
"500 710 CURVE SMOOTH",
"620 710 OFFCURVE",
"670 628 OFFCURVE",
"670 470 CURVE SMOOTH"
);
},
{
closed = 1;
nodes = (
"100 826 OFFCURVE",
"135 864 OFFCURVE",
"265 864 CURVE SMOOTH",
"735 864 LINE SMOOTH",
"865 864 OFFCURVE",
"900 826 OFFCURVE",
"900 692 CURVE SMOOTH",
"900 52 LINE SMOOTH",
"900 17 OFFCURVE",
"885 0 OFFCURVE",
"855 0 CURVE SMOOTH",
"678 0 LINE SMOOTH",
"648 0 OFFCURVE",
"630 17 OFFCURVE",
"630 52 CURVE SMOOTH",
"630 474 LINE SMOOTH",
"630 514 OFFCURVE",
"601 534 OFFCURVE",
"572 534 CURVE",
"428 534 LINE",
"399 534 OFFCURVE",
"370 514 OFFCURVE",
"370 474 CURVE SMOOTH",
"370 52 LINE SMOOTH",
"370 17 OFFCURVE",
"353 0 OFFCURVE",
"322 0 CURVE SMOOTH",
"145 0 LINE SMOOTH",
"115 0 OFFCURVE",
"100 17 OFFCURVE",
"100 52 CURVE SMOOTH",
"100 692 LINE SMOOTH"
);
}
);
};
hints = (
{
place = "{150, 0}";
type = Stem;
},
{
place = "{290, 0}";
type = Stem;
},
{
place = "{710, 0}";
type = Stem;
},
{
place = "{850, 0}";
type = Stem;
},
{
horizontal = 1;
place = "{880, 130}";
type = Stem;
}
);
layerId = "7B6A6B4E-EFCA-423F-B1F3-F70C1AFA501E";
paths = (
{
closed = 1;
nodes = (
"515 564 OFFCURVE",
"560 519 OFFCURVE",
"560 464 CURVE SMOOTH",
"560 50 LINE SMOOTH",
"560 14 OFFCURVE",
"581 0 OFFCURVE",
"610 0 CURVE SMOOTH",
"798 0 LINE SMOOTH",
"833 0 OFFCURVE",
"850 14 OFFCURVE",
"850 43 CURVE SMOOTH",
"850 596 LINE SMOOTH",
"850 626 OFFCURVE",
"848 644 OFFCURVE",
"823 669 CURVE SMOOTH",
"653 839 LINE SMOOTH",
"637 855 OFFCURVE",
"615 864 OFFCURVE",
"590 864 CURVE SMOOTH",
"102 864 LINE SMOOTH",
"66 864 OFFCURVE",
"50 850 OFFCURVE",
"50 811 CURVE",
"50 67 LINE",
"50 23 OFFCURVE",
"73 0 OFFCURVE",
"119 0 CURVE SMOOTH",
"271 0 LINE SMOOTH",
"317 0 OFFCURVE",
"340 23 OFFCURVE",
"340 67 CURVE SMOOTH",
"340 464 LINE SMOOTH",
"340 519 OFFCURVE",
"385 564 OFFCURVE",
"440 564 CURVE SMOOTH",
"460 564 LINE SMOOTH"
);
}
);
width = 900;
},
{
anchors = (
{
name = bottom;
position = "{500, 0}";
},
{
name = top;
position = "{510, 900}";
}
);
background = {
paths = (
{
closed = 1;
nodes = (
"670 0 LINE",
"840 0 LINE",
"840 470 LINE SMOOTH",
"840 770 OFFCURVE",
"757 890 OFFCURVE",
"500 890 CURVE SMOOTH",
"243 890 OFFCURVE",
"160 770 OFFCURVE",
"160 470 CURVE SMOOTH",
"160 0 LINE",
"330 0 LINE",
"330 470 LINE SMOOTH",
"330 628 OFFCURVE",
"380 710 OFFCURVE",
"500 710 CURVE SMOOTH",
"620 710 OFFCURVE",
"670 628 OFFCURVE",
"670 470 CURVE SMOOTH"
);
}
);
};
hints = (
{
place = "{150, 0}";
type = Stem;
},
{
place = "{180, 0}";
type = Stem;
},
{
place = "{820, 0}";
type = Stem;
},
{
place = "{850, 0}";
type = Stem;
},
{
horizontal = 1;
place = "{880, 27}";
type = Stem;
}
);
layerId = "75A0A031-BEAD-45F4-8089-5B3FA8FFE7DC";
paths = (
{
closed = 1;
nodes = (
"120 786 OFFCURVE",
"175 864 OFFCURVE",
"425 864 CURVE SMOOTH",
"575 864 LINE SMOOTH",
"825 864 OFFCURVE",
"880 786 OFFCURVE",
"880 552 CURVE SMOOTH",
"880 52 LINE SMOOTH",
"880 17 OFFCURVE",
"865 0 OFFCURVE",
"835 0 CURVE SMOOTH",
"778 0 LINE SMOOTH",
"748 0 OFFCURVE",
"730 17 OFFCURVE",
"730 52 CURVE SMOOTH",
"730 549 LINE SMOOTH",
"730 689 OFFCURVE",
"701 729 OFFCURVE",
"572 729 CURVE SMOOTH",
"428 729 LINE SMOOTH",
"299 729 OFFCURVE",
"270 689 OFFCURVE",
"270 549 CURVE SMOOTH",
"270 52 LINE SMOOTH",
"270 17 OFFCURVE",
"253 0 OFFCURVE",
"222 0 CURVE SMOOTH",
"165 0 LINE SMOOTH",
"135 0 OFFCURVE",
"120 17 OFFCURVE",
"120 52 CURVE SMOOTH",
"120 552 LINE SMOOTH"
);
}
);
width = 1000;
}
);
unicode = 006E;
},
{
glyphname = eng;
lastChange = "2020-04-21 00:54:51 +0000";
layers = (
{
layerId = "7B6A6B4E-EFCA-423F-B1F3-F70C1AFA501E";
paths = (
{
closed = 1;
nodes = (
"150 864 LINE",
"150 0 LINE",
"290 0 LINE",
"290 864 LINE"
);
},
{
closed = 1;
nodes = (
"850 641 LINE SMOOTH",
"850 806 OFFCURVE",
"772 880 OFFCURVE",
"591 880 CURVE SMOOTH",
"476 880 OFFCURVE",
"381 850 OFFCURVE",
"290 772 CURVE",
"290 650 LINE",
"388 726 OFFCURVE",
"471 750 OFFCURVE",
"552 750 CURVE SMOOTH",
"637 750 OFFCURVE",
"710 723 OFFCURVE",
"710 573 CURVE SMOOTH",
"710 201 LINE SMOOTH",
"710 -1 OFFCURVE",
"650 -110 OFFCURVE",
"485 -105 CURVE",
"505 -250 LINE",
"756 -233 OFFCURVE",
"850 -98 OFFCURVE",
"850 201 CURVE SMOOTH"
);
}
);
width = 1000;
},
{
layerId = "75A0A031-BEAD-45F4-8089-5B3FA8FFE7DC";
paths = (
{
closed = 1;
nodes = (
"150 864 LINE",
"150 0 LINE",
"180 0 LINE",
"180 864 LINE"
);
},
{
closed = 1;
nodes = (
"850 641 LINE SMOOTH",
"850 806 OFFCURVE",
"772 880 OFFCURVE",
"591 880 CURVE SMOOTH",
"476 880 OFFCURVE",
"291 850 OFFCURVE",
"180 772 CURVE",
"180 737 LINE",
"296 824 OFFCURVE",
"481 853 OFFCURVE",
"592 853 CURVE SMOOTH",
"753 853 OFFCURVE",
"820 791 OFFCURVE",
"820 641 CURVE SMOOTH",
"820 201 LINE SMOOTH",
"820 -72 OFFCURVE",
"790 -173 OFFCURVE",
"478 -219 CURVE",
"485 -250 LINE",
"816 -203 OFFCURVE",
"850 -98 OFFCURVE",
"850 201 CURVE SMOOTH"
);
}
);
width = 1000;
}
);
unicode = 014B;
},
{
glyphname = o;
lastChange = "2023-05-22 02:16:25 +0000";
layers = (
{
anchors = (
{
name = bottom;
position = "{450, 0}";
},
{
name = center;
position = "{450, 384}";
},
{
name = ogonek;
position = "{750, 40}";
},
{
name = top;
position = "{450, 900}";
},
{
name = topright;
position = "{630, 768}";
}
);
hints = (
{
place = "{765, 145}";
type = Stem;
},
{
place = "{90, 145}";
type = Stem;
},
{
horizontal = 1;
place = "{-30, 135}";
type = Stem;
},
{
horizontal = 1;
place = "{890, 135}";
type = Stem;
}
);
layerId = "7B6A6B4E-EFCA-423F-B1F3-F70C1AFA501E";
paths = (
{
closed = 1;
nodes = (
"670 32 OFFCURVE",
"850 212 OFFCURVE",
"850 432 CURVE SMOOTH",
"850 652 OFFCURVE",
"670 832 OFFCURVE",
"450 832 CURVE SMOOTH",
"230 832 OFFCURVE",
"50 652 OFFCURVE",
"50 432 CURVE SMOOTH",
"50 212 OFFCURVE",
"230 32 OFFCURVE",
"450 32 CURVE SMOOTH"
);
}
);
width = 900;
},
{
anchors = (
{
name = bottom;
position = "{500, 0}";
},
{
name = center;
position = "{500, 384}";
},
{
name = ogonek;
position = "{800, 40}";
},
{
name = top;
position = "{500, 900}";
},
{
name = topright;
position = "{680, 768}";
}
);
hints = (
{
place = "{877, 33}";
type = Stem;
},
{
place = "{90, 33}";
type = Stem;
},
{
horizontal = 1;
place = "{-30, 27}";
type = Stem;
},
{
horizontal = 1;
place = "{890, 27}";
type = Stem;
}
);
layerId = "75A0A031-BEAD-45F4-8089-5B3FA8FFE7DC";
paths = (
{
closed = 1;
nodes = (
"750 689 OFFCURVE",
"701 729 OFFCURVE",
"572 729 CURVE SMOOTH",
"428 729 LINE SMOOTH",
"299 729 OFFCURVE",
"250 689 OFFCURVE",
"250 549 CURVE SMOOTH",
"250 315 LINE SMOOTH",
"250 175 OFFCURVE",
"299 135 OFFCURVE",
"428 135 CURVE SMOOTH",
"572 135 LINE SMOOTH",
"701 135 OFFCURVE",
"750 175 OFFCURVE",
"750 315 CURVE SMOOTH",
"750 549 LINE SMOOTH"
);
},
{
closed = 1;
nodes = (
"425 0 LINE SMOOTH",
"175 0 OFFCURVE",
"100 78 OFFCURVE",
"100 312 CURVE SMOOTH",
"100 552 LINE SMOOTH",
"100 786 OFFCURVE",
"175 864 OFFCURVE",
"425 864 CURVE SMOOTH",
"575 864 LINE SMOOTH",
"825 864 OFFCURVE",
"900 786 OFFCURVE",
"900 552 CURVE SMOOTH",
"900 312 LINE SMOOTH",
"900 78 OFFCURVE",
"825 0 OFFCURVE",
"575 0 CURVE SMOOTH"
);
}
);
width = 1000;
}
);
unicode = 006F;
},
{
glyphname = oe;
lastChange = "2020-04-22 03:26:02 +0000";
layers = (
{
layerId = "7B6A6B4E-EFCA-423F-B1F3-F70C1AFA501E";
paths = (
{
closed = 1;
nodes = (
"181 864 OFFCURVE",
"30 745 OFFCURVE",
"30 492 CURVE SMOOTH",
"30 372 LINE SMOOTH",
"30 108 OFFCURVE",
"181 0 OFFCURVE",
"450 0 CURVE SMOOTH",
"558 0 LINE",
"558 139 LINE",
"450 135 LINE SMOOTH",
"276 129 OFFCURVE",
"170 194 OFFCURVE",
"170 374 CURVE SMOOTH",
"170 490 LINE SMOOTH",
"170 640 OFFCURVE",
"276 729 OFFCURVE",
"450 729 CURVE SMOOTH",
"553 729 LINE",
"553 864 LINE",
"450 864 LINE SMOOTH"
);
},
{
closed = 1;
nodes = (
"970 0 LINE",
"970 135 LINE",
"640 135 LINE",
"640 344 LINE",
"970 344 LINE",
"970 474 LINE",
"640 474 LINE",
"640 729 LINE",
"970 729 LINE",
"970 864 LINE",
"500 864 LINE",
"500 0 LINE"
);
}
);
width = 1000;
},
{
layerId = "75A0A031-BEAD-45F4-8089-5B3FA8FFE7DC";
paths = (
{
closed = 1;
nodes = (
"211 864 OFFCURVE",
"60 693 OFFCURVE",
"60 510 CURVE SMOOTH",
"60 390 LINE SMOOTH",
"60 136 OFFCURVE",
"211 0 OFFCURVE",
"480 0 CURVE SMOOTH",
"548 0 LINE",
"548 24 LINE",
"480 25 LINE SMOOTH",
"226 29 OFFCURVE",
"90 162 OFFCURVE",
"90 392 CURVE SMOOTH",
"90 508 LINE SMOOTH",
"90 668 OFFCURVE",
"226 839 OFFCURVE",
"480 839 CURVE SMOOTH",
"543 839 LINE",
"543 864 LINE",
"480 864 LINE SMOOTH"
);
},
{
closed = 1;
nodes = (
"980 0 LINE",
"980 27 LINE",
"560 27 LINE",
"560 371 LINE",
"940 371 LINE",
"940 398 LINE",
"560 398 LINE",
"560 837 LINE",
"940 837 LINE",
"940 864 LINE",
"530 864 LINE",
"530 0 LINE"
);
}
);
width = 1000;
}
);
unicode = 0153;
},
{
glyphname = p;
lastChange = "2023-05-22 01:38:50 +0000";
layers = (
{
background = {
paths = (
{
closed = 1;
nodes = (
"160 864 LINE",
"160 -288 LINE",
"300 -288 LINE",
"300 864 LINE"
);
},
{
closed = 1;
nodes = (
"755 212 OFFCURVE",
"634 121 OFFCURVE",
"475 121 CURVE SMOOTH",
"408 121 OFFCURVE",
"347 137 OFFCURVE",
"300 153 CURVE",
"300 18 LINE",
"353 3 OFFCURVE",
"416 -14 OFFCURVE",
"502 -14 CURVE SMOOTH",
"782 -14 OFFCURVE",
"900 173 OFFCURVE",
"900 458 CURVE SMOOTH",
"900 687 OFFCURVE",
"834 882 OFFCURVE",
"600 882 CURVE SMOOTH",
"455 882 OFFCURVE",
"349 808 OFFCURVE",
"300 746 CURVE",
"300 604 LINE",
"347 667 OFFCURVE",
"445 747 OFFCURVE",
"562 747 CURVE SMOOTH",
"712 747 OFFCURVE",
"755 616 OFFCURVE",
"755 457 CURVE SMOOTH"
);
}
);
};
hints = (
{
place = "{765, 145}";
type = Stem;
},
{
horizontal = 1;
place = "{892, 138}";
type = Stem;
},
{
horizontal = 1;
place = "{-24, 140}";
type = Stem;
}
);
layerId = "7B6A6B4E-EFCA-423F-B1F3-F70C1AFA501E";
paths = (
{
closed = 1;
nodes = (
"64 864 OFFCURVE",
"50 848 OFFCURVE",
"50 812 CURVE SMOOTH",
"50 524 LINE SMOOTH",
"50 490 OFFCURVE",
"63 470 OFFCURVE",
"93 470 CURVE SMOOTH",
"477 470 LINE SMOOTH",
"533 470 OFFCURVE",
"577 426 OFFCURVE",
"577 370 CURVE SMOOTH",
"577 314 OFFCURVE",
"533 270 OFFCURVE",
"477 270 CURVE SMOOTH",
"93 270 LINE SMOOTH",
"63 270 OFFCURVE",
"50 250 OFFCURVE",
"50 216 CURVE SMOOTH",
"50 -128 LINE SMOOTH",
"50 -164 OFFCURVE",
"64 -180 OFFCURVE",
"103 -180 CURVE SMOOTH",
"297 -180 LINE SMOOTH",
"336 -180 OFFCURVE",
"350 -164 OFFCURVE",
"350 -128 CURVE SMOOTH",
"349 -100 LINE SMOOTH",
"349 -45 OFFCURVE",
"394 0 OFFCURVE",
"449 0 CURVE SMOOTH",
"770 0 LINE SMOOTH",
"871 0 OFFCURVE",
"848 67 OFFCURVE",
"848 176 CURVE SMOOTH",
"848 692 LINE SMOOTH",
"848 826 OFFCURVE",
"814 864 OFFCURVE",
"683 864 CURVE SMOOTH",
"615 864 LINE SMOOTH",
"584 864 OFFCURVE",
"566 863 OFFCURVE",
"542 837 CURVE",
"464 745 LINE",
"446 725 OFFCURVE",
"419 712 OFFCURVE",
"390 712 CURVE SMOOTH",
"335 712 OFFCURVE",
"288 757 OFFCURVE",
"290 812 CURVE SMOOTH",
"290 848 OFFCURVE",
"276 864 OFFCURVE",
"237 864 CURVE SMOOTH",
"103 864 LINE"
);
}
);
width = 900;
},
{
background = {
paths = (
{
closed = 1;
nodes = (
"160 864 LINE",
"160 -288 LINE",
"300 -288 LINE",
"300 864 LINE"
);
},
{
closed = 1;
nodes = (
"755 212 OFFCURVE",
"634 121 OFFCURVE",
"475 121 CURVE SMOOTH",
"408 121 OFFCURVE",
"347 137 OFFCURVE",
"300 153 CURVE",
"300 18 LINE",
"353 3 OFFCURVE",
"416 -14 OFFCURVE",
"502 -14 CURVE SMOOTH",
"782 -14 OFFCURVE",
"900 173 OFFCURVE",
"900 458 CURVE SMOOTH",
"900 687 OFFCURVE",
"834 882 OFFCURVE",
"600 882 CURVE SMOOTH",
"455 882 OFFCURVE",
"349 808 OFFCURVE",
"300 746 CURVE",
"300 604 LINE",
"347 667 OFFCURVE",
"445 747 OFFCURVE",
"562 747 CURVE SMOOTH",
"712 747 OFFCURVE",
"755 616 OFFCURVE",
"755 457 CURVE SMOOTH"
);
}
);
};
hints = (
{
origin = "{1, 5}";
target = "{0, 7}";
type = Stem;
},
{
horizontal = 1;
origin = "{0, 10}";
target = "{1, 2}";
type = Stem;
},
{
horizontal = 1;
origin = "{0, 4}";
target = "{1, 8}";
type = Stem;
}
);
layerId = "75A0A031-BEAD-45F4-8089-5B3FA8FFE7DC";
paths = (
{
closed = 1;
nodes = (
"180 -288 LINE",
"180 266 LINE",
"232 97 OFFCURVE",
"353 -24 OFFCURVE",
"534 -24 CURVE SMOOTH",
"762 -24 OFFCURVE",
"910 166 OFFCURVE",
"910 433 CURVE SMOOTH",
"910 687 OFFCURVE",
"774 892 OFFCURVE",
"542 892 CURVE SMOOTH",
"355 892 OFFCURVE",
"226 759 OFFCURVE",
"180 600 CURVE",
"180 864 LINE",
"150 864 LINE",
"150 -288 LINE"
);
},
{
closed = 1;
nodes = (
"180 677 OFFCURVE",
"337 865 OFFCURVE",
"544 865 CURVE SMOOTH",
"753 865 OFFCURVE",
"877 666 OFFCURVE",
"877 432 CURVE SMOOTH",
"877 182 OFFCURVE",
"753 3 OFFCURVE",
"534 3 CURVE SMOOTH",
"336 3 OFFCURVE",
"180 191 OFFCURVE",
"180 436 CURVE SMOOTH"
);
}
);
width = 1000;
}
);
unicode = 0070;
},
{
glyphname = thorn;
lastChange = "2020-04-20 15:49:30 +0000";
layers = (
{
layerId = "7B6A6B4E-EFCA-423F-B1F3-F70C1AFA501E";
paths = (
{
closed = 1;
nodes = (
"280 -288 LINE",
"280 116 LINE",
"335 17 OFFCURVE",
"443 -24 OFFCURVE",
"534 -24 CURVE SMOOTH",
"752 -24 OFFCURVE",
"910 166 OFFCURVE",
"910 433 CURVE SMOOTH",
"910 687 OFFCURVE",
"774 892 OFFCURVE",
"550 892 CURVE SMOOTH",
"425 892 OFFCURVE",
"336 829 OFFCURVE",
"280 720 CURVE",
"280 1152 LINE",
"140 1152 LINE",
"140 -288 LINE"
);
},
{
closed = 1;
nodes = (
"280 637 OFFCURVE",
"397 754 OFFCURVE",
"524 754 CURVE SMOOTH",
"672 754 OFFCURVE",
"765 596 OFFCURVE",
"765 432 CURVE SMOOTH",
"765 252 OFFCURVE",
"654 116 OFFCURVE",
"525 116 CURVE SMOOTH",
"407 116 OFFCURVE",
"280 231 OFFCURVE",
"280 436 CURVE SMOOTH"
);
}
);
width = 1000;
},
{
layerId = "75A0A031-BEAD-45F4-8089-5B3FA8FFE7DC";
paths = (
{
closed = 1;
nodes = (
"170 -288 LINE",
"170 266 LINE",
"222 97 OFFCURVE",
"343 -24 OFFCURVE",
"524 -24 CURVE SMOOTH",
"752 -24 OFFCURVE",
"910 166 OFFCURVE",
"910 433 CURVE SMOOTH",
"910 687 OFFCURVE",
"764 892 OFFCURVE",
"532 892 CURVE SMOOTH",
"345 892 OFFCURVE",
"216 759 OFFCURVE",
"170 600 CURVE",
"170 1152 LINE",
"140 1152 LINE",
"140 -288 LINE"
);
},
{
closed = 1;
nodes = (
"170 677 OFFCURVE",
"327 865 OFFCURVE",
"534 865 CURVE SMOOTH",
"743 865 OFFCURVE",
"877 666 OFFCURVE",
"877 432 CURVE SMOOTH",
"877 182 OFFCURVE",
"743 3 OFFCURVE",
"524 3 CURVE SMOOTH",
"326 3 OFFCURVE",
"170 191 OFFCURVE",
"170 436 CURVE SMOOTH"
);
}
);
width = 1000;
}
);
unicode = 00FE;
},
{
glyphname = q;
lastChange = "2023-05-22 01:38:53 +0000";
layers = (
{
layerId = "7B6A6B4E-EFCA-423F-B1F3-F70C1AFA501E";
paths = (
{
closed = 1;
nodes = (
"797 864 LINE",
"836 864 OFFCURVE",
"850 848 OFFCURVE",
"850 812 CURVE SMOOTH",
"850 648 LINE SMOOTH",
"850 614 OFFCURVE",
"837 594 OFFCURVE",
"807 594 CURVE SMOOTH",
"423 594 LINE SMOOTH",
"367 594 OFFCURVE",
"323 550 OFFCURVE",
"323 494 CURVE SMOOTH",
"323 438 OFFCURVE",
"367 394 OFFCURVE",
"423 394 CURVE SMOOTH",
"807 394 LINE SMOOTH",
"837 394 OFFCURVE",
"850 374 OFFCURVE",
"850 340 CURVE SMOOTH",
"850 -128 LINE SMOOTH",
"850 -164 OFFCURVE",
"836 -180 OFFCURVE",
"797 -180 CURVE SMOOTH",
"603 -180 LINE SMOOTH",
"564 -180 OFFCURVE",
"550 -164 OFFCURVE",
"550 -128 CURVE SMOOTH",
"551 35 LINE SMOOTH",
"551 90 OFFCURVE",
"506 135 OFFCURVE",
"451 135 CURVE SMOOTH",
"422 135 OFFCURVE",
"395 122 OFFCURVE",
"377 102 CURVE",
"319 27 LINE",
"295 1 OFFCURVE",
"277 0 OFFCURVE",
"246 0 CURVE SMOOTH",
"130 0 LINE SMOOTH",
"29 0 OFFCURVE",
"52 67 OFFCURVE",
"52 176 CURVE SMOOTH",
"52 692 LINE SMOOTH",
"52 826 OFFCURVE",
"87 864 OFFCURVE",
"217 864 CURVE SMOOTH"
);
}
);
width = 900;
},
{
layerId = "75A0A031-BEAD-45F4-8089-5B3FA8FFE7DC";
paths = (
{
closed = 1;
nodes = (
"90 120 OFFCURVE",
"250 -10 OFFCURVE",
"440 -10 CURVE SMOOTH",
"610 -10 OFFCURVE",
"764 88 OFFCURVE",
"830 282 CURVE",
"830 -288 LINE",
"860 -288 LINE",
"860 884 LINE",
"661 884 LINE SMOOTH",
"269 884 OFFCURVE",
"90 612 OFFCURVE",
"90 359 CURVE SMOOTH"
);
},
{
closed = 1;
nodes = (
"123 592 OFFCURVE",
"288 857 OFFCURVE",
"661 857 CURVE SMOOTH",
"830 857 LINE",
"830 446 LINE SMOOTH",
"830 191 OFFCURVE",
"640 20 OFFCURVE",
"440 20 CURVE SMOOTH",
"269 20 OFFCURVE",
"123 140 OFFCURVE",
"123 359 CURVE SMOOTH"
);
}
);
width = 1000;
}
);
unicode = 0071;
},
{
glyphname = r;
lastChange = "2023-05-22 01:38:55 +0000";
layers = (
{
anchors = (
{
name = bottom;
position = "{450, 0}";
},
{
name = top;
position = "{450, 900}";
}
);
background = {
paths = (
{
closed = 1;
nodes = (
"439 795 LINE SMOOTH",
"439 841 OFFCURVE",
"416 864 OFFCURVE",
"372 864 CURVE SMOOTH",
"73 864 LINE SMOOTH",
"31 864 OFFCURVE",
"10 841 OFFCURVE",
"10 795 CURVE",
"10 633 LINE SMOOTH",
"10 587 OFFCURVE",
"31 564 OFFCURVE",
"73 564 CURVE SMOOTH",
"372 564 LINE SMOOTH",
"416 564 OFFCURVE",
"439 587 OFFCURVE",
"439 633 CURVE"
);
},
{
closed = 1;
nodes = (
"950 849 OFFCURVE",
"933 864 OFFCURVE",
"898 864 CURVE SMOOTH",
"608 864 LINE SMOOTH",
"578 864 OFFCURVE",
"558 864 OFFCURVE",
"535 837 CURVE SMOOTH",
"225 467 LINE SMOOTH",
"208 446 OFFCURVE",
"200 429 OFFCURVE",
"200 404 CURVE SMOOTH",
"200 52 LINE SMOOTH",
"200 17 OFFCURVE",
"216 0 OFFCURVE",
"256 0 CURVE SMOOTH",
"412 0 LINE SMOOTH",
"452 0 OFFCURVE",
"460 17 OFFCURVE",
"460 52 CURVE SMOOTH",
"460 335 LINE SMOOTH",
"460 357 OFFCURVE",
"464 363 OFFCURVE",
"475 376 CURVE SMOOTH",
"615 548 LINE SMOOTH",
"623 558 OFFCURVE",
"631 564 OFFCURVE",
"648 564 CURVE SMOOTH",
"671 564 LINE SMOOTH",
"683 564 OFFCURVE",
"690 557 OFFCURVE",
"690 546 CURVE SMOOTH",
"690 452 LINE SMOOTH",
"690 417 OFFCURVE",
"707 400 OFFCURVE",
"738 400 CURVE SMOOTH",
"905 400 LINE SMOOTH",
"935 400 OFFCURVE",
"950 417 OFFCURVE",
"950 452 CURVE SMOOTH",
"950 818 LINE SMOOTH"
);
}
);
};
layerId = "7B6A6B4E-EFCA-423F-B1F3-F70C1AFA501E";
paths = (
{
closed = 1;
nodes = (
"450 746 OFFCURVE",
"495 701 OFFCURVE",
"550 701 CURVE SMOOTH",
"605 701 OFFCURVE",
"650 746 OFFCURVE",
"650 801 CURVE SMOOTH",
"650 812 LINE SMOOTH",
"650 847 OFFCURVE",
"667 864 OFFCURVE",
"698 864 CURVE SMOOTH",
"805 864 LINE SMOOTH",
"835 864 OFFCURVE",
"850 847 OFFCURVE",
"850 812 CURVE SMOOTH",
"850 286 LINE SMOOTH",
"850 251 OFFCURVE",
"835 234 OFFCURVE",
"805 234 CURVE SMOOTH",
"698 234 LINE SMOOTH",
"667 234 OFFCURVE",
"650 251 OFFCURVE",
"650 286 CURVE SMOOTH",
"650 297 LINE SMOOTH",
"650 352 OFFCURVE",
"605 397 OFFCURVE",
"550 397 CURVE SMOOTH",
"495 397 OFFCURVE",
"450 352 OFFCURVE",
"450 297 CURVE SMOOTH",
"450 52 LINE SMOOTH",
"450 17 OFFCURVE",
"442 0 OFFCURVE",
"402 0 CURVE SMOOTH",
"236 0 LINE SMOOTH",
"196 0 OFFCURVE",
"180 17 OFFCURVE",
"180 52 CURVE SMOOTH",
"180 414 LINE SMOOTH",
"180 469 OFFCURVE",
"135 514 OFFCURVE",
"80 514 CURVE SMOOTH",
"61 514 OFFCURVE",
"50 527 OFFCURVE",
"50 553 CURVE SMOOTH",
"50 795 LINE SMOOTH",
"50 841 OFFCURVE",
"72 864 OFFCURVE",
"113 864 CURVE SMOOTH",
"391 864 LINE",
"431 866 OFFCURVE",
"450 855 OFFCURVE",
"450 819 CURVE SMOOTH",
"450 801 LINE"
);
}
);
width = 900;
},
{
anchors = (
{
name = bottom;
position = "{500, 0}";
},
{
name = top;
position = "{500, 900}";
}
);
background = {
paths = (
{
closed = 1;
nodes = (
"362 118 LINE",
"120 98 LINE",
"120 0 LINE",
"824 0 LINE",
"824 98 LINE"
);
},
{
closed = 1;
nodes = (
"316 766 LINE",
"735 746 LINE",
"751 600 LINE",
"880 600 LINE",
"854 864 LINE",
"316 864 LINE"
);
},
{
closed = 1;
nodes = (
"450 0 LINE",
"450 810 LINE",
"316 810 LINE",
"316 0 LINE"
);
},
{
closed = 1;
nodes = (
"352 118 LINE",
"120 118 LINE",
"120 0 LINE",
"734 0 LINE",
"734 118 LINE"
);
}
);
};
layerId = "75A0A031-BEAD-45F4-8089-5B3FA8FFE7DC";
paths = (
{
closed = 1;
nodes = (
"950 849 OFFCURVE",
"933 864 OFFCURVE",
"898 864 CURVE SMOOTH",
"504 864 LINE SMOOTH",
"480 864 OFFCURVE",
"463 866 OFFCURVE",
"444 845 CURVE SMOOTH",
"398 795 LINE SMOOTH",
"391 787 OFFCURVE",
"383 783 OFFCURVE",
"373 783 CURVE SMOOTH",
"363 783 OFFCURVE",
"356 787 OFFCURVE",
"348 795 CURVE SMOOTH",
"302 845 LINE SMOOTH",
"288 860 OFFCURVE",
"275 864 OFFCURVE",
"242 864 CURVE SMOOTH",
"53 864 LINE SMOOTH",
"21 864 OFFCURVE",
"10 851 OFFCURVE",
"10 825 CURVE SMOOTH",
"10 768 LINE SMOOTH",
"10 742 OFFCURVE",
"21 729 OFFCURVE",
"53 729 CURVE SMOOTH",
"266 729 LINE SMOOTH",
"292 729 OFFCURVE",
"300 720 OFFCURVE",
"300 692 CURVE SMOOTH",
"300 52 LINE SMOOTH",
"300 17 OFFCURVE",
"316 0 OFFCURVE",
"356 0 CURVE SMOOTH",
"402 0 LINE SMOOTH",
"442 0 OFFCURVE",
"450 17 OFFCURVE",
"450 52 CURVE SMOOTH",
"450 692 LINE SMOOTH",
"450 716 OFFCURVE",
"456 729 OFFCURVE",
"483 729 CURVE SMOOTH",
"781 729 LINE SMOOTH",
"793 729 OFFCURVE",
"800 722 OFFCURVE",
"800 711 CURVE SMOOTH",
"800 486 LINE SMOOTH",
"800 451 OFFCURVE",
"817 434 OFFCURVE",
"848 434 CURVE SMOOTH",
"905 434 LINE SMOOTH",
"935 434 OFFCURVE",
"950 451 OFFCURVE",
"950 486 CURVE SMOOTH",
"950 818 LINE SMOOTH"
);
}
);
width = 1000;
}
);
unicode = 0072;
},
{
glyphname = s;
lastChange = "2023-05-22 01:38:59 +0000";
layers = (
{
anchors = (
{
name = bottom;
position = "{450, 0}";
},
{
name = top;
position = "{450, 900}";
}
);
background = {
paths = (
{
closed = 1;
nodes = (
"400 270 LINE SMOOTH",
"364 270 OFFCURVE",
"350 249 OFFCURVE",
"350 210 CURVE SMOOTH",
"350 52 LINE SMOOTH",
"350 17 OFFCURVE",
"364 0 OFFCURVE",
"393 0 CURVE SMOOTH",
"890 0 LINE SMOOTH",
"936 0 OFFCURVE",
"950 11 OFFCURVE",
"950 70 CURVE SMOOTH",
"950 613 LINE SMOOTH",
"950 638 OFFCURVE",
"941 660 OFFCURVE",
"925 676 CURVE SMOOTH",
"745 856 LINE SMOOTH",
"719 882 OFFCURVE",
"696 895 OFFCURVE",
"640 857 CURVE SMOOTH",
"402 697 LINE SMOOTH",
"369 675 OFFCURVE",
"350 681 OFFCURVE",
"350 716 CURVE SMOOTH",
"350 811 LINE SMOOTH",
"350 850 OFFCURVE",
"330 864 OFFCURVE",
"295 864 CURVE SMOOTH",
"102 864 LINE SMOOTH",
"67 864 OFFCURVE",
"50 850 OFFCURVE",
"50 811 CURVE SMOOTH",
"50 635 LINE SMOOTH",
"50 590 OFFCURVE",
"57 569 OFFCURVE",
"75 552 CURVE SMOOTH",
"255 382 LINE SMOOTH",
"281 357 OFFCURVE",
"307 341 OFFCURVE",
"357 373 CURVE SMOOTH",
"628 543 LINE SMOOTH",
"658 562 OFFCURVE",
"680 559 OFFCURVE",
"680 524 CURVE SMOOTH",
"680 310 LINE SMOOTH",
"680 280 OFFCURVE",
"671 270 OFFCURVE",
"642 270 CURVE SMOOTH"
);
},
{
closed = 1;
nodes = (
"336 1393 OFFCURVE",
"331 1370 OFFCURVE",
"296 1370 CURVE SMOOTH",
"53 1370 LINE SMOOTH",
"14 1370 OFFCURVE",
"0 1350 OFFCURVE",
"0 1315 CURVE SMOOTH",
"0 1152 LINE SMOOTH",
"0 1117 OFFCURVE",
"14 1100 OFFCURVE",
"53 1100 CURVE SMOOTH",
"537 1100 LINE SMOOTH",
"562 1100 OFFCURVE",
"584 1109 OFFCURVE",
"600 1125 CURVE SMOOTH",
"720 1245 LINE SMOOTH",
"775 1300 OFFCURVE",
"787 1357 OFFCURVE",
"725 1444 CURVE SMOOTH",
"585 1642 LINE SMOOTH",
"565 1670 OFFCURVE",
"569 1694 OFFCURVE",
"604 1694 CURVE SMOOTH",
"947 1694 LINE SMOOTH",
"986 1694 OFFCURVE",
"1000 1714 OFFCURVE",
"1000 1749 CURVE SMOOTH",
"1000 1912 LINE SMOOTH",
"1000 1947 OFFCURVE",
"986 1964 OFFCURVE",
"947 1964 CURVE SMOOTH",
"355 1964 LINE SMOOTH",
"330 1964 OFFCURVE",
"308 1955 OFFCURVE",
"292 1939 CURVE SMOOTH",
"192 1839 LINE SMOOTH",
"132 1779 OFFCURVE",
"118 1696 OFFCURVE",
"175 1617 CURVE SMOOTH",
"315 1422 LINE SMOOTH"
);
}
);
};
hints = (
{
horizontal = 1;
place = "{864, 135}";
type = Stem;
},
{
place = "{170, 140}";
type = Stem;
},
{
place = "{740, 140}";
type = Stem;
},
{
horizontal = 1;
place = "{-30, 135}";
type = Stem;
}
);
layerId = "7B6A6B4E-EFCA-423F-B1F3-F70C1AFA501E";
paths = (
{
closed = 1;
nodes = (
"94 170 LINE SMOOTH",
"65 170 OFFCURVE",
"51 150 OFFCURVE",
"51 115 CURVE SMOOTH",
"51 52 LINE SMOOTH",
"51 17 OFFCURVE",
"65 0 OFFCURVE",
"94 0 CURVE SMOOTH",
"808 0 LINE SMOOTH",
"837 0 OFFCURVE",
"850 17 OFFCURVE",
"850 52 CURVE SMOOTH",
"850 172 LINE",
"850 302 LINE SMOOTH",
"850 440 OFFCURVE",
"807 492 OFFCURVE",
"690 492 CURVE SMOOTH",
"621 492 LINE SMOOTH",
"565 492 OFFCURVE",
"521 536 OFFCURVE",
"521 592 CURVE SMOOTH",
"521 648 OFFCURVE",
"565 692 OFFCURVE",
"621 692 CURVE SMOOTH",
"807 692 LINE SMOOTH",
"836 692 OFFCURVE",
"850 712 OFFCURVE",
"850 747 CURVE SMOOTH",
"850 812 LINE SMOOTH",
"850 847 OFFCURVE",
"836 864 OFFCURVE",
"807 864 CURVE SMOOTH",
"93 864 LINE SMOOTH",
"64 864 OFFCURVE",
"50 847 OFFCURVE",
"50 812 CURVE SMOOTH",
"51 692 LINE",
"51 560 LINE SMOOTH",
"51 422 OFFCURVE",
"94 370 OFFCURVE",
"211 370 CURVE SMOOTH",
"310 370 LINE SMOOTH",
"366 370 OFFCURVE",
"410 326 OFFCURVE",
"410 270 CURVE SMOOTH",
"410 214 OFFCURVE",
"366 170 OFFCURVE",
"310 170 CURVE SMOOTH"
);
}
);
width = 900;
},
{
anchors = (
{
name = bottom;
position = "{500, 0}";
},
{
name = top;
position = "{500, 900}";
}
);
background = {
paths = (
{
closed = 1;
nodes = (
"850 16 OFFCURVE",
"716 -30 OFFCURVE",
"457 -30 CURVE SMOOTH",
"338 -30 OFFCURVE",
"247 -21 OFFCURVE",
"172 0 CURVE",
"172 140 LINE",
"245 127 OFFCURVE",
"337 105 OFFCURVE",
"463 105 CURVE SMOOTH",
"644 105 OFFCURVE",
"694 150 OFFCURVE",
"694 222 CURVE SMOOTH",
"694 465 OFFCURVE",
"150 219 OFFCURVE",
"150 620 CURVE SMOOTH",
"150 772 OFFCURVE",
"226 890 OFFCURVE",
"506 890 CURVE SMOOTH",
"596 890 OFFCURVE",
"737 875 OFFCURVE",
"796 856 CURVE",
"770 723 LINE",
"720 736 OFFCURVE",
"582 755 OFFCURVE",
"500 755 CURVE SMOOTH",
"359 755 OFFCURVE",
"306 696 OFFCURVE",
"306 622 CURVE SMOOTH",
"306 389 OFFCURVE",
"850 632 OFFCURVE",
"850 227 CURVE SMOOTH"
);
},
{
closed = 1;
nodes = (
"373 746 OFFCURVE",
"302 720 OFFCURVE",
"302 642 CURVE SMOOTH",
"302 427 OFFCURVE",
"850 618 OFFCURVE",
"850 236 CURVE SMOOTH",
"850 58 OFFCURVE",
"735 -15 OFFCURVE",
"450 -15 CURVE SMOOTH",
"353 -15 OFFCURVE",
"234 -8 OFFCURVE",
"160 8 CURVE",
"180 154 LINE",
"252 135 OFFCURVE",
"331 120 OFFCURVE",
"449 120 CURVE SMOOTH",
"639 120 OFFCURVE",
"708 161 OFFCURVE",
"708 238 CURVE SMOOTH",
"708 461 OFFCURVE",
"160 269 OFFCURVE",
"160 642 CURVE SMOOTH",
"160 818 OFFCURVE",
"285 884 OFFCURVE",
"536 884 CURVE SMOOTH",
"634 884 OFFCURVE",
"757 874 OFFCURVE",
"811 862 CURVE",
"791 724 LINE",
"731 735 OFFCURVE",
"638 746 OFFCURVE",
"536 746 CURVE SMOOTH"
);
}
);
};
hints = (
{
horizontal = 1;
place = "{891, 27}";
type = Stem;
},
{
place = "{170, 33}";
type = Stem;
},
{
place = "{847, 33}";
type = Stem;
},
{
horizontal = 1;
place = "{-30, 27}";
type = Stem;
}
);
layerId = "75A0A031-BEAD-45F4-8089-5B3FA8FFE7DC";
paths = (
{
closed = 1;
nodes = (
"252 135 LINE SMOOTH",
"216 135 OFFCURVE",
"202 114 OFFCURVE",
"202 75 CURVE SMOOTH",
"202 52 LINE SMOOTH",
"202 17 OFFCURVE",
"216 0 OFFCURVE",
"245 0 CURVE SMOOTH",
"820 0 LINE SMOOTH",
"866 0 OFFCURVE",
"880 11 OFFCURVE",
"880 70 CURVE SMOOTH",
"880 553 LINE SMOOTH",
"880 618 OFFCURVE",
"859 637 OFFCURVE",
"789 725 CURVE SMOOTH",
"769 750 LINE SMOOTH",
"679 863 OFFCURVE",
"633 887 OFFCURVE",
"590 837 CURVE SMOOTH",
"313 521 LINE SMOOTH",
"290 495 OFFCURVE",
"220 628 OFFCURVE",
"220 673 CURVE SMOOTH",
"220 811 LINE SMOOTH",
"220 850 OFFCURVE",
"200 864 OFFCURVE",
"165 864 CURVE SMOOTH",
"122 864 LINE SMOOTH",
"87 864 OFFCURVE",
"70 850 OFFCURVE",
"70 811 CURVE SMOOTH",
"70 658 LINE SMOOTH",
"70 593 OFFCURVE",
"91 554 OFFCURVE",
"161 466 CURVE SMOOTH",
"181 441 LINE SMOOTH",
"271 328 OFFCURVE",
"317 304 OFFCURVE",
"360 354 CURVE SMOOTH",
"637 670 LINE SMOOTH",
"660 696 OFFCURVE",
"730 583 OFFCURVE",
"730 538 CURVE SMOOTH",
"730 175 LINE SMOOTH",
"730 145 OFFCURVE",
"721 135 OFFCURVE",
"692 135 CURVE SMOOTH"
);
}
);
width = 1000;
}
);
unicode = 0073;
},
{
glyphname = germandbls;
lastChange = "2020-05-02 19:22:22 +0000";
layers = (
{
background = {
paths = (
{
closed = 1;
nodes = (
"-48 40 LINE",
"-48 0 LINE",
"178 0 LINE",
"178 40 LINE"
);
},
{
closed = 1;
nodes = (
"433 688 OFFCURVE",
"343 720 OFFCURVE",
"256 720 CURVE SMOOTH",
"141 720 OFFCURVE",
"30 663 OFFCURVE",
"30 486 CURVE SMOOTH",
"30 24 LINE",
"110 24 LINE",
"110 492 LINE SMOOTH",
"110 603 OFFCURVE",
"119 676 OFFCURVE",
"237 676 CURVE SMOOTH",
"331 676 OFFCURVE",
"352 630 OFFCURVE",
"352 585 CURVE SMOOTH",
"352 555 OFFCURVE",
"343 526 OFFCURVE",
"295 506 CURVE SMOOTH",
"218 474 OFFCURVE",
"185 431 OFFCURVE",
"185 372 CURVE SMOOTH",
"185 304 OFFCURVE",
"229 250 OFFCURVE",
"322 195 CURVE SMOOTH",
"393 153 OFFCURVE",
"419 125 OFFCURVE",
"419 92 CURVE SMOOTH",
"419 56 OFFCURVE",
"388 31 OFFCURVE",
"354 21 CURVE",
"240 63 LINE",
"215 10 LINE",
"256 -4 OFFCURVE",
"298 -14 OFFCURVE",
"342 -14 CURVE SMOOTH",
"433 -14 OFFCURVE",
"495 30 OFFCURVE",
"495 109 CURVE SMOOTH",
"495 174 OFFCURVE",
"453 210 OFFCURVE",
"366 263 CURVE SMOOTH",
"297 305 OFFCURVE",
"258 335 OFFCURVE",
"258 386 CURVE SMOOTH",
"258 418 OFFCURVE",
"273 450 OFFCURVE",
"321 470 CURVE SMOOTH",
"398 502 OFFCURVE",
"433 525 OFFCURVE",
"433 587 CURVE SMOOTH"
);
}
);
};
layerId = "7B6A6B4E-EFCA-423F-B1F3-F70C1AFA501E";
paths = (
{
closed = 1;
nodes = (
"446 -9 OFFCURVE",
"575 -30 OFFCURVE",
"657 -30 CURVE SMOOTH",
"842 -30 OFFCURVE",
"950 80 OFFCURVE",
"950 246 CURVE SMOOTH",
"950 580 OFFCURVE",
"546 393 OFFCURVE",
"546 562 CURVE SMOOTH",
"546 718 OFFCURVE",
"887 571 OFFCURVE",
"887 890 CURVE SMOOTH",
"887 1106 OFFCURVE",
"730 1152 OFFCURVE",
"542 1152 CURVE SMOOTH",
"258 1152 OFFCURVE",
"110 1044 OFFCURVE",
"110 622 CURVE SMOOTH",
"110 0 LINE",
"250 0 LINE",
"250 622 LINE SMOOTH",
"250 904 OFFCURVE",
"310 1017 OFFCURVE",
"539 1017 CURVE SMOOTH",
"687 1017 OFFCURVE",
"747 966 OFFCURVE",
"747 885 CURVE SMOOTH",
"747 692 OFFCURVE",
"406 855 OFFCURVE",
"406 560 CURVE SMOOTH",
"406 235 OFFCURVE",
"810 443 OFFCURVE",
"810 236 CURVE SMOOTH",
"810 163 OFFCURVE",
"756 105 OFFCURVE",
"657 105 CURVE SMOOTH",
"589 105 OFFCURVE",
"491 132 OFFCURVE",
"431 172 CURVE",
"374 46 LINE"
);
}
);
width = 1000;
},
{
background = {
paths = (
{
closed = 1;
nodes = (
"-48 40 LINE",
"-48 0 LINE",
"178 0 LINE",
"178 40 LINE"
);
},
{
closed = 1;
nodes = (
"433 688 OFFCURVE",
"343 720 OFFCURVE",
"256 720 CURVE SMOOTH",
"141 720 OFFCURVE",
"30 663 OFFCURVE",
"30 486 CURVE SMOOTH",
"30 24 LINE",
"110 24 LINE",
"110 492 LINE SMOOTH",
"110 603 OFFCURVE",
"119 676 OFFCURVE",
"237 676 CURVE SMOOTH",
"331 676 OFFCURVE",
"352 630 OFFCURVE",
"352 585 CURVE SMOOTH",
"352 555 OFFCURVE",
"343 526 OFFCURVE",
"295 506 CURVE SMOOTH",
"218 474 OFFCURVE",
"185 431 OFFCURVE",
"185 372 CURVE SMOOTH",
"185 304 OFFCURVE",
"229 250 OFFCURVE",
"322 195 CURVE SMOOTH",
"393 153 OFFCURVE",
"419 125 OFFCURVE",
"419 92 CURVE SMOOTH",
"419 56 OFFCURVE",
"388 31 OFFCURVE",
"354 21 CURVE",
"240 63 LINE",
"215 10 LINE",
"256 -4 OFFCURVE",
"298 -14 OFFCURVE",
"342 -14 CURVE SMOOTH",
"433 -14 OFFCURVE",
"495 30 OFFCURVE",
"495 109 CURVE SMOOTH",
"495 174 OFFCURVE",
"453 210 OFFCURVE",
"366 263 CURVE SMOOTH",
"297 305 OFFCURVE",
"258 335 OFFCURVE",
"258 386 CURVE SMOOTH",
"258 418 OFFCURVE",
"273 450 OFFCURVE",
"321 470 CURVE SMOOTH",
"398 502 OFFCURVE",
"433 525 OFFCURVE",
"433 587 CURVE SMOOTH"
);
}
);
};
layerId = "75A0A031-BEAD-45F4-8089-5B3FA8FFE7DC";
paths = (
{
closed = 1;
nodes = (
"440 6 OFFCURVE",
"556 -30 OFFCURVE",
"662 -30 CURVE SMOOTH",
"841 -30 OFFCURVE",
"950 80 OFFCURVE",
"950 218 CURVE SMOOTH",
"950 530 OFFCURVE",
"406 283 OFFCURVE",
"406 562 CURVE SMOOTH",
"406 818 OFFCURVE",
"887 601 OFFCURVE",
"887 932 CURVE SMOOTH",
"887 1126 OFFCURVE",
"720 1152 OFFCURVE",
"529 1152 CURVE SMOOTH",
"278 1152 OFFCURVE",
"120 1104 OFFCURVE",
"120 622 CURVE SMOOTH",
"120 0 LINE",
"150 0 LINE",
"150 622 LINE SMOOTH",
"150 1078 OFFCURVE",
"282 1127 OFFCURVE",
"529 1127 CURVE SMOOTH",
"706 1127 OFFCURVE",
"857 1101 OFFCURVE",
"857 932 CURVE SMOOTH",
"857 631 OFFCURVE",
"376 855 OFFCURVE",
"376 560 CURVE SMOOTH",
"376 245 OFFCURVE",
"921 500 OFFCURVE",
"921 218 CURVE SMOOTH",
"921 103 OFFCURVE",
"825 -3 OFFCURVE",
"662 -3 CURVE SMOOTH",
"564 -3 OFFCURVE",
"459 32 OFFCURVE",
"394 106 CURVE",
"374 82 LINE"
);
}
);
width = 1000;
}
);
unicode = 00DF;
},
{
glyphname = longs;
lastChange = "2020-04-20 15:16:29 +0000";
layers = (
{
layerId = "7B6A6B4E-EFCA-423F-B1F3-F70C1AFA501E";
paths = (
{
closed = 1;
nodes = (
"515 0 LINE",
"515 922 LINE SMOOTH",
"515 1004 OFFCURVE",
"660 1007 OFFCURVE",
"900 1007 CURVE",
"900 1152 LINE",
"617 1149 OFFCURVE",
"375 1144 OFFCURVE",
"375 922 CURVE SMOOTH",
"375 0 LINE"
);
}
);
width = 1000;
},
{
layerId = "75A0A031-BEAD-45F4-8089-5B3FA8FFE7DC";
paths = (
{
closed = 1;
nodes = (
"405 0 LINE",
"405 912 LINE SMOOTH",
"405 1114 OFFCURVE",
"630 1122 OFFCURVE",
"900 1122 CURVE",
"900 1152 LINE",
"617 1152 OFFCURVE",
"375 1144 OFFCURVE",
"375 912 CURVE SMOOTH",
"375 0 LINE"
);
}
);
width = 1000;
}
);
unicode = 017F;
},
{
glyphname = t;
lastChange = "2023-05-22 01:39:01 +0000";
layers = (
{
anchors = (
{
name = bottom;
position = "{460, 0}";
},
{
name = center;
position = "{460, 330}";
},
{
name = top;
position = "{460, 768}";
},
{
name = topright;
position = "{1030, 1152}";
}
);
background = {
paths = (
{
closed = 1;
nodes = (
"740 0 LINE",
"854 26 LINE",
"854 146 LINE",
"706 111 LINE",
"328 98 LINE",
"328 1075 LINE",
"194 1075 LINE",
"194 0 LINE"
);
},
{
closed = 1;
nodes = (
"854 670 LINE",
"854 768 LINE",
"132 768 LINE",
"132 670 LINE",
"369 650 LINE"
);
}
);
};
hints = (
{
horizontal = 1;
place = "{729, 0}";
type = Delta;
settings = {
deltaV = {
"{100, 134, 0, 0, 0, 0}" = {
"16" = -4;
};
};
};
},
{
horizontal = 1;
place = "{729, 0}";
type = Delta;
settings = {
deltaV = {
"{100, 134, 0, 0, 0, 0}" = {
"16" = -4;
};
};
};
},
{
horizontal = 1;
place = "{864, 0}";
type = Delta;
settings = {
deltaV = {
"{100, 134, 0, 0, 0, 0}" = {
"16" = -4;
};
};
};
},
{
horizontal = 1;
place = "{864, 0}";
type = Delta;
settings = {
deltaV = {
"{100, 134, 0, 0, 0, 0}" = {
"16" = -4;
};
};
};
}
);
layerId = "7B6A6B4E-EFCA-423F-B1F3-F70C1AFA501E";
paths = (
{
closed = 1;
nodes = (
"360 494 LINE SMOOTH",
"360 549 OFFCURVE",
"405 594 OFFCURVE",
"460 594 CURVE SMOOTH",
"793 594 LINE SMOOTH",
"837 594 OFFCURVE",
"860 617 OFFCURVE",
"860 663 CURVE SMOOTH",
"860 795 LINE SMOOTH",
"860 841 OFFCURVE",
"837 864 OFFCURVE",
"793 864 CURVE SMOOTH",
"460 864 LINE SMOOTH",
"405 864 OFFCURVE",
"360 909 OFFCURVE",
"360 964 CURVE SMOOTH",
"360 992 LINE SMOOTH",
"360 1028 OFFCURVE",
"346 1044 OFFCURVE",
"307 1044 CURVE SMOOTH",
"113 1044 LINE SMOOTH",
"74 1044 OFFCURVE",
"60 1028 OFFCURVE",
"60 992 CURVE SMOOTH",
"60 260 LINE SMOOTH",
"60 235 OFFCURVE",
"69 213 OFFCURVE",
"85 197 CURVE SMOOTH",
"255 27 LINE SMOOTH",
"280 2 OFFCURVE",
"298 0 OFFCURVE",
"328 0 CURVE SMOOTH",
"817 0 LINE SMOOTH",
"846 0 OFFCURVE",
"860 17 OFFCURVE",
"860 52 CURVE SMOOTH",
"860 220 LINE SMOOTH",
"860 249 OFFCURVE",
"846 270 OFFCURVE",
"810 270 CURVE SMOOTH",
"460 270 LINE SMOOTH",
"405 270 OFFCURVE",
"360 315 OFFCURVE",
"360 370 CURVE SMOOTH"
);
}
);
width = 900;
},
{
anchors = (
{
name = bottom;
position = "{500, 0}";
},
{
name = center;
position = "{500, 330}";
},
{
name = top;
position = "{500, 768}";
},
{
name = topright;
position = "{1070, 1152}";
}
);
background = {
paths = (
{
closed = 1;
nodes = (
"740 0 LINE",
"854 26 LINE",
"854 146 LINE",
"706 111 LINE",
"328 98 LINE",
"328 1075 LINE",
"194 1075 LINE",
"194 0 LINE"
);
},
{
closed = 1;
nodes = (
"854 670 LINE",
"854 768 LINE",
"132 768 LINE",
"132 670 LINE",
"369 650 LINE"
);
}
);
};
hints = (
{
horizontal = 1;
place = "{834, 0}";
type = Delta;
settings = {
deltaV = {
"{100, 134, 0, 0, 0, 0}" = {
"16" = -4;
};
};
};
},
{
horizontal = 1;
place = "{834, 0}";
type = Delta;
settings = {
deltaV = {
"{100, 134, 0, 0, 0, 0}" = {
"16" = -4;
};
};
};
},
{
horizontal = 1;
place = "{864, 0}";
type = Delta;
settings = {
deltaV = {
"{100, 134, 0, 0, 0, 0}" = {
"16" = -4;
};
};
};
},
{
horizontal = 1;
place = "{864, 0}";
type = Delta;
settings = {
deltaV = {
"{100, 134, 0, 0, 0, 0}" = {
"16" = -4;
};
};
};
}
);
layerId = "75A0A031-BEAD-45F4-8089-5B3FA8FFE7DC";
paths = (
{
closed = 1;
nodes = (
"837 741 LINE SMOOTH",
"866 741 OFFCURVE",
"880 758 OFFCURVE",
"880 793 CURVE SMOOTH",
"880 814 LINE SMOOTH",
"880 843 OFFCURVE",
"866 864 OFFCURVE",
"830 864 CURVE SMOOTH",
"368 864 LINE SMOOTH",
"339 864 OFFCURVE",
"310 884 OFFCURVE",
"310 924 CURVE SMOOTH",
"310 992 LINE SMOOTH",
"310 1028 OFFCURVE",
"296 1044 OFFCURVE",
"257 1044 CURVE SMOOTH",
"213 1044 LINE SMOOTH",
"174 1044 OFFCURVE",
"160 1028 OFFCURVE",
"160 992 CURVE SMOOTH",
"160 270 LINE SMOOTH",
"160 245 OFFCURVE",
"168 224 OFFCURVE",
"185 207 CURVE SMOOTH",
"365 27 LINE SMOOTH",
"390 2 OFFCURVE",
"408 0 OFFCURVE",
"438 0 CURVE SMOOTH",
"837 0 LINE SMOOTH",
"866 0 OFFCURVE",
"880 17 OFFCURVE",
"880 52 CURVE SMOOTH",
"880 73 LINE SMOOTH",
"880 102 OFFCURVE",
"866 123 OFFCURVE",
"830 123 CURVE SMOOTH",
"558 123 LINE SMOOTH",
"424 123 OFFCURVE",
"310 234 OFFCURVE",
"310 370 CURVE SMOOTH",
"310 681 LINE SMOOTH",
"310 721 OFFCURVE",
"339 741 OFFCURVE",
"368 741 CURVE SMOOTH"
);
}
);
width = 1000;
}
);
unicode = 0074;
},
{
glyphname = tbar;
lastChange = "2020-04-21 00:56:11 +0000";
layers = (
{
components = (
{
name = t;
}
);
layerId = "7B6A6B4E-EFCA-423F-B1F3-F70C1AFA501E";
paths = (
{
closed = 1;
nodes = (
"100 353 LINE",
"900 353 LINE",
"900 488 LINE",
"100 488 LINE"
);
}
);
width = 1000;
},
{
components = (
{
name = t;
}
);
layerId = "75A0A031-BEAD-45F4-8089-5B3FA8FFE7DC";
paths = (
{
closed = 1;
nodes = (
"100 434 LINE",
"900 434 LINE",
"900 464 LINE",
"100 464 LINE"
);
}
);
width = 1000;
}
);
unicode = 0167;
},
{
glyphname = u;
lastChange = "2023-05-22 01:39:03 +0000";
layers = (
{
anchors = (
{
name = bottom;
position = "{450, 0}";
},
{
name = ogonek;
position = "{830, 10}";
},
{
name = top;
position = "{450, 900}";
},
{
name = topright;
position = "{730, 768}";
}
);
background = {
paths = (
{
closed = 1;
nodes = (
"850 0 LINE",
"850 864 LINE",
"710 864 LINE",
"710 0 LINE"
);
},
{
closed = 1;
nodes = (
"710 214 LINE",
"612 138 OFFCURVE",
"529 114 OFFCURVE",
"448 114 CURVE SMOOTH",
"363 114 OFFCURVE",
"290 141 OFFCURVE",
"290 291 CURVE SMOOTH",
"290 864 LINE",
"150 864 LINE",
"150 223 LINE SMOOTH",
"150 58 OFFCURVE",
"228 -16 OFFCURVE",
"409 -16 CURVE SMOOTH",
"524 -16 OFFCURVE",
"619 14 OFFCURVE",
"710 92 CURVE"
);
}
);
};
layerId = "7B6A6B4E-EFCA-423F-B1F3-F70C1AFA501E";
paths = (
{
closed = 1;
nodes = (
"385 300 OFFCURVE",
"340 345 OFFCURVE",
"340 400 CURVE SMOOTH",
"340 814 LINE SMOOTH",
"340 850 OFFCURVE",
"319 864 OFFCURVE",
"290 864 CURVE SMOOTH",
"102 864 LINE SMOOTH",
"67 864 OFFCURVE",
"50 850 OFFCURVE",
"50 821 CURVE SMOOTH",
"50 268 LINE SMOOTH",
"50 238 OFFCURVE",
"52 220 OFFCURVE",
"77 195 CURVE SMOOTH",
"247 25 LINE SMOOTH",
"263 9 OFFCURVE",
"285 0 OFFCURVE",
"310 0 CURVE SMOOTH",
"798 0 LINE SMOOTH",
"834 0 OFFCURVE",
"850 14 OFFCURVE",
"850 53 CURVE",
"850 797 LINE",
"850 841 OFFCURVE",
"827 864 OFFCURVE",
"781 864 CURVE SMOOTH",
"629 864 LINE SMOOTH",
"583 864 OFFCURVE",
"560 841 OFFCURVE",
"560 797 CURVE SMOOTH",
"560 400 LINE SMOOTH",
"560 345 OFFCURVE",
"515 300 OFFCURVE",
"460 300 CURVE SMOOTH",
"440 300 LINE SMOOTH"
);
}
);
width = 900;
},
{
anchors = (
{
name = bottom;
position = "{500, 0}";
},
{
name = ogonek;
position = "{880, 10}";
},
{
name = top;
position = "{500, 900}";
},
{
name = topright;
position = "{780, 768}";
}
);
background = {
paths = (
{
closed = 1;
nodes = (
"840 16 LINE",
"840 880 LINE",
"700 880 LINE",
"700 16 LINE"
);
},
{
closed = 1;
nodes = (
"700 230 LINE",
"602 154 OFFCURVE",
"519 130 OFFCURVE",
"448 130 CURVE SMOOTH",
"373 130 OFFCURVE",
"300 157 OFFCURVE",
"300 307 CURVE SMOOTH",
"300 880 LINE",
"160 880 LINE",
"160 239 LINE SMOOTH",
"160 74 OFFCURVE",
"238 0 OFFCURVE",
"409 0 CURVE SMOOTH",
"514 0 OFFCURVE",
"609 30 OFFCURVE",
"700 108 CURVE"
);
}
);
};
layerId = "75A0A031-BEAD-45F4-8089-5B3FA8FFE7DC";
paths = (
{
closed = 1;
nodes = (
"850 864 LINE",
"820 864 LINE",
"820 309 LINE SMOOTH",
"820 96 OFFCURVE",
"661 12 OFFCURVE",
"498 12 CURVE SMOOTH",
"345 12 OFFCURVE",
"180 91 OFFCURVE",
"180 311 CURVE SMOOTH",
"180 864 LINE",
"150 864 LINE",
"150 309 LINE SMOOTH",
"150 68 OFFCURVE",
"319 -16 OFFCURVE",
"500 -16 CURVE SMOOTH",
"685 -16 OFFCURVE",
"850 70 OFFCURVE",
"850 309 CURVE SMOOTH"
);
}
);
width = 1000;
}
);
unicode = 0075;
},
{
glyphname = v;
lastChange = "2023-05-22 01:39:06 +0000";
layers = (
{
background = {
paths = (
{
closed = 1;
nodes = (
"628 494 OFFCURVE",
"650 516 OFFCURVE",
"650 544 CURVE SMOOTH",
"650 572 OFFCURVE",
"628 594 OFFCURVE",
"600 594 CURVE SMOOTH",
"572 594 OFFCURVE",
"550 572 OFFCURVE",
"550 544 CURVE SMOOTH",
"550 516 OFFCURVE",
"572 494 OFFCURVE",
"600 494 CURVE SMOOTH"
);
},
{
closed = 1;
nodes = (
"448 360 OFFCURVE",
"470 382 OFFCURVE",
"470 410 CURVE SMOOTH",
"470 438 OFFCURVE",
"448 460 OFFCURVE",
"420 460 CURVE SMOOTH",
"392 460 OFFCURVE",
"370 438 OFFCURVE",
"370 410 CURVE SMOOTH",
"370 382 OFFCURVE",
"392 360 OFFCURVE",
"420 360 CURVE SMOOTH"
);
},
{
closed = 1;
nodes = (
"474 360 OFFCURVE",
"496 382 OFFCURVE",
"496 410 CURVE SMOOTH",
"496 438 OFFCURVE",
"474 460 OFFCURVE",
"446 460 CURVE SMOOTH",
"418 460 OFFCURVE",
"396 438 OFFCURVE",
"396 410 CURVE SMOOTH",
"396 382 OFFCURVE",
"418 360 OFFCURVE",
"446 360 CURVE SMOOTH"
);
}
);
};
layerId = "7B6A6B4E-EFCA-423F-B1F3-F70C1AFA501E";
paths = (
{
closed = 1;
nodes = (
"50 15 OFFCURVE",
"67 0 OFFCURVE",
"102 0 CURVE SMOOTH",
"362 0 LINE SMOOTH",
"392 0 OFFCURVE",
"409 5 OFFCURVE",
"435 27 CURVE SMOOTH",
"825 367 LINE SMOOTH",
"843 383 OFFCURVE",
"850 405 OFFCURVE",
"850 430 CURVE SMOOTH",
"850 812 LINE SMOOTH",
"850 847 OFFCURVE",
"835 864 OFFCURVE",
"805 864 CURVE SMOOTH",
"638 864 LINE SMOOTH",
"588 864 OFFCURVE",
"570 847 OFFCURVE",
"570 812 CURVE SMOOTH",
"570 544 LINE SMOOTH",
"570 526 OFFCURVE",
"562 514 OFFCURVE",
"553 506 CURVE SMOOTH",
"409 380 LINE SMOOTH",
"394 367 OFFCURVE",
"384 360 OFFCURVE",
"366 360 CURVE SMOOTH",
"340 360 LINE SMOOTH",
"312 360 OFFCURVE",
"290 382 OFFCURVE",
"290 410 CURVE SMOOTH",
"290 812 LINE SMOOTH",
"290 847 OFFCURVE",
"273 864 OFFCURVE",
"242 864 CURVE SMOOTH",
"95 864 LINE SMOOTH",
"65 864 OFFCURVE",
"50 847 OFFCURVE",
"50 812 CURVE SMOOTH",
"50 46 LINE SMOOTH"
);
}
);
width = 900;
},
{
background = {
paths = (
{
closed = 1;
nodes = (
"870 914 LINE",
"526 235 LINE SMOOTH",
"510 203 OFFCURVE",
"489 205 OFFCURVE",
"474 235 CURVE SMOOTH",
"134 914 LINE",
"0 844 LINE",
"427 19 LINE SMOOTH",
"460 -45 OFFCURVE",
"539 -43 OFFCURVE",
"573 23 CURVE SMOOTH",
"1000 844 LINE"
);
}
);
};
layerId = "75A0A031-BEAD-45F4-8089-5B3FA8FFE7DC";
paths = (
{
closed = 1;
nodes = (
"966 864 LINE",
"547 40 LINE SMOOTH",
"522 -9 OFFCURVE",
"476 -11 OFFCURVE",
"452 37 CURVE SMOOTH",
"34 864 LINE",
"0 864 LINE",
"427 19 LINE SMOOTH",
"459 -45 OFFCURVE",
"540 -43 OFFCURVE",
"573 23 CURVE SMOOTH",
"1000 864 LINE"
);
}
);
width = 1000;
}
);
unicode = 0076;
},
{
glyphname = w;
lastChange = "2023-05-22 01:39:09 +0000";
layers = (
{
anchors = (
{
name = bottom;
position = "{450, 0}";
},
{
name = top;
position = "{450, 864}";
}
);
background = {
paths = (
{
closed = 1;
nodes = (
"759 198 LINE",
"729 198 LINE",
"562 482 LINE",
"461 482 LINE",
"277 198 LINE",
"247 198 LINE",
"247 864 LINE",
"124 864 LINE",
"124 0 LINE",
"291 0 LINE",
"483 307 LINE",
"513 307 LINE",
"697 0 LINE",
"876 0 LINE",
"876 864 LINE",
"759 864 LINE"
);
},
{
closed = 1;
nodes = (
"755 0 LINE SMOOTH",
"649 0 OFFCURVE",
"564 290 OFFCURVE",
"499 290 CURVE SMOOTH",
"435 290 OFFCURVE",
"349 0 OFFCURVE",
"235 0 CURVE SMOOTH",
"145 0 LINE SMOOTH",
"95 0 OFFCURVE",
"80 18 OFFCURVE",
"80 102 CURVE SMOOTH",
"80 812 LINE SMOOTH",
"80 847 OFFCURVE",
"95 864 OFFCURVE",
"125 864 CURVE SMOOTH",
"282 864 LINE SMOOTH",
"313 864 OFFCURVE",
"330 847 OFFCURVE",
"330 812 CURVE SMOOTH",
"330 490 LINE SMOOTH",
"330 460 OFFCURVE",
"339 440 OFFCURVE",
"373 440 CURVE SMOOTH",
"407 440 OFFCURVE",
"415 460 OFFCURVE",
"415 490 CURVE",
"415 812 LINE SMOOTH",
"415 847 OFFCURVE",
"430 864 OFFCURVE",
"460 864 CURVE SMOOTH",
"537 864 LINE SMOOTH",
"568 864 OFFCURVE",
"585 847 OFFCURVE",
"585 812 CURVE SMOOTH",
"585 490 LINE SMOOTH",
"585 460 OFFCURVE",
"593 440 OFFCURVE",
"627 440 CURVE SMOOTH",
"661 440 OFFCURVE",
"670 460 OFFCURVE",
"670 490 CURVE SMOOTH",
"670 812 LINE SMOOTH",
"670 847 OFFCURVE",
"688 864 OFFCURVE",
"718 864 CURVE SMOOTH",
"875 864 LINE SMOOTH",
"905 864 OFFCURVE",
"920 847 OFFCURVE",
"920 812 CURVE SMOOTH",
"920 102 LINE SMOOTH",
"920 18 OFFCURVE",
"905 0 OFFCURVE",
"845 0 CURVE SMOOTH"
);
}
);
};
hints = (
{
horizontal = 1;
place = "{-30, 0}";
type = Stem;
},
{
horizontal = 1;
place = "{105, 0}";
type = Stem;
}
);
layerId = "7B6A6B4E-EFCA-423F-B1F3-F70C1AFA501E";
paths = (
{
closed = 1;
nodes = (
"850 812 LINE SMOOTH",
"850 847 OFFCURVE",
"836 864 OFFCURVE",
"807 864 CURVE SMOOTH",
"683 864 LINE SMOOTH",
"654 864 OFFCURVE",
"640 847 OFFCURVE",
"640 812 CURVE SMOOTH",
"640 630 LINE SMOOTH",
"640 575 OFFCURVE",
"595 530 OFFCURVE",
"540 530 CURVE SMOOTH",
"371 530 LINE SMOOTH",
"316 530 OFFCURVE",
"271 575 OFFCURVE",
"271 630 CURVE SMOOTH",
"270 814 LINE SMOOTH",
"270 849 OFFCURVE",
"256 864 OFFCURVE",
"227 864 CURVE SMOOTH",
"93 864 LINE SMOOTH",
"64 864 OFFCURVE",
"50 847 OFFCURVE",
"50 812 CURVE SMOOTH",
"50 52 LINE SMOOTH",
"50 16 OFFCURVE",
"64 0 OFFCURVE",
"103 0 CURVE SMOOTH",
"196 0 LINE SMOOTH",
"226 0 OFFCURVE",
"245 -1 OFFCURVE",
"269 27 CURVE SMOOTH",
"381 162 LINE",
"399 182 OFFCURVE",
"426 195 OFFCURVE",
"455 195 CURVE SMOOTH",
"484 195 OFFCURVE",
"511 182 OFFCURVE",
"529 162 CURVE",
"642 27 LINE SMOOTH",
"666 -1 OFFCURVE",
"685 0 OFFCURVE",
"715 0 CURVE SMOOTH",
"797 0 LINE SMOOTH",
"836 0 OFFCURVE",
"850 16 OFFCURVE",
"850 52 CURVE SMOOTH"
);
}
);
width = 900;
},
{
anchors = (
{
name = bottom;
position = "{500, 0}";
},
{
name = top;
position = "{500, 864}";
}
);
background = {
paths = (
{
closed = 1;
nodes = (
"759 198 LINE",
"729 198 LINE",
"562 482 LINE",
"461 482 LINE",
"277 198 LINE",
"247 198 LINE",
"247 864 LINE",
"124 864 LINE",
"124 0 LINE",
"291 0 LINE",
"483 307 LINE",
"513 307 LINE",
"697 0 LINE",
"876 0 LINE",
"876 864 LINE",
"759 864 LINE"
);
}
);
};
hints = (
{
horizontal = 1;
origin = "{0, 27}";
target = "{0, 41}";
type = Stem;
},
{
horizontal = 1;
origin = "{0, 18}";
target = "{0, 4}";
type = Stem;
}
);
layerId = "75A0A031-BEAD-45F4-8089-5B3FA8FFE7DC";
paths = (
{
closed = 1;
nodes = (
"910 864 LINE",
"853 138 LINE SMOOTH",
"845 33 OFFCURVE",
"817 -3 OFFCURVE",
"738 -3 CURVE SMOOTH",
"679 -3 OFFCURVE",
"632 18 OFFCURVE",
"624 136 CURVE SMOOTH",
"600 482 LINE SMOOTH",
"596 536 OFFCURVE",
"570 588 OFFCURVE",
"501 588 CURVE SMOOTH",
"431 588 OFFCURVE",
"409 535 OFFCURVE",
"405 482 CURVE SMOOTH",
"378 136 LINE SMOOTH",
"370 31 OFFCURVE",
"328 -3 OFFCURVE",
"260 -3 CURVE SMOOTH",
"191 -3 OFFCURVE",
"149 31 OFFCURVE",
"141 147 CURVE SMOOTH",
"90 864 LINE",
"60 864 LINE",
"111 147 LINE SMOOTH",
"120 23 OFFCURVE",
"170 -30 OFFCURVE",
"260 -30 CURVE SMOOTH",
"330 -30 OFFCURVE",
"398 2 OFFCURVE",
"408 136 CURVE SMOOTH",
"435 482 LINE SMOOTH",
"438 525 OFFCURVE",
"464 561 OFFCURVE",
"503 561 CURVE SMOOTH",
"542 561 OFFCURVE",
"567 525 OFFCURVE",
"570 482 CURVE SMOOTH",
"594 136 LINE SMOOTH",
"603 3 OFFCURVE",
"672 -30 OFFCURVE",
"742 -30 CURVE SMOOTH",
"832 -30 OFFCURVE",
"874 23 OFFCURVE",
"883 138 CURVE SMOOTH",
"940 864 LINE"
);
}
);
width = 1000;
}
);
unicode = 0077;
},
{
glyphname = x;
lastChange = "2023-05-22 01:39:13 +0000";
layers = (
{
background = {
paths = (
{
closed = 1;
nodes = (
"746 864 LINE",
"40 0 LINE",
"220 0 LINE",
"926 864 LINE"
);
},
{
closed = 1;
nodes = (
"960 0 LINE",
"277 864 LINE",
"96 864 LINE",
"779 0 LINE"
);
}
);
};
layerId = "7B6A6B4E-EFCA-423F-B1F3-F70C1AFA501E";
paths = (
{
closed = 1;
nodes = (
"479 188 OFFCURVE",
"507 177 OFFCURVE",
"524 155 CURVE SMOOTH",
"615 39 LINE SMOOTH",
"639 9 OFFCURVE",
"674 0 OFFCURVE",
"716 0 CURVE SMOOTH",
"796 0 LINE SMOOTH",
"826 0 OFFCURVE",
"850 17 OFFCURVE",
"850 52 CURVE SMOOTH",
"850 214 LINE SMOOTH",
"850 249 OFFCURVE",
"835 270 OFFCURVE",
"806 270 CURVE SMOOTH",
"727 270 LINE SMOOTH",
"671 270 OFFCURVE",
"627 314 OFFCURVE",
"627 370 CURVE SMOOTH",
"627 484 LINE SMOOTH",
"627 540 OFFCURVE",
"671 584 OFFCURVE",
"727 584 CURVE SMOOTH",
"806 584 LINE SMOOTH",
"835 584 OFFCURVE",
"850 605 OFFCURVE",
"850 640 CURVE SMOOTH",
"850 812 LINE SMOOTH",
"850 847 OFFCURVE",
"825 864 OFFCURVE",
"796 864 CURVE SMOOTH",
"714 864 LINE SMOOTH",
"672 864 OFFCURVE",
"640 856 OFFCURVE",
"615 825 CURVE SMOOTH",
"524 709 LINE SMOOTH",
"507 688 OFFCURVE",
"479 676 OFFCURVE",
"450 676 CURVE SMOOTH",
"421 676 OFFCURVE",
"393 688 OFFCURVE",
"376 709 CURVE SMOOTH",
"285 825 LINE SMOOTH",
"260 856 OFFCURVE",
"228 864 OFFCURVE",
"186 864 CURVE SMOOTH",
"104 864 LINE SMOOTH",
"75 864 OFFCURVE",
"50 847 OFFCURVE",
"50 812 CURVE SMOOTH",
"50 640 LINE SMOOTH",
"50 605 OFFCURVE",
"65 584 OFFCURVE",
"94 584 CURVE SMOOTH",
"173 584 LINE SMOOTH",
"229 584 OFFCURVE",
"273 540 OFFCURVE",
"273 484 CURVE SMOOTH",
"273 370 LINE SMOOTH",
"273 314 OFFCURVE",
"229 270 OFFCURVE",
"173 270 CURVE SMOOTH",
"94 270 LINE SMOOTH",
"65 270 OFFCURVE",
"50 249 OFFCURVE",
"50 214 CURVE SMOOTH",
"50 52 LINE SMOOTH",
"50 17 OFFCURVE",
"74 0 OFFCURVE",
"104 0 CURVE SMOOTH",
"184 0 LINE SMOOTH",
"226 0 OFFCURVE",
"261 9 OFFCURVE",
"285 39 CURVE SMOOTH",
"376 155 LINE SMOOTH",
"393 177 OFFCURVE",
"421 188 OFFCURVE",
"450 188 CURVE SMOOTH"
);
}
);
width = 900;
},
{
background = {
paths = (
{
closed = 1;
nodes = (
"746 864 LINE",
"40 0 LINE",
"220 0 LINE",
"926 864 LINE"
);
},
{
closed = 1;
nodes = (
"960 0 LINE",
"277 864 LINE",
"96 864 LINE",
"779 0 LINE"
);
}
);
};
layerId = "75A0A031-BEAD-45F4-8089-5B3FA8FFE7DC";
paths = (
{
closed = 1;
nodes = (
"141 -18 LINE",
"514 439 LINE",
"499 439 LINE",
"853 -18 LINE",
"877 0 LINE",
"518 465 LINE",
"518 444 LINE",
"866 864 LINE",
"843 881 LINE",
"499 469 LINE",
"514 469 LINE",
"171 881 LINE",
"148 864 LINE",
"494 444 LINE",
"494 465 LINE",
"117 0 LINE"
);
}
);
width = 1000;
}
);
unicode = 0078;
},
{
glyphname = y;
lastChange = "2023-05-22 01:39:16 +0000";
layers = (
{
anchors = (
{
name = bottom;
position = "{500, 0}";
},
{
name = center;
position = "{340, 1044}";
},
{
name = top;
position = "{510, 900}";
}
);
background = {
paths = (
{
closed = 1;
nodes = (
"850 864 LINE",
"524 234 LINE SMOOTH",
"508 202 OFFCURVE",
"487 203 OFFCURVE",
"472 234 CURVE SMOOTH",
"161 864 LINE",
"0 864 LINE",
"427 19 LINE SMOOTH",
"459 -45 OFFCURVE",
"540 -43 OFFCURVE",
"573 23 CURVE SMOOTH",
"1000 864 LINE"
);
}
);
};
layerId = "7B6A6B4E-EFCA-423F-B1F3-F70C1AFA501E";
paths = (
{
closed = 1;
nodes = (
"573 -180 OFFCURVE",
"550 -157 OFFCURVE",
"550 -113 CURVE SMOOTH",
"550 -100 LINE SMOOTH",
"550 -45 OFFCURVE",
"505 0 OFFCURVE",
"450 0 CURVE SMOOTH",
"310 0 LINE SMOOTH",
"285 0 OFFCURVE",
"263 9 OFFCURVE",
"247 25 CURVE SMOOTH",
"77 195 LINE SMOOTH",
"52 220 OFFCURVE",
"50 238 OFFCURVE",
"50 268 CURVE SMOOTH",
"50 821 LINE SMOOTH",
"50 850 OFFCURVE",
"67 864 OFFCURVE",
"102 864 CURVE SMOOTH",
"280 864 LINE SMOOTH",
"309 864 OFFCURVE",
"330 850 OFFCURVE",
"330 814 CURVE SMOOTH",
"330 400 LINE SMOOTH",
"330 345 OFFCURVE",
"375 300 OFFCURVE",
"430 300 CURVE SMOOTH",
"450 300 LINE SMOOTH",
"505 300 OFFCURVE",
"550 345 OFFCURVE",
"550 400 CURVE SMOOTH",
"550 797 LINE SMOOTH",
"550 841 OFFCURVE",
"573 864 OFFCURVE",
"589 864 CURVE SMOOTH",
"781 864 LINE SMOOTH",
"827 864 OFFCURVE",
"850 841 OFFCURVE",
"850 797 CURVE",
"850 -113 LINE SMOOTH",
"850 -157 OFFCURVE",
"827 -180 OFFCURVE",
"781 -180 CURVE SMOOTH",
"619 -180 LINE"
);
}
);
width = 900;
},
{
anchors = (
{
name = bottom;
position = "{500, 0}";
},
{
name = top;
position = "{500, 900}";
}
);
background = {
paths = (
{
closed = 1;
nodes = (
"850 864 LINE",
"524 234 LINE SMOOTH",
"508 202 OFFCURVE",
"487 203 OFFCURVE",
"472 234 CURVE SMOOTH",
"161 864 LINE",
"0 864 LINE",
"427 19 LINE SMOOTH",
"459 -45 OFFCURVE",
"540 -43 OFFCURVE",
"573 23 CURVE SMOOTH",
"1000 864 LINE"
);
}
);
};
layerId = "75A0A031-BEAD-45F4-8089-5B3FA8FFE7DC";
paths = (
{
closed = 1;
nodes = (
"604 199 LINE SMOOTH",
"490 -29 OFFCURVE",
"372 -204 OFFCURVE",
"64 -300 CURVE",
"74 -330 LINE",
"372 -238 OFFCURVE",
"517 -42 OFFCURVE",
"634 192 CURVE SMOOTH",
"970 864 LINE",
"936 864 LINE"
);
},
{
closed = 1;
nodes = (
"30 864 LINE",
"489 0 LINE",
"523 0 LINE",
"65 864 LINE"
);
}
);
width = 1000;
}
);
unicode = 0079;
},
{
glyphname = z;
lastChange = "2023-05-22 01:39:20 +0000";
layers = (
{
anchors = (
{
name = bottom;
position = "{450, 0}";
},
{
name = top;
position = "{450, 900}";
}
);
layerId = "7B6A6B4E-EFCA-423F-B1F3-F70C1AFA501E";
paths = (
{
closed = 1;
nodes = (
"591 252 LINE SMOOTH",
"535 252 OFFCURVE",
"491 296 OFFCURVE",
"491 352 CURVE SMOOTH",
"491 408 OFFCURVE",
"535 452 OFFCURVE",
"591 452 CURVE SMOOTH",
"690 452 LINE SMOOTH",
"807 452 OFFCURVE",
"850 504 OFFCURVE",
"850 622 CURVE SMOOTH",
"850 812 LINE SMOOTH",
"850 847 OFFCURVE",
"837 864 OFFCURVE",
"808 864 CURVE SMOOTH",
"93 864 LINE SMOOTH",
"64 864 OFFCURVE",
"50 847 OFFCURVE",
"50 812 CURVE SMOOTH",
"50 747 LINE SMOOTH",
"50 712 OFFCURVE",
"64 692 OFFCURVE",
"93 692 CURVE SMOOTH",
"280 692 LINE SMOOTH",
"336 692 OFFCURVE",
"380 648 OFFCURVE",
"380 592 CURVE SMOOTH",
"380 536 OFFCURVE",
"336 492 OFFCURVE",
"280 492 CURVE SMOOTH",
"181 492 LINE SMOOTH",
"83 492 OFFCURVE",
"50 440 OFFCURVE",
"50 362 CURVE SMOOTH",
"50 322 LINE SMOOTH",
"50 244 OFFCURVE",
"83 192 OFFCURVE",
"181 192 CURVE SMOOTH",
"280 192 LINE SMOOTH",
"336 192 OFFCURVE",
"380 148 OFFCURVE",
"380 92 CURVE SMOOTH",
"380 36 OFFCURVE",
"336 -8 OFFCURVE",
"280 -8 CURVE SMOOTH",
"93 -8 LINE SMOOTH",
"64 -8 OFFCURVE",
"50 -28 OFFCURVE",
"50 -63 CURVE SMOOTH",
"50 -128 LINE SMOOTH",
"50 -163 OFFCURVE",
"64 -180 OFFCURVE",
"93 -180 CURVE SMOOTH",
"690 -180 LINE SMOOTH",
"807 -180 OFFCURVE",
"850 -128 OFFCURVE",
"850 10 CURVE SMOOTH",
"850 200 LINE SMOOTH",
"850 235 OFFCURVE",
"837 252 OFFCURVE",
"808 252 CURVE SMOOTH"
);
}
);
width = 900;
},
{
anchors = (
{
name = bottom;
position = "{500, 0}";
},
{
name = top;
position = "{500, 900}";
}
);
layerId = "75A0A031-BEAD-45F4-8089-5B3FA8FFE7DC";
paths = (
{
closed = 1;
nodes = (
"120 864 LINE",
"120 837 LINE",
"828 837 LINE SMOOTH",
"875 837 OFFCURVE",
"889 838 OFFCURVE",
"837 786 CURVE SMOOTH",
"108 59 LINE SMOOTH",
"49 1 OFFCURVE",
"93 0 OFFCURVE",
"144 0 CURVE SMOOTH",
"920 0 LINE",
"920 27 LINE",
"150 27 LINE SMOOTH",
"133 27 OFFCURVE",
"115 27 OFFCURVE",
"148 59 CURVE SMOOTH",
"877 786 LINE SMOOTH",
"951 860 OFFCURVE",
"912 864 OFFCURVE",
"828 864 CURVE SMOOTH"
);
}
);
width = 1000;
}
);
unicode = 007A;
},
{
glyphname = d.001;
lastChange = "2020-11-20 21:52:43 +0000";
layers = (
{
anchors = (
{
name = bottom;
position = "{500, 0}";
},
{
name = center;
position = "{660, 1044}";
},
{
name = top;
position = "{500, 1280}";
},
{
name = topright;
position = "{1000, 1152}";
}
);
background = {
paths = (
{
closed = 1;
nodes = (
"700 1144 LINE",
"700 0 LINE",
"840 0 LINE",
"840 1144 LINE"
);
},
{
closed = 1;
nodes = (
"354 832 OFFCURVE",
"90 662 OFFCURVE",
"90 318 CURVE SMOOTH",
"90 67 OFFCURVE",
"234 -10 OFFCURVE",
"377 -10 CURVE SMOOTH",
"482 -10 OFFCURVE",
"588 32 OFFCURVE",
"690 108 CURVE",
"700 108 LINE",
"700 273 LINE",
"629 206 OFFCURVE",
"492 125 OFFCURVE",
"380 125 CURVE SMOOTH",
"277 125 OFFCURVE",
"235 193 OFFCURVE",
"235 320 CURVE SMOOTH",
"235 574 OFFCURVE",
"399 699 OFFCURVE",
"700 759 CURVE",
"700 894 LINE"
);
}
);
};
hints = (
{
place = "{90, 145}";
type = Stem;
},
{
horizontal = 1;
place = "{-24, 140}";
type = Stem;
},
{
horizontal = 1;
place = "{892, 140}";
type = Stem;
}
);
layerId = "7B6A6B4E-EFCA-423F-B1F3-F70C1AFA501E";
paths = (
{
closed = 1;
nodes = (
"357 0 OFFCURVE",
"394 11 OFFCURVE",
"429 61 CURVE SMOOTH",
"441 78 LINE SMOOTH",
"455 97 OFFCURVE",
"470 117 OFFCURVE",
"492 117 CURVE SMOOTH",
"511 117 OFFCURVE",
"522 102 OFFCURVE",
"521 77 CURVE SMOOTH",
"520 52 LINE SMOOTH",
"519 16 OFFCURVE",
"534 0 OFFCURVE",
"573 0 CURVE SMOOTH",
"847 0 LINE SMOOTH",
"886 0 OFFCURVE",
"900 16 OFFCURVE",
"900 52 CURVE SMOOTH",
"900 1081 LINE SMOOTH",
"900 1117 OFFCURVE",
"886 1133 OFFCURVE",
"847 1133 CURVE SMOOTH",
"573 1133 LINE SMOOTH",
"534 1133 OFFCURVE",
"520 1117 OFFCURVE",
"520 1081 CURVE SMOOTH",
"521 787 LINE SMOOTH",
"521 762 OFFCURVE",
"511 747 OFFCURVE",
"492 747 CURVE SMOOTH",
"470 747 OFFCURVE",
"455 767 OFFCURVE",
"441 786 CURVE SMOOTH",
"429 803 LINE SMOOTH",
"394 853 OFFCURVE",
"357 864 OFFCURVE",
"313 864 CURVE SMOOTH",
"257 864 LINE SMOOTH",
"156 864 OFFCURVE",
"100 797 OFFCURVE",
"100 688 CURVE SMOOTH",
"100 116 LINE SMOOTH",
"100 27 OFFCURVE",
"147 0 OFFCURVE",
"218 0 CURVE SMOOTH",
"313 0 LINE SMOOTH"
);
},
{
closed = 1;
nodes = (
"439 300 LINE SMOOTH",
"385 300 OFFCURVE",
"370 326 OFFCURVE",
"370 378 CURVE SMOOTH",
"370 486 LINE SMOOTH",
"370 538 OFFCURVE",
"385 564 OFFCURVE",
"439 564 CURVE SMOOTH",
"501 564 LINE SMOOTH",
"555 564 OFFCURVE",
"570 538 OFFCURVE",
"570 486 CURVE SMOOTH",
"570 378 LINE SMOOTH",
"570 326 OFFCURVE",
"555 300 OFFCURVE",
"501 300 CURVE SMOOTH"
);
}
);
width = 1000;
},
{
anchors = (
{
name = bottom;
position = "{500, 0}";
},
{
name = center;
position = "{660, 1044}";
},
{
name = top;
position = "{500, 1280}";
},
{
name = topright;
position = "{1000, 1152}";
}
);
background = {
paths = (
{
closed = 1;
nodes = (
"700 1144 LINE",
"700 0 LINE",
"840 0 LINE",
"840 1144 LINE"
);
},
{
closed = 1;
nodes = (
"354 832 OFFCURVE",
"90 662 OFFCURVE",
"90 318 CURVE SMOOTH",
"90 67 OFFCURVE",
"234 -10 OFFCURVE",
"377 -10 CURVE SMOOTH",
"482 -10 OFFCURVE",
"588 32 OFFCURVE",
"690 108 CURVE",
"700 108 LINE",
"700 273 LINE",
"629 206 OFFCURVE",
"492 125 OFFCURVE",
"380 125 CURVE SMOOTH",
"277 125 OFFCURVE",
"235 193 OFFCURVE",
"235 320 CURVE SMOOTH",
"235 574 OFFCURVE",
"399 699 OFFCURVE",
"700 759 CURVE",
"700 894 LINE"
);
}
);
};
hints = (
{
origin = "{0, 16}";
target = "{1, 11}";
type = Stem;
},
{
horizontal = 1;
origin = "{0, 2}";
target = "{1, 8}";
type = Stem;
},
{
horizontal = 1;
origin = "{0, 13}";
target = "{1, 2}";
type = Stem;
}
);
layerId = "75A0A031-BEAD-45F4-8089-5B3FA8FFE7DC";
paths = (
{
closed = 1;
nodes = (
"90 162 OFFCURVE",
"246 -24 OFFCURVE",
"470 -24 CURVE SMOOTH",
"638 -24 OFFCURVE",
"765 82 OFFCURVE",
"820 268 CURVE",
"820 0 LINE",
"850 0 LINE",
"850 1152 LINE",
"820 1152 LINE",
"820 626 LINE",
"779 764 OFFCURVE",
"670 892 OFFCURVE",
"481 892 CURVE SMOOTH",
"247 892 OFFCURVE",
"90 686 OFFCURVE",
"90 430 CURVE SMOOTH"
);
},
{
closed = 1;
nodes = (
"123 666 OFFCURVE",
"266 865 OFFCURVE",
"481 865 CURVE SMOOTH",
"670 865 OFFCURVE",
"820 712 OFFCURVE",
"820 447 CURVE SMOOTH",
"820 183 OFFCURVE",
"669 3 OFFCURVE",
"470 3 CURVE SMOOTH",
"268 3 OFFCURVE",
"123 182 OFFCURVE",
"123 430 CURVE SMOOTH"
);
}
);
width = 1000;
}
);
},
{
glyphname = idotless.extendboth;
lastChange = "2023-05-22 02:06:38 +0000";
layers = (
{
anchors = (
{
name = bottom;
position = "{450, 0}";
},
{
name = ogonek;
position = "{810, 10}";
},
{
name = top;
position = "{450, 864}";
}
);
layerId = "7B6A6B4E-EFCA-423F-B1F3-F70C1AFA501E";
paths = (
{
closed = 1;
nodes = (
"937 270 OFFCURVE",
"950 250 OFFCURVE",
"950 216 CURVE SMOOTH",
"950 51 LINE SMOOTH",
"950 17 OFFCURVE",
"936 0 OFFCURVE",
"907 0 CURVE SMOOTH",
"568 0 LINE SMOOTH",
"538 0 OFFCURVE",
"520 2 OFFCURVE",
"495 27 CURVE SMOOTH",
"325 197 LINE SMOOTH",
"309 213 OFFCURVE",
"300 235 OFFCURVE",
"300 260 CURVE SMOOTH",
"300 494 LINE SMOOTH",
"300 549 OFFCURVE",
"255 594 OFFCURVE",
"200 594 CURVE SMOOTH",
"-7 594 LINE SMOOTH",
"-37 594 OFFCURVE",
"-50 614 OFFCURVE",
"-50 648 CURVE SMOOTH",
"-50 813 LINE SMOOTH",
"-50 847 OFFCURVE",
"-36 864 OFFCURVE",
"-7 864 CURVE SMOOTH",
"547 864 LINE SMOOTH",
"586 864 OFFCURVE",
"600 848 OFFCURVE",
"600 812 CURVE SMOOTH",
"600 370 LINE SMOOTH",
"600 315 OFFCURVE",
"645 270 OFFCURVE",
"700 270 CURVE SMOOTH",
"907 270 LINE SMOOTH"
);
}
);
width = 900;
},
{
layerId = "75A0A031-BEAD-45F4-8089-5B3FA8FFE7DC";
width = 1000;
}
);
},
{
glyphname = l.extendboth;
lastChange = "2023-05-22 02:03:36 +0000";
layers = (
{
layerId = "7B6A6B4E-EFCA-423F-B1F3-F70C1AFA501E";
paths = (
{
closed = 1;
nodes = (
"547 1044 LINE SMOOTH",
"586 1044 OFFCURVE",
"600 1028 OFFCURVE",
"600 992 CURVE SMOOTH",
"600 370 LINE SMOOTH",
"600 315 OFFCURVE",
"645 270 OFFCURVE",
"700 270 CURVE SMOOTH",
"900 270 LINE SMOOTH",
"936 270 OFFCURVE",
"950 249 OFFCURVE",
"950 220 CURVE SMOOTH",
"950 52 LINE SMOOTH",
"950 17 OFFCURVE",
"936 0 OFFCURVE",
"907 0 CURVE SMOOTH",
"568 0 LINE SMOOTH",
"538 0 OFFCURVE",
"520 2 OFFCURVE",
"495 27 CURVE SMOOTH",
"325 197 LINE SMOOTH",
"309 213 OFFCURVE",
"300 235 OFFCURVE",
"300 260 CURVE SMOOTH",
"300 644 LINE SMOOTH",
"300 699 OFFCURVE",
"255 744 OFFCURVE",
"200 744 CURVE SMOOTH",
"17 744 LINE SMOOTH",
"-27 744 OFFCURVE",
"-50 767 OFFCURVE",
"-50 813 CURVE SMOOTH",
"-50 975 LINE SMOOTH",
"-50 1021 OFFCURVE",
"-27 1044 OFFCURVE",
"17 1044 CURVE SMOOTH"
);
}
);
width = 900;
},
{
layerId = "75A0A031-BEAD-45F4-8089-5B3FA8FFE7DC";
width = 1000;
}
);
},
{
glyphname = idotless.extendleft;
lastChange = "2023-05-22 02:06:40 +0000";
layers = (
{
anchors = (
{
name = bottom;
position = "{450, 0}";
},
{
name = ogonek;
position = "{810, 10}";
},
{
name = top;
position = "{450, 864}";
}
);
layerId = "7B6A6B4E-EFCA-423F-B1F3-F70C1AFA501E";
paths = (
{
closed = 1;
nodes = (
"837 270 OFFCURVE",
"850 250 OFFCURVE",
"850 216 CURVE SMOOTH",
"850 51 LINE SMOOTH",
"850 17 OFFCURVE",
"836 0 OFFCURVE",
"807 0 CURVE SMOOTH",
"568 0 LINE SMOOTH",
"538 0 OFFCURVE",
"520 2 OFFCURVE",
"495 27 CURVE SMOOTH",
"325 197 LINE SMOOTH",
"309 213 OFFCURVE",
"300 235 OFFCURVE",
"300 260 CURVE SMOOTH",
"300 494 LINE SMOOTH",
"300 549 OFFCURVE",
"255 594 OFFCURVE",
"200 594 CURVE SMOOTH",
"-7 594 LINE SMOOTH",
"-37 594 OFFCURVE",
"-50 614 OFFCURVE",
"-50 648 CURVE SMOOTH",
"-50 813 LINE SMOOTH",
"-50 847 OFFCURVE",
"-36 864 OFFCURVE",
"-7 864 CURVE SMOOTH",
"547 864 LINE SMOOTH",
"586 864 OFFCURVE",
"600 848 OFFCURVE",
"600 812 CURVE SMOOTH",
"600 370 LINE SMOOTH",
"600 315 OFFCURVE",
"645 270 OFFCURVE",
"700 270 CURVE SMOOTH",
"807 270 LINE SMOOTH"
);
}
);
width = 900;
},
{
layerId = "75A0A031-BEAD-45F4-8089-5B3FA8FFE7DC";
width = 1000;
}
);
},
{
glyphname = l.extendleft;
lastChange = "2023-05-22 02:03:44 +0000";
layers = (
{
layerId = "7B6A6B4E-EFCA-423F-B1F3-F70C1AFA501E";
paths = (
{
closed = 1;
nodes = (
"547 1044 LINE SMOOTH",
"586 1044 OFFCURVE",
"600 1028 OFFCURVE",
"600 992 CURVE SMOOTH",
"600 370 LINE SMOOTH",
"600 315 OFFCURVE",
"645 270 OFFCURVE",
"700 270 CURVE SMOOTH",
"800 270 LINE SMOOTH",
"836 270 OFFCURVE",
"850 249 OFFCURVE",
"850 220 CURVE SMOOTH",
"850 52 LINE SMOOTH",
"850 17 OFFCURVE",
"836 0 OFFCURVE",
"807 0 CURVE SMOOTH",
"568 0 LINE SMOOTH",
"538 0 OFFCURVE",
"520 2 OFFCURVE",
"495 27 CURVE SMOOTH",
"325 197 LINE SMOOTH",
"309 213 OFFCURVE",
"300 235 OFFCURVE",
"300 260 CURVE SMOOTH",
"300 644 LINE SMOOTH",
"300 699 OFFCURVE",
"255 744 OFFCURVE",
"200 744 CURVE SMOOTH",
"17 744 LINE SMOOTH",
"-27 744 OFFCURVE",
"-50 767 OFFCURVE",
"-50 813 CURVE SMOOTH",
"-50 975 LINE SMOOTH",
"-50 1021 OFFCURVE",
"-27 1044 OFFCURVE",
"17 1044 CURVE SMOOTH"
);
}
);
width = 900;
},
{
layerId = "75A0A031-BEAD-45F4-8089-5B3FA8FFE7DC";
width = 1000;
}
);
},
